{
.appVersion = "1192";
DisplayStrings = (
"AÁ/Abreve ÂÄÀ/Amacron/Aogonek ÅÃÆBC/Cacute/Ccaron ÇDÐ/Dcaron/Dcroat EÉ/Ecaron ÊË/Edotaccent/Edotbelow È/Emacron/Eogonek/Etilde FG/Gbreve/Gcommaaccent HIÍÎÏ/Idotaccent Ì/Imacron/Iogonek JK/Kcommaaccent L/Lacute/Lcaron/Lslash MN/Nacute/Ncaron/Ncommaaccent ÑOÓÔÖÒ/Ohungarumlaut/Omacron ØÕ/OE PÞQR/Racute/Rcaron/Rcommaaccent S/Sacute/Scaron/Scedilla T/Tcaron/Tcedilla UÚÛÜÙ/Uhungarumlaut/Umacron/Uogonek/Uring VW/Wacute/Wcircumflex/Wdieresis/Wgrave XYÝ/Ycircumflex/Ydieresis/Ygrave Z/Zacute/Zcaron/Zdotaccent aá/abreve âäà/amacron/aogonek åãæbc/cacute/ccaron çdð/dcaron/dcroat eé/ecaron êë/edotaccent/edotbelow è/emacron/eogonek/etilde fg/gbreve/gcommaaccent hi/idotless íîïì/imacron/iogonek j/jdotless k/kcommaaccent l/lacute/lcaron/lslash mn/nacute/ncaron/ncommaaccent ñoóôöò/ohungarumlaut/omacron øõ/oe pþqr/racute/rcaron/rcommaaccent s/sacute/scaron/scedilla ßt/tcaron/tcedilla uúûüù/uhungarumlaut/umacron/uogonek/uring vw/wacute/wcircumflex/wdieresis/wgrave xyý/ycircumflex/ydieresis/ygrave z/zacute/zcaron/zdotaccent/a.alt/aacute.alt/abreve.alt/acircumflex.alt/adieresis.alt/agrave.alt/amacron.alt/aogonek.alt/aring.alt/atilde.alt"
);
copyright = "Copyright © 2016-2018 by Chris Simpson";
date = "2016-07-29 23:55:50 +0000";
designer = "Chris Simpson";
designerURL = "https://github.com/chrismsimpson/Metropolis";
familyName = Metropolis;
fontMaster = (
{
alignmentZones = (
"{795, 12}",
"{687, 12}",
"{517, 12}",
"{0, -12}",
"{-205, -12}"
);
ascender = 795;
capHeight = 687;
customParameters = (
{
name = typoAscender;
value = 795;
},
{
name = typoDescender;
value = -205;
},
{
name = typoLineGap;
value = 0;
},
{
name = winAscent;
value = 795;
},
{
name = winDescent;
value = 205;
},
{
name = hheaAscender;
value = 795;
},
{
name = hheaDescender;
value = -205;
},
{
name = underlinePosition;
value = -133;
},
{
name = underlineThickness;
value = 20;
},
{
name = paramArea;
value = "525";
},
{
name = paramDepth;
value = "30";
},
{
name = paramOver;

glyphs = (
{
color = 1;
glyphname = A;
lastChange = "2019-04-06 02:19:04 +0000";
layers = (
{
anchors = (
{
name = bottom;
position = "{716, 0}";
},
{
name = top;
position = "{371, 687}";
}
);
components = (
{
name = capital_V;
transform = "{-1, 0, 0, -1, 741, 687}";
}
);
guideLines = (
{
angle = 90;
position = "{371, 308}";
}
);
layerId = "35616FF6-3D9C-499B-B113-AC9E0DB5842A";
paths = (
{
closed = 1;
nodes = (
"580 156 LINE",
"580 230 LINE",
"161 230 LINE",
"161 156 LINE"
);
}
);
width = 741;
},
{
anchors = (
{
name = bottom;
position = "{773, 0}";
},
{
name = top;
position = "{400, 687}";
}
);
components = (
{
name = capital_V;
transform = "{-1, 0, 0, -1, 800, 687}";
}
);
guideLines = (
{
angle = 90;
position = "{400, 332}";
}
);
layerId = "A0D976AB-773B-4D3A-9F7E-7A0C42AF1E7B";
paths = (
{
closed = 1;
nodes = (
"609 92 LINE",
"609 235 LINE",
"190 235 LINE",
"190 92 LINE"
);
}
);
width = 799;
},
{
anchors = (
{
name = bottom;
position = "{661, 0}";
},
{
name = top;
position = "{338, 686}";
}
);
components = (
{
name = capital_V;
transform = "{-1, 0, 0, -1, 676, 687}";
}
);
guideLines = (
{
angle = 90;
position = "{338, 322}";
}
);
layerId = "3B040282-CF47-4846-BCAF-7BFF90FB63BC";
paths = (
{
closed = 1;
nodes = (
"558 175 LINE",
"558 211 LINE",
"119 211 LINE",
"119 175 LINE"
);
}
);
width = 676;
},
{
anchors = (
{
name = bottom;
position = "{773, 0}";
},
{
name = top;
position = "{400, 687}";
}
);
associatedMasterId = "A0D976AB-773B-4D3A-9F7E-7A0C42AF1E7B";
guideLines = (
{
angle = 90;
position = "{400, 332}";
}
);
layerId = "493A62E9-4BC5-4F8D-95E8-EAF3131723CD";
name = bubble;
paths = (
{
closed = 1;
nodes = (
"799 0 LINE",
"670 687 LINE",
"129 687 LINE",
"0 0 LINE"
);
}
);
width = 799;
},
{
anchors = (
{
name = bottom;
position = "{716, 0}";
},
{
name = top;
position = "{371, 687}";
}
);
associatedMasterId = "35616FF6-3D9C-499B-B113-AC9E0DB5842A";
guideLines = (
{
angle = 90;
position = "{371, 308}";
}
);
layerId = "009094E0-FA30-47F8-843D-612B0D61FC5C";
name = bubble;
paths = (
{
closed = 1;
nodes = (
"741 0 LINE",
"573 687 LINE",
"168 687 LINE",
"0 0 LINE"
);
}
);
width = 741;
},
{
anchors = (
{
name = bottom;
position = "{661, 0}";
},
{
name = top;
position = "{338, 686}";
}
);
associatedMasterId = "3B040282-CF47-4846-BCAF-7BFF90FB63BC";
guideLines = (
{
angle = 90;
position = "{338, 322}";
}
);
layerId = "ABD1C848-26EA-45E2-B5BA-BB387AD680CA";
name = bubble;
paths = (
{
closed = 1;
nodes = (
"676 0 LINE",
"514 687 LINE",
"164 687 LINE",
"0 0 LINE"
);
}
);
width = 676;
}
);
leftKerningGroup = A;
rightKerningGroup = A;
unicode = 0041;
},
{
color = 1;
glyphname = AE;
lastChange = "2019-04-08 11:28:15 +0000";
layers = (
{
layerId = "3B040282-CF47-4846-BCAF-7BFF90FB63BC";
paths = (
{
closed = 1;
nodes = (
"48 0 LINE",
"149 175 LINE",
"423 175 LINE",
"423 0 LINE",
"874 0 LINE",
"874 36 LINE",
"459 36 LINE",
"459 332 LINE",
"843 332 LINE",
"843 368 LINE",
"459 368 LINE",
"459 651 LINE",
"874 651 LINE",
"874 687 LINE",
"403 687 LINE",
"6 0 LINE"
);
},
{
closed = 1;
nodes = (
"423 651 LINE",
"423 211 LINE",
"170 211 LINE"
);
}
);
width = 929;
},
{
layerId = "35616FF6-3D9C-499B-B113-AC9E0DB5842A";
paths = (
{
closed = 1;
nodes = (
"111 0 LINE",
"201 156 LINE",
"465 156 LINE",
"465 0 LINE",
"958 0 LINE",
"958 74 LINE",
"544 74 LINE",
"544 313 LINE",
"917 313 LINE",
"917 387 LINE",
"544 387 LINE",
"544 613 LINE",
"958 613 LINE",
"958 687 LINE",
"417 687 LINE",
"21 0 LINE"
);
},
{
closed = 1;
nodes = (
"465 613 LINE",
"465 230 LINE",
"244 230 LINE"
);
}
);
width = 1014;
},
{
layerId = "A0D976AB-773B-4D3A-9F7E-7A0C42AF1E7B";
paths = (
{
closed = 1;
nodes = (
"249 0 LINE",
"302 92 LINE",
"546 92 LINE",
"546 0 LINE",
"1099 0 LINE",
"1099 173 LINE",
"740 173 LINE",
"740 264 LINE",
"1067 264 LINE",
"1067 437 LINE",
"740 437 LINE",
"740 514 LINE",
"1099 514 LINE",
"1099 687 LINE",
"422 687 LINE",
"25 0 LINE"
);
},
{
closed = 1;
nodes = (
"546 514 LINE",
"546 235 LINE",
"385 235 LINE"
);
}
);
width = 1155;
},
{
associatedMasterId = "A0D976AB-773B-4D3A-9F7E-7A0C42AF1E7B";
layerId = "C951F545-0A96-4FCD-9811-E7AB023A6B19";
name = bubble;
paths = (
{
closed = 1;
nodes = (
"1155 1 LINE",
"1155 687 LINE",
"390 687 LINE",
"0 0 LINE"
);
}
);
width = 1155;
},
{
associatedMasterId = "35616FF6-3D9C-499B-B113-AC9E0DB5842A";
layerId = "CE5008C3-16AD-4FFD-A6CD-CC7B7C0A356F";
name = bubble;
paths = (
{
closed = 1;
nodes = (
"1014 0 LINE",
"1014 687 LINE",
"385 687 LINE",
"0 0 LINE"
);
}
);
width = 1014;
},
{
associatedMasterId = "3B040282-CF47-4846-BCAF-7BFF90FB63BC";
layerId = "04E6EEAE-89C7-4848-A20C-3A7168E2661E";
name = bubble;
paths = (
{
closed = 1;
nodes = (
"929 0 LINE",
"929 687 LINE",
"392 687 LINE",
"0 0 LINE"
);
}
);
width = 929;
}
);
leftKerningGroup = A;
rightKerningGroup = E;
unicode = 00C6;
},
{
glyphname = B;
lastChange = "2019-03-31 08:36:57 +0000";
layers = (
{
layerId = "35616FF6-3D9C-499B-B113-AC9E0DB5842A";
paths = (
{
closed = 1;
nodes = (
"436 0 LINE SMOOTH",
"555 0 OFFCURVE",
"640 78 OFFCURVE",
"640 188 CURVE SMOOTH",
"640 263 OFFCURVE",
"594 325 OFFCURVE",
"515 365 CURVE",
"577 401 OFFCURVE",
"613 443 OFFCURVE",
"613 516 CURVE SMOOTH",
"613 616 OFFCURVE",
"535 687 OFFCURVE",
"424 687 CURVE SMOOTH",
"109 687 LINE",
"109 0 LINE"
);
},
{
closed = 1;
nodes = (
"187 325 LINE",
"416 325 LINE SMOOTH",
"501 325 OFFCURVE",
"561 272 OFFCURVE",
"561 198 CURVE SMOOTH",
"561 124 OFFCURVE",
"501 71 OFFCURVE",
"416 71 CURVE SMOOTH",
"187 71 LINE"
);
},
{
closed = 1;
nodes = (
"187 616 LINE",
"404 616 LINE SMOOTH",
"480 616 OFFCURVE",
"534 570 OFFCURVE",
"534 506 CURVE SMOOTH",
"534 442 OFFCURVE",
"480 396 OFFCURVE",
"404 396 CURVE SMOOTH",
"187 396 LINE"
);
}
);
width = 703;
},
{
layerId = "A0D976AB-773B-4D3A-9F7E-7A0C42AF1E7B";
paths = (
{
closed = 1;
nodes = (
"457 0 LINE SMOOTH",
"597 0 OFFCURVE",
"697 75 OFFCURVE",
"697 185 CURVE SMOOTH",
"697 261 OFFCURVE",
"650 326 OFFCURVE",
"570 360 CURVE",
"630 389 OFFCURVE",
"665 447 OFFCURVE",
"665 514 CURVE SMOOTH",
"665 614 OFFCURVE",
"574 687 OFFCURVE",
"443 687 CURVE SMOOTH",
"73 687 LINE",
"73 0 LINE"
);
},
{
closed = 1;
nodes = (
"266 273 LINE",
"425 273 LINE SMOOTH",
"467 273 OFFCURVE",
"497 250 OFFCURVE",
"497 218 CURVE SMOOTH",
"497 186 OFFCURVE",
"467 163 OFFCURVE",
"425 163 CURVE SMOOTH",
"266 163 LINE"
);
},
{
closed = 1;
nodes = (
"266 524 LINE",
"396 524 LINE SMOOTH",
"436 524 OFFCURVE",
"465 502 OFFCURVE",
"465 472 CURVE SMOOTH",
"465 442 OFFCURVE",
"436 420 OFFCURVE",
"396 420 CURVE SMOOTH",
"266 420 LINE"
);
}
);
width = 734;
},
{
layerId = "3B040282-CF47-4846-BCAF-7BFF90FB63BC";
paths = (
{
closed = 1;
nodes = (
"425 0 LINE SMOOTH",
"544 0 OFFCURVE",
"629 78 OFFCURVE",
"629 188 CURVE SMOOTH",
"629 264 OFFCURVE",
"578 335 OFFCURVE",
"506 358 CURVE",
"562 377 OFFCURVE",
"602 443 OFFCURVE",
"602 516 CURVE SMOOTH",
"602 616 OFFCURVE",
"524 687 OFFCURVE",
"413 687 CURVE SMOOTH",
"126 687 LINE",
"126 0 LINE"
);
},
{
closed = 1;
nodes = (
"162 340 LINE",
"425 340 LINE SMOOTH",
"523 340 OFFCURVE",
"593 277 OFFCURVE",
"593 188 CURVE SMOOTH",
"593 99 OFFCURVE",
"523 36 OFFCURVE",
"425 36 CURVE SMOOTH",
"162 36 LINE"
);
},
{
closed = 1;
nodes = (
"162 651 LINE",
"413 651 LINE SMOOTH",
"503 651 OFFCURVE",
"566 595 OFFCURVE",
"566 516 CURVE SMOOTH",
"566 434 OFFCURVE",
"508 376 OFFCURVE",
"425 376 CURVE SMOOTH",
"162 376 LINE"
);
}
);
width = 705;
},
{
associatedMasterId = "3B040282-CF47-4846-BCAF-7BFF90FB63BC";
layerId = "D6CEB947-B9F3-4D10-AFC5-2FCB2B017716";
name = bubble;
paths = (
{
closed = 1;
nodes = (
"419 -86 LINE SMOOTH",
"583 -86 OFFCURVE",
"705 31 OFFCURVE",
"705 188 CURVE SMOOTH",
"705 255 OFFCURVE",
"679 319 OFFCURVE",
"636 367 CURVE",
"663 409 OFFCURVE",
"678 462 OFFCURVE",
"678 516 CURVE SMOOTH",
"678 664 OFFCURVE",
"563 773 OFFCURVE",
"407 773 CURVE SMOOTH",
"0 773 LINE",
"0 -86 LINE"
);
}
);
width = 705;
},
{
associatedMasterId = "35616FF6-3D9C-499B-B113-AC9E0DB5842A";
layerId = "FEFD60F7-834C-4DD9-8DEC-D2B0A37BBEC9";
name = bubble;
paths = (
{
closed = 1;
nodes = (
"446 -47 LINE SMOOTH",
"594 -47 OFFCURVE",
"703 52 OFFCURVE",
"703 188 CURVE SMOOTH",
"703 258 OFFCURVE",
"670 320 OFFCURVE",
"611 367 CURVE",
"655 408 OFFCURVE",
"675 456 OFFCURVE",
"675 516 CURVE SMOOTH",
"675 643 OFFCURVE",
"573 734 OFFCURVE",
"433 734 CURVE SMOOTH",
"0 734 LINE",
"0 -47 LINE"
);
}
);
width = 703;
},
{
associatedMasterId = "A0D976AB-773B-4D3A-9F7E-7A0C42AF1E7B";
layerId = "892CBEDB-ACEF-4960-A5A6-43AF521DEB82";
name = bubble;
paths = (
{
closed = 1;
nodes = (
"460 -32 LINE SMOOTH",
"620 -32 OFFCURVE",
"734 58 OFFCURVE",
"734 185 CURVE SMOOTH",
"734 257 OFFCURVE",
"698 321 OFFCURVE",
"636 363 CURVE",
"677 400 OFFCURVE",
"702 454 OFFCURVE",
"702 514 CURVE SMOOTH",
"702 633 OFFCURVE",
"594 719 OFFCURVE",
"446 719 CURVE SMOOTH",
"0 719 LINE",
"0 -32 LINE"
);
}
);
width = 734;
}
);
leftKerningGroup = B;
rightKerningGroup = B;
unicode = 0042;
},
{
color = 1;
glyphname = C;
lastChange = "2019-04-06 02:24:17 +0000";
layers = (
{
anchors = (
{
name = bottom;
position = "{408, 0}";
},
{
name = top;
position = "{408, 687}";
}
);
layerId = "35616FF6-3D9C-499B-B113-AC9E0DB5842A";
paths = (
{
closed = 1;
nodes = (
"503 -12 OFFCURVE",
"591 29 OFFCURVE",
"655 93 CURVE",
"602 147 LINE",
"552 94 OFFCURVE",
"483 60 OFFCURVE",
"408 60 CURVE SMOOTH",
"260 60 OFFCURVE",
"135 190 OFFCURVE",
"135 344 CURVE SMOOTH",
"135 497 OFFCURVE",
"260 627 OFFCURVE",
"408 627 CURVE SMOOTH",
"483 627 OFFCURVE",
"552 593 OFFCURVE",
"602 540 CURVE",
"655 594 LINE",
"591 659 OFFCURVE",
"503 699 OFFCURVE",
"408 699 CURVE SMOOTH",
"218 699 OFFCURVE",
"56 537 OFFCURVE",
"56 344 CURVE SMOOTH",
"56 151 OFFCURVE",
"218 -12 OFFCURVE",
"408 -12 CURVE SMOOTH"
);
}
);
width = 692;
},
{
anchors = (
{
name = bottom;
position = "{414, 0}";
},
{
name = top;
position = "{414, 687}";
}
);
layerId = "A0D976AB-773B-4D3A-9F7E-7A0C42AF1E7B";
paths = (
{
closed = 1;
nodes = (
"524 -12 OFFCURVE",
"624 35 OFFCURVE",
"693 110 CURVE",
"551 234 LINE",
"518 192 OFFCURVE",
"469 164 OFFCURVE",
"414 164 CURVE SMOOTH",
"320 164 OFFCURVE",
"240 246 OFFCURVE",
"240 344 CURVE SMOOTH",
"240 441 OFFCURVE",
"320 523 OFFCURVE",
"414 523 CURVE SMOOTH",
"468 523 OFFCURVE",
"518 495 OFFCURVE",
"550 453 CURVE",
"693 578 LINE",
"624 652 OFFCURVE",
"524 699 OFFCURVE",
"414 699 CURVE SMOOTH",
"211 699 OFFCURVE",
"40 537 OFFCURVE",
"40 344 CURVE SMOOTH",
"40 151 OFFCURVE",
"211 -12 OFFCURVE",
"414 -12 CURVE SMOOTH"
);
}
);
width = 722;
},
{
anchors = (
{
name = bottom;
position = "{410, 0}";
},
{
name = top;
position = "{410, 687}";
}
);
layerId = "3B040282-CF47-4846-BCAF-7BFF90FB63BC";
paths = (
{
closed = 1;
nodes = (
"505 -12 OFFCURVE",
"593 29 OFFCURVE",
"657 93 CURVE",
"631 119 LINE",
"574 60 OFFCURVE",
"495 24 OFFCURVE",
"410 24 CURVE SMOOTH",
"238 24 OFFCURVE",
"94 170 OFFCURVE",
"94 344 CURVE SMOOTH",
"94 517 OFFCURVE",
"238 663 OFFCURVE",
"410 663 CURVE SMOOTH",
"495 663 OFFCURVE",
"574 627 OFFCURVE",
"631 569 CURVE",
"657 594 LINE",
"593 659 OFFCURVE",
"505 699 OFFCURVE",
"410 699 CURVE SMOOTH",
"219 699 OFFCURVE",
"58 537 OFFCURVE",
"58 344 CURVE SMOOTH",
"58 151 OFFCURVE",
"219 -12 OFFCURVE",
"410 -12 CURVE SMOOTH"
);
}
);
width = 693;
},
{
anchors = (
{
name = bottom;
position = "{414, 0}";
},
{
name = top;
position = "{414, 687}";
}
);
associatedMasterId = "A0D976AB-773B-4D3A-9F7E-7A0C42AF1E7B";
layerId = "BBDA4F57-7C77-4CB8-A379-A84AE529E0BF";
name = bubble;
paths = (
{
closed = 1;
nodes = (
"534.659 -52 OFFCURVE",
"645.453 0.227 OFFCURVE",
"722 82.175 CURVE",
"722 605.349 LINE",
"645.617 686.93 OFFCURVE",
"535.016 739 OFFCURVE",
"414 739 CURVE SMOOTH",
"189 739 OFFCURVE",
"0 559 OFFCURVE",
"0 344 CURVE SMOOTH",
"0 128 OFFCURVE",
"190 -52 OFFCURVE",
"414 -52 CURVE SMOOTH"
);
}
);
width = 722;
},
{
anchors = (
{
name = bottom;
position = "{408, 0}";
},
{
name = top;
position = "{408, 687}";
}
);
associatedMasterId = "35616FF6-3D9C-499B-B113-AC9E0DB5842A";
layerId = "9F9E590D-47DF-4B83-A970-578E154983E3";
name = bubble;
paths = (
{
closed = 1;
nodes = (
"517.389 -69 OFFCURVE",
"618.038 -23.354 OFFCURVE",
"692 49.872 CURVE",
"692 637.247 LINE",
"618.038 710.354 OFFCURVE",
"517.389 756 OFFCURVE",
"408 756 CURVE SMOOTH",
"186 756 OFFCURVE",
"0 568 OFFCURVE",
"0 344 CURVE SMOOTH",
"0 120 OFFCURVE",
"186 -69 OFFCURVE",
"408 -69 CURVE SMOOTH"
);
}
);
width = 692;
},
{
anchors = (
{
name = bottom;
position = "{410, 0}";
},
{
name = top;
position = "{410, 687}";
}
);
associatedMasterId = "3B040282-CF47-4846-BCAF-7BFF90FB63BC";
layerId = "D3D06B3B-0919-4A23-888A-4A65D89A002E";
name = bubble;
paths = (
{
closed = 1;
nodes = (
"518.961 -70 OFFCURVE",
"619.088 -24.878 OFFCURVE",
"693 47.519 CURVE",
"693 639.964 LINE",
"619.088 712.117 OFFCURVE",
"518.961 757 OFFCURVE",
"410 757 CURVE SMOOTH",
"187 757 OFFCURVE",
"0 569 OFFCURVE",
"0 344 CURVE SMOOTH",
"0 119 OFFCURVE",
"187 -70 OFFCURVE",
"410 -70 CURVE SMOOTH"
);
}
);
width = 693;
}
);
leftKerningGroup = C;
rightKerningGroup = C;
unicode = 0043;
},
{
color = 1;
glyphname = D;
lastChange = "2019-04-08 11:32:49 +0000";
layers = (
{
anchors = (
{
name = top;
position = "{341, 687}";
}
);
layerId = "35616FF6-3D9C-499B-B113-AC9E0DB5842A";
paths = (
{
closed = 1;
nodes = (
"341 0 LINE SMOOTH",
"559 0 OFFCURVE",
"713 143 OFFCURVE",
"713 344 CURVE SMOOTH",
"713 545 OFFCURVE",
"559 687 OFFCURVE",
"341 687 CURVE SMOOTH",
"109 687 LINE",
"109 0 LINE"
);
},
{
closed = 1;
nodes = (
"187 616 LINE",
"341 616 LINE SMOOTH",
"513 616 OFFCURVE",
"634 503 OFFCURVE",
"634 344 CURVE SMOOTH",
"634 184 OFFCURVE",
"513 71 OFFCURVE",
"341 71 CURVE SMOOTH",
"187 71 LINE"
);
}
);
width = 769;
},
{
anchors = (
{
name = top;
position = "{329, 687}";
}
);
layerId = "A0D976AB-773B-4D3A-9F7E-7A0C42AF1E7B";
paths = (
{
closed = 1;
nodes = (
"329 0 LINE SMOOTH",
"569 0 OFFCURVE",
"739 143 OFFCURVE",
"739 344 CURVE SMOOTH",
"739 545 OFFCURVE",
"569 687 OFFCURVE",
"329 687 CURVE SMOOTH",
"73 687 LINE",
"73 0 LINE"
);
},
{
closed = 1;
nodes = (
"267 511 LINE",
"361 511 LINE SMOOTH",
"465 511 OFFCURVE",
"539 442 OFFCURVE",
"539 344 CURVE SMOOTH",
"539 246 OFFCURVE",
"465 176 OFFCURVE",
"361 176 CURVE SMOOTH",
"267 176 LINE"
);
}
);
width = 778;
},
{
anchors = (
{
name = top;
position = "{361, 687}";
}
);
layerId = "3B040282-CF47-4846-BCAF-7BFF90FB63BC";
paths = (
{
closed = 1;
nodes = (
"361 0 LINE SMOOTH",
"567 0 OFFCURVE",
"713 143 OFFCURVE",
"713 344 CURVE SMOOTH",
"713 545 OFFCURVE",
"567 687 OFFCURVE",
"361 687 CURVE SMOOTH",
"126 687 LINE",
"126 0 LINE"
);
},
{
closed = 1;
nodes = (
"162 651 LINE",
"361 651 LINE SMOOTH",
"546 651 OFFCURVE",
"677 524 OFFCURVE",
"677 344 CURVE SMOOTH",
"677 164 OFFCURVE",
"546 36 OFFCURVE",
"361 36 CURVE SMOOTH",
"162 36 LINE"
);
}
);
width = 773;
},
{
anchors = (
{
name = top;
position = "{329, 687}";
}
);
associatedMasterId = "A0D976AB-773B-4D3A-9F7E-7A0C42AF1E7B";
layerId = "000548CB-0335-40FF-8014-383640F8DBB7";
name = bubble;
paths = (
{
closed = 1;
nodes = (
"329 -32 LINE SMOOTH",
"586 -32 OFFCURVE",
"778 125 OFFCURVE",
"778 344 CURVE SMOOTH",
"778 563 OFFCURVE",
"586 719 OFFCURVE",
"329 719 CURVE SMOOTH",
"0 719 LINE",
"0 -32 LINE"
);
}
);
width = 778;
},
{
anchors = (
{
name = top;
position = "{341, 687}";
}
);
associatedMasterId = "35616FF6-3D9C-499B-B113-AC9E0DB5842A";
layerId = "8F244D8F-FC99-4C0B-BF7A-F33BF424121A";
name = bubble;
paths = (
{
closed = 1;
nodes = (
"341 -47 LINE SMOOTH",
"584 -47 OFFCURVE",
"769 117 OFFCURVE",
"769 344 CURVE SMOOTH",
"769 571 OFFCURVE",
"585 734 OFFCURVE",
"341 734 CURVE SMOOTH",
"0 734 LINE",
"0 -47 LINE"
);
}
);
width = 769;
},
{
anchors = (
{
name = top;
position = "{361, 687}";
}
);
associatedMasterId = "3B040282-CF47-4846-BCAF-7BFF90FB63BC";
layerId = "39992BBF-3D37-46CA-8710-202615E22FA0";
name = bubble;
paths = (
{
closed = 1;
nodes = (
"361 -86 LINE SMOOTH",
"614 -86 OFFCURVE",
"773 95 OFFCURVE",
"773 344 CURVE SMOOTH",
"773 593 OFFCURVE",
"615 773 OFFCURVE",
"361 773 CURVE SMOOTH",
"0 773 LINE",
"0 -86 LINE"
);
}
);
width = 773;
}
);
leftKerningGroup = Eth;
rightKerningGroup = D;
unicode = 0044;
},
{
color = 1;
glyphname = Eth;
lastChange = "2019-04-06 02:25:15 +0000";
layers = (
{
components = (
{
name = D;
transform = "{1, 0, 0, 1, 23, 0}";
}
);
layerId = "3B040282-CF47-4846-BCAF-7BFF90FB63BC";
paths = (
{
closed = 1;
nodes = (
"381 332 LINE",
"382 368 LINE",
"33 368 LINE",
"33 332 LINE"
);
}
);
width = 796;
},
{
components = (
{
name = D;
transform = "{1, 0, 0, 1, 19, 0}";
}
);
layerId = "35616FF6-3D9C-499B-B113-AC9E0DB5842A";
paths = (
{
closed = 1;
nodes = (
"392 313 LINE",
"393 387 LINE",
"44 387 LINE",
"44 313 LINE"
);
}
);
width = 788;
},
{
components = (
{
name = D;
transform = "{1, 0, 0, 1, 56, 0}";
}
);
layerId = "A0D976AB-773B-4D3A-9F7E-7A0C42AF1E7B";
paths = (
{
closed = 1;
nodes = (
"436 258 LINE",
"437 431 LINE",
"38 431 LINE",
"38 258 LINE"
);
}
);
width = 834;
},
{
associatedMasterId = "A0D976AB-773B-4D3A-9F7E-7A0C42AF1E7B";
layerId = "3C9FA821-E7C3-492A-89CA-7806F97328AE";
name = bubble;
paths = (
{
closed = 1;
nodes = (
"481 203 LINE",
"482 486 LINE",
"0 486 LINE",
"0 203 LINE"
);
}
);
width = 805;
},
{
associatedMasterId = "35616FF6-3D9C-499B-B113-AC9E0DB5842A";
layerId = "03A7AC86-EC58-4E41-BF38-C81A31F97990";
name = bubble;
paths = (
{
closed = 1;
nodes = (
"477 243 LINE",
"480 457 LINE",
"0 457 LINE",
"0 243 LINE"
);
}
);
width = 810;
},
{
associatedMasterId = "3B040282-CF47-4846-BCAF-7BFF90FB63BC";
layerId = "CB097851-FDA8-45AC-B534-1E2975A814A7";
name = bubble;
paths = (
{
closed = 1;
nodes = (
"422 290 LINE",
"425 410 LINE",
"0 410 LINE",
"0 290 LINE"
);
}
);
width = 796;
}
);
leftKerningGroup = B;
rightKerningGroup = D;
unicode = 00D0;
},
{
glyphname = Dcroat;
lastChange = "2019-04-08 11:32:56 +0000";
layers = (
{
components = (
{
name = Eth;
}
);
layerId = "3B040282-CF47-4846-BCAF-7BFF90FB63BC";
width = 796;
},
{
components = (
{
name = Eth;
}
);
layerId = "35616FF6-3D9C-499B-B113-AC9E0DB5842A";
width = 788;
},
{
components = (
{
name = Eth;
}
);
layerId = "A0D976AB-773B-4D3A-9F7E-7A0C42AF1E7B";
width = 834;
},
{
associatedMasterId = "A0D976AB-773B-4D3A-9F7E-7A0C42AF1E7B";
layerId = "358ED8CC-3EAD-4C95-8174-6C6C01D510B4";
name = bubble;
paths = (
{
closed = 1;
nodes = (
"385 -39 LINE SMOOTH",
"646 -39 OFFCURVE",
"834 121 OFFCURVE",
"834 344 CURVE SMOOTH",
"834 567 OFFCURVE",
"646 726 OFFCURVE",
"385 726 CURVE SMOOTH",
"56 726 LINE",
"56 -39 LINE"
);
}
);
width = 805;
},
{
associatedMasterId = "35616FF6-3D9C-499B-B113-AC9E0DB5842A";
layerId = "FBAF09A3-9D61-414D-ADE6-5E27DD31BFAF";
name = bubble;
paths = (
{
closed = 1;
nodes = (
"360 -56 LINE SMOOTH",
"608 -56 OFFCURVE",
"788 111 OFFCURVE",
"788 344 CURVE SMOOTH",
"788 576 OFFCURVE",
"609 743 OFFCURVE",
"360 743 CURVE SMOOTH",
"19 743 LINE",
"19 -56 LINE"
);
}
);
width = 810;
},
{
associatedMasterId = "3B040282-CF47-4846-BCAF-7BFF90FB63BC";
layerId = "7AF0DADD-3F92-4302-ABF2-7BA432C972A3";
name = bubble;
paths = (
{
closed = 1;
nodes = (
"384 -60 LINE SMOOTH",
"623 -60 OFFCURVE",
"796 110 OFFCURVE",
"796 344 CURVE SMOOTH",
"796 578 OFFCURVE",
"623 747 OFFCURVE",
"384 747 CURVE SMOOTH",
"23 747 LINE",
"23 -60 LINE"
);
}
);
width = 796;
}
);
leftKerningGroup = Eth;
rightKerningGroup = D;
unicode = 0110;
},
{
color = 1;
glyphname = E;
lastChange = "2019-04-08 11:33:03 +0000";
layers = (
{
anchors = (
{
name = ae_upper;
position = "{109, 687}";
},
{
name = bottom;
position = "{602, 0}";
},
{
name = top;
position = "{356, 687}";
}
);
layerId = "35616FF6-3D9C-499B-B113-AC9E0DB5842A";
paths = (
{
closed = 1;
nodes = (
"602 0 LINE",
"602 74 LINE",
"168 74 LINE",
"188 54 LINE",
"188 333 LINE",
"168 313 LINE",
"561 313 LINE",
"561 387 LINE",
"168 387 LINE",
"188 367 LINE",
"188 633 LINE",
"168 613 LINE",
"602 613 LINE",
"602 687 LINE",
"109 687 LINE",
"109 0 LINE"
);
}
);
width = 658;
},
{
anchors = (
{
name = ae_upper;
position = "{73, 687}";
},
{
name = bottom;
position = "{626, 0}";
},
{
name = top;
position = "{350, 687}";
}
);
layerId = "A0D976AB-773B-4D3A-9F7E-7A0C42AF1E7B";
paths = (
{
closed = 1;
nodes = (
"626 0 LINE",
"626 173 LINE",
"172 173 LINE",
"267 54 LINE",
"267 333 LINE",
"172 264 LINE",
"594 264 LINE",
"594 437 LINE",
"172 437 LINE",
"267 367 LINE",
"267 633 LINE",
"172 514 LINE",
"626 514 LINE",
"626 687 LINE",
"73 687 LINE",
"73 0 LINE"
);
}
);
width = 682;
},
{
anchors = (
{
name = ae_upper;
position = "{126, 687}";
},
{
name = bottom;
position = "{577, 0}";
},
{
name = top;
position = "{352, 687}";
}
);
layerId = "3B040282-CF47-4846-BCAF-7BFF90FB63BC";
paths = (
{
closed = 1;
nodes = (
"577 0 LINE",
"577 36 LINE",
"153 36 LINE",
"162 26 LINE",
"162 342 LINE",
"153 332 LINE",
"546 332 LINE",
"546 368 LINE",
"153 368 LINE",
"162 358 LINE",
"162 661 LINE",
"153 651 LINE",
"577 651 LINE",
"577 687 LINE",
"126 687 LINE",
"126 0 LINE"
);
}
);
width = 632;
},
{
anchors = (
{
name = ae_upper;
position = "{73, 687}";
},
{
name = bottom;
position = "{626, 0}";
},
{
name = top;
position = "{350, 687}";
}
);
associatedMasterId = "A0D976AB-773B-4D3A-9F7E-7A0C42AF1E7B";
layerId = "82D5DC6B-EF69-4F8B-8543-41E9EEBBC7F6";
name = bubble;
paths = (
{
closed = 1;
nodes = (
"682 0 LINE",
"682 687 LINE",
"0 687 LINE",
"0 0 LINE"
);
}
);
width = 682;
},
{
anchors = (
{
name = ae_upper;
position = "{109, 687}";
},
{
name = bottom;
position = "{602, 0}";
},
{
name = top;
position = "{356, 687}";
}
);
associatedMasterId = "35616FF6-3D9C-499B-B113-AC9E0DB5842A";
layerId = "EEA04DD1-CD13-4FB0-A516-702284F27259";
name = bubble;
paths = (
{
closed = 1;
nodes = (
"658 0 LINE",
"658 687 LINE",
"0 687 LINE",
"0 0 LINE"
);
}
);
width = 658;
},
{
anchors = (
{
name = ae_upper;
position = "{126, 687}";
},
{
name = bottom;
position = "{577, 0}";
},
{
name = top;
position = "{362, 687}";
}
);
associatedMasterId = "3B040282-CF47-4846-BCAF-7BFF90FB63BC";
layerId = "5195C0AF-19F8-4787-B508-1D65C30E8183";
name = bubble;
paths = (
{
closed = 1;
nodes = (
"632 0 LINE",
"632 687 LINE",
"0 687 LINE",
"0 0 LINE"
);
}
);
width = 632;
}
);
leftKerningGroup = E;
rightKerningGroup = E;
unicode = 0045;
},
{
color = 1;
glyphname = F;
lastChange = "2019-04-08 11:33:05 +0000";
layers = (
{
layerId = "35616FF6-3D9C-499B-B113-AC9E0DB5842A";
paths = (
{
closed = 1;
nodes = (
"188 0 LINE",
"188 333 LINE",
"168 313 LINE",
"561 313 LINE",
"561 387 LINE",
"168 387 LINE",
"188 367 LINE",
"188 633 LINE",
"168 613 LINE",
"602 613 LINE",
"602 687 LINE",
"109 687 LINE",
"109 0 LINE"
);
}
);
width = 639;
},
{
layerId = "A0D976AB-773B-4D3A-9F7E-7A0C42AF1E7B";
paths = (
{
closed = 1;
nodes = (
"267 0 LINE",
"267 313 LINE",
"172 244 LINE",
"594 244 LINE",
"594 417 LINE",
"172 417 LINE",
"267 347 LINE",
"267 633 LINE",
"172 514 LINE",
"626 514 LINE",
"626 687 LINE",
"73 687 LINE",
"73 0 LINE"
);
}
);
width = 668;
},
{
layerId = "3B040282-CF47-4846-BCAF-7BFF90FB63BC";
paths = (
{
closed = 1;
nodes = (
"162 0 LINE",
"162 342 LINE",
"152 332 LINE",
"556 332 LINE",
"556 368 LINE",
"152 368 LINE",
"162 358 LINE",
"162 661 LINE",
"152 651 LINE",
"597 651 LINE",
"597 687 LINE",
"126 687 LINE",
"126 0 LINE"
);
}
);
width = 620;
},
{
associatedMasterId = "3B040282-CF47-4846-BCAF-7BFF90FB63BC";
layerId = "1BB74271-E82D-4EEE-BCDF-34EBC756E809";
name = bubble;
paths = (
{
closed = 1;
nodes = (
"248 0 LINE",
"248 246 LINE",
"620 246 LINE",
"620 687 LINE",
"0 687 LINE",
"0 0 LINE"
);
}
);
width = 620;
},
{
associatedMasterId = "35616FF6-3D9C-499B-B113-AC9E0DB5842A";
layerId = "680B06EE-B509-4790-BDCC-35A1F5E66C3B";
name = bubble;
paths = (
{
closed = 1;
nodes = (
"235 0 LINE",
"235 266 LINE",
"639 266 LINE",
"639 687 LINE",
"0 687 LINE",
"0 0 LINE"
);
}
);
width = 639;
},
{
associatedMasterId = "A0D976AB-773B-4D3A-9F7E-7A0C42AF1E7B";
layerId = "1FC340BD-C950-4E87-9488-00BD3F1C291B";
name = bubble;
paths = (
{
closed = 1;
nodes = (
"299 0 LINE",
"299 212 LINE",
"668 212 LINE",
"668 687 LINE",
"0 687 LINE",
"0 0 LINE"
);
}
);
width = 668;
}
);
leftKerningGroup = F;
rightKerningGroup = F;
unicode = 0046;
},
{
color = 1;
glyphname = G;
lastChange = "2019-04-08 11:33:10 +0000";
layers = (
{
anchors = (
{
name = bottom;
position = "{408, 0}";
},
{
name = top;
position = "{408, 687}";
}
);
layerId = "35616FF6-3D9C-499B-B113-AC9E0DB5842A";
paths = (
{
closed = 1;
nodes = (
"503 -12 OFFCURVE",
"611 29 OFFCURVE",
"675 93 CURVE",
"622 147 LINE",
"572 94 OFFCURVE",
"483 60 OFFCURVE",
"408 60 CURVE SMOOTH",
"260 60 OFFCURVE",
"135 190 OFFCURVE",
"135 344 CURVE SMOOTH",
"135 497 OFFCURVE",
"260 627 OFFCURVE",
"408 627 CURVE SMOOTH",
"483 627 OFFCURVE",
"572 593 OFFCURVE",
"622 540 CURVE",
"675 594 LINE",
"611 659 OFFCURVE",
"503 699 OFFCURVE",
"408 699 CURVE SMOOTH",
"218 699 OFFCURVE",
"56 537 OFFCURVE",
"56 344 CURVE SMOOTH",
"56 151 OFFCURVE",
"218 -12 OFFCURVE",
"408 -12 CURVE SMOOTH"
);
},
{
closed = 1;
nodes = (
"675 93 LINE",
"675 362 LINE",
"400 362 LINE",
"400 288 LINE",
"629 288 LINE",
"597 329 LINE",
"597 93 LINE"
);
}
);
width = 750;
},
{
anchors = (
{
name = bottom;
position = "{419, 0}";
},
{
name = top;
position = "{419, 687}";
}
);
layerId = "A0D976AB-773B-4D3A-9F7E-7A0C42AF1E7B";
paths = (
{
closed = 1;
nodes = (
"527 -12 OFFCURVE",
"632 33 OFFCURVE",
"703 110 CURVE",
"561 234 LINE",
"526 190 OFFCURVE",
"474 164 OFFCURVE",
"419 164 CURVE SMOOTH",
"322 164 OFFCURVE",
"240 246 OFFCURVE",
"240 344 CURVE SMOOTH",
"240 441 OFFCURVE",
"322 523 OFFCURVE",
"419 523 CURVE SMOOTH",
"474 523 OFFCURVE",
"526 497 OFFCURVE",
"560 453 CURVE",
"703 578 LINE",
"632 654 OFFCURVE",
"527 699 OFFCURVE",
"419 699 CURVE SMOOTH",
"213 699 OFFCURVE",
"40 537 OFFCURVE",
"40 344 CURVE SMOOTH",
"40 151 OFFCURVE",
"213 -12 OFFCURVE",
"419 -12 CURVE SMOOTH"
);
},
{
closed = 1;
nodes = (
"703 110 LINE",
"703 402 LINE",
"381 402 LINE",
"381 259 LINE",
"544 259 LINE",
"515 288 LINE",
"515 110 LINE"
);
}
);
width = 754;
},
{
anchors = (
{
name = bottom;
position = "{410, 0}";
},
{
name = top;
position = "{410, 687}";
}
);
layerId = "3B040282-CF47-4846-BCAF-7BFF90FB63BC";
paths = (
{
closed = 1;
nodes = (
"512 -12 OFFCURVE",
"606 28 OFFCURVE",
"675 91 CURVE",
"650 116 LINE",
"587 59 OFFCURVE",
"502 24 OFFCURVE",
"410 24 CURVE SMOOTH",
"238 24 OFFCURVE",
"94 170 OFFCURVE",
"94 344 CURVE SMOOTH",
"94 517 OFFCURVE",
"238 663 OFFCURVE",
"410 663 CURVE SMOOTH",
"502 663 OFFCURVE",
"587 628 OFFCURVE",
"649 571 CURVE",
"675 597 LINE",
"606 660 OFFCURVE",
"512 699 OFFCURVE",
"410 699 CURVE SMOOTH",
"219 699 OFFCURVE",
"58 537 OFFCURVE",
"58 344 CURVE SMOOTH",
"58 151 OFFCURVE",
"219 -12 OFFCURVE",
"410 -12 CURVE SMOOTH"
);
},
{
closed = 1;
nodes = (
"675 91 LINE",
"675 341 LINE",
"400 341 LINE",
"400 305 LINE",
"654 305 LINE",
"639 325 LINE",
"639 91 LINE"
);
}
);
width = 761;
},
{
anchors = (
{
name = bottom;
position = "{418, 0}";
},
{
name = top;
position = "{419, 687}";
}
);
associatedMasterId = "A0D976AB-773B-4D3A-9F7E-7A0C42AF1E7B";
layerId = "61A50DB1-56C3-45F8-AEF8-E1B1B3F6C5D3";
name = bubble;
paths = (
{
closed = 1;
nodes = (
"549 -52 OFFCURVE",
"677 8 OFFCURVE",
"754 108 CURVE",
"754 580 LINE",
"677 679 OFFCURVE",
"549 739 OFFCURVE",
"419 739 CURVE SMOOTH",
"191 739 OFFCURVE",
"0 559 OFFCURVE",
"0 344 CURVE SMOOTH",
"0 128 OFFCURVE",
"192 -52 OFFCURVE",
"419 -52 CURVE SMOOTH"
);
}
);
width = 754;
},
{
anchors = (
{
name = bottom;
position = "{405, 0}";
},
{
name = top;
position = "{408, 687}";
}
);
associatedMasterId = "35616FF6-3D9C-499B-B113-AC9E0DB5842A";
layerId = "AA9177B1-7184-478E-86C7-2DB454975AA9";
name = bubble;
paths = (
{
closed = 1;
nodes = (
"540 -68 OFFCURVE",
"688 0 OFFCURVE",
"750 97 CURVE",
"750 590 LINE",
"688 687 OFFCURVE",
"541 755 OFFCURVE",
"408 755 CURVE SMOOTH",
"186 755 OFFCURVE",
"0 567 OFFCURVE",
"0 344 CURVE SMOOTH",
"0 120 OFFCURVE",
"187 -68 OFFCURVE",
"408 -68 CURVE SMOOTH"
);
}
);
width = 750;
},
{
anchors = (
{
name = bottom;
position = "{408, 0}";
},
{
name = top;
position = "{410, 687}";
}
);
associatedMasterId = "3B040282-CF47-4846-BCAF-7BFF90FB63BC";
layerId = "3E06597C-1DEF-4816-85B9-83DE2BCD22C1";
name = bubble;
paths = (
{
closed = 1;
nodes = (
"546 -70 OFFCURVE",
"676 -9 OFFCURVE",
"761 97 CURVE",
"761 591 LINE",
"676 697 OFFCURVE",
"547 757 OFFCURVE",
"410 757 CURVE SMOOTH",
"187 757 OFFCURVE",
"0 569 OFFCURVE",
"0 344 CURVE SMOOTH",
"0 119 OFFCURVE",
"187 -70 OFFCURVE",
"410 -70 CURVE SMOOTH"
);
}
);
width = 761;
}
);
leftKerningGroup = G;
rightKerningGroup = G;
unicode = 0047;
},
{
glyphname = H;
lastChange = "2019-04-08 11:33:16 +0000";
layers = (
{
layerId = "35616FF6-3D9C-499B-B113-AC9E0DB5842A";
paths = (
{
closed = 1;
nodes = (
"187 0 LINE",
"187 335 LINE",
"165 313 LINE",
"613 313 LINE",
"592 335 LINE",
"592 0 LINE",
"670 0 LINE",
"670 687 LINE",
"592 687 LINE",
"592 365 LINE",
"614 387 LINE",
"165 387 LINE",
"187 365 LINE",
"187 687 LINE",
"109 687 LINE",
"109 0 LINE"
);
}
);
width = 779;
},
{
layerId = "A0D976AB-773B-4D3A-9F7E-7A0C42AF1E7B";
paths = (
{
closed = 1;
nodes = (
"267 0 LINE",
"267 315 LINE",
"220 264 LINE",
"564 264 LINE",
"518 315 LINE",
"518 0 LINE",
"712 0 LINE",
"712 687 LINE",
"518 687 LINE",
"518 385 LINE",
"566 437 LINE",
"220 437 LINE",
"267 385 LINE",
"267 687 LINE",
"73 687 LINE",
"73 0 LINE"
);
}
);
width = 785;
},
{
layerId = "3B040282-CF47-4846-BCAF-7BFF90FB63BC";
paths = (
{
closed = 1;
nodes = (
"162 0 LINE",
"162 343 LINE",
"161 332 LINE",
"609 332 LINE",
"609 343 LINE",
"609 0 LINE",
"645 0 LINE",
"645 687 LINE",
"609 687 LINE",
"609 357 LINE",
"610 368 LINE",
"161 368 LINE",
"162 357 LINE",
"162 687 LINE",
"126 687 LINE",
"126 0 LINE"
);
}
);
width = 771;
},
{
associatedMasterId = "3B040282-CF47-4846-BCAF-7BFF90FB63BC";
layerId = "AFBD34B7-D554-48B4-921E-BAD99F696C71";
name = bubble;
paths = (
{
closed = 1;
nodes = (
"771 0 LINE",
"771 687 LINE",
"0 687 LINE",
"0 0 LINE"
);
}
);
width = 771;
},
{
associatedMasterId = "35616FF6-3D9C-499B-B113-AC9E0DB5842A";
layerId = "FFC87506-59CB-46BE-882E-7B4647407C9D";
name = bubble;
paths = (
{
closed = 1;
nodes = (
"779 0 LINE",
"779 687 LINE",
"0 687 LINE",
"0 0 LINE"
);
}
);
width = 779;
},
{
associatedMasterId = "A0D976AB-773B-4D3A-9F7E-7A0C42AF1E7B";
layerId = "9097A176-F4FD-4E5A-9B19-CEFCE54C6CEA";
name = bubble;
paths = (
{
closed = 1;
nodes = (
"785 0 LINE",
"785 687 LINE",
"0 687 LINE",
"0 0 LINE"
);
}
);
width = 785;
}
);
leftKerningGroup = H;
rightKerningGroup = H;
unicode = 0048;
},
{
color = 1;
glyphname = I;
lastChange = "2019-04-08 11:33:23 +0000";
layers = (
{
anchors = (
{
name = bottom;
position = "{187, 0}";
},
{
name = top;
position = "{148, 687}";
}
);
layerId = "35616FF6-3D9C-499B-B113-AC9E0DB5842A";
paths = (
{
closed = 1;
nodes = (
"187 0 LINE",
"187 687 LINE",
"109 687 LINE",
"109 0 LINE"
);
}
);
width = 296;
},
{
anchors = (
{
name = bottom;
position = "{267, 0}";
},
{
name = top;
position = "{170, 687}";
}
);
layerId = "A0D976AB-773B-4D3A-9F7E-7A0C42AF1E7B";
paths = (
{
closed = 1;
nodes = (
"267 0 LINE",
"267 687 LINE",
"73 687 LINE",
"73 0 LINE"
);
}
);
width = 340;
},
{
anchors = (
{
name = bottom;
position = "{162, 0}";
},
{
name = top;
position = "{144, 687}";
}
);
layerId = "3B040282-CF47-4846-BCAF-7BFF90FB63BC";
paths = (
{
closed = 1;
nodes = (
"162 0 LINE",
"162 687 LINE",
"126 687 LINE",
"126 0 LINE"
);
}
);
width = 288;
},
{
anchors = (
{
name = bottom;
position = "{162, 0}";
},
{
name = top;
position = "{144, 687}";
}
);
associatedMasterId = "3B040282-CF47-4846-BCAF-7BFF90FB63BC";
layerId = "B7326C65-7CBB-432A-BA6B-9458252F70CF";
name = bubble;
paths = (
{
closed = 1;
nodes = (
"288 0 LINE",
"288 687 LINE",
"0 687 LINE",
"0 0 LINE"
);
}
);
width = 288;
},
{
anchors = (
{
name = bottom;
position = "{187, 0}";
},
{
name = top;
position = "{148, 687}";
}
);
associatedMasterId = "35616FF6-3D9C-499B-B113-AC9E0DB5842A";
layerId = "392A3B6A-9E6B-4A60-B1EB-C8F54515AE85";
name = bubble;
paths = (
{
closed = 1;
nodes = (
"296 0 LINE",
"296 687 LINE",
"0 687 LINE",
"0 0 LINE"
);
}
);
width = 296;
},
{
anchors = (
{
name = bottom;
position = "{267, 0}";
},
{
name = top;
position = "{170, 687}";
}
);
associatedMasterId = "A0D976AB-773B-4D3A-9F7E-7A0C42AF1E7B";
layerId = "A7191062-5BD9-448C-A4AC-002F28E27E05";
name = bubble;
paths = (
{
closed = 1;
nodes = (
"340 0 LINE",
"340 687 LINE",
"0 687 LINE",
"0 0 LINE"
);
}
);
width = 340;
}
);
leftKerningGroup = I;
rightKerningGroup = I;
unicode = 0049;
},
{
color = 1;
glyphname = J;
lastChange = "2019-03-31 02:21:44 +0000";
layers = (
{
layerId = "35616FF6-3D9C-499B-B113-AC9E0DB5842A";
paths = (
{
closed = 1;
nodes = (
"360 -12 OFFCURVE",
"450 86 OFFCURVE",
"450 224 CURVE SMOOTH",
"450 687 LINE",
"372 687 LINE",
"372 224 LINE SMOOTH",
"372 127 OFFCURVE",
"314 59 OFFCURVE",
"233 59 CURVE SMOOTH",
"170 59 OFFCURVE",
"106 100 OFFCURVE",
"79 158 CURVE",
"22 102 LINE",
"64 35 OFFCURVE",
"152 -12 OFFCURVE",
"233 -12 CURVE SMOOTH"
);
}
);
width = 547;
},
{
layerId = "A0D976AB-773B-4D3A-9F7E-7A0C42AF1E7B";
paths = (
{
closed = 1;
nodes = (
"415 -12 OFFCURVE",
"518 86 OFFCURVE",
"518 224 CURVE SMOOTH",
"518 687 LINE",
"324 687 LINE",
"324 244 LINE SMOOTH",
"324 197 OFFCURVE",
"290 164 OFFCURVE",
"243 164 CURVE SMOOTH",
"208 164 OFFCURVE",
"170 189 OFFCURVE",
"151 224 CURVE",
"26 102 LINE",
"75 35 OFFCURVE",
"176 -12 OFFCURVE",
"269 -12 CURVE SMOOTH"
);
}
);
width = 582;
},
{
layerId = "3B040282-CF47-4846-BCAF-7BFF90FB63BC";
paths = (
{
closed = 1;
nodes = (
"329 -12 OFFCURVE",
"414 82 OFFCURVE",
"414 214 CURVE SMOOTH",
"414 687 LINE",
"378 687 LINE",
"378 214 LINE SMOOTH",
"378 103 OFFCURVE",
"308 24 OFFCURVE",
"208 24 CURVE SMOOTH",
"136 24 OFFCURVE",
"68 68 OFFCURVE",
"29 130 CURVE",
"7 102 LINE",
"49 35 OFFCURVE",
"126 -12 OFFCURVE",
"208 -12 CURVE SMOOTH"
);
}
);
width = 526;
},
{
associatedMasterId = "A0D976AB-773B-4D3A-9F7E-7A0C42AF1E7B";
layerId = "9B72E8D5-0F8B-4678-AC3E-806D34B8FE62";
name = bubble;
paths = (
{
closed = 1;
nodes = (
"450 -76 OFFCURVE",
"582 50 OFFCURVE",
"582 224 CURVE SMOOTH",
"582 687 LINE",
"260 687 LINE",
"260 284 LINE SMOOTH",
"260 263 OFFCURVE",
"245 248 OFFCURVE",
"224 248 CURVE SMOOTH",
"207 248 OFFCURVE",
"192 253 OFFCURVE",
"187 260 CURVE",
"0 76.614 LINE",
"0 34.271 LINE",
"65.128 -32.176 OFFCURVE",
"169.905 -76 OFFCURVE",
"269 -76 CURVE SMOOTH"
);
}
);
width = 582;
},
{
associatedMasterId = "35616FF6-3D9C-499B-B113-AC9E0DB5842A";
layerId = "B6F5550B-FEFF-43E4-B22D-C0977E243611";
name = bubble;
paths = (
{
closed = 1;
nodes = (
"414 -109 OFFCURVE",
"547 33 OFFCURVE",
"547 224 CURVE SMOOTH",
"547 687 LINE",
"275 687 LINE",
"275 253 LINE SMOOTH",
"275 208 OFFCURVE",
"246 177 OFFCURVE",
"205 177 CURVE SMOOTH",
"174 177 OFFCURVE",
"146 192 OFFCURVE",
"136 214 CURVE",
"0 79.478 LINE",
"0 -19.955 LINE",
"63.406 -75.075 OFFCURVE",
"149.718 -109 OFFCURVE",
"233 -109 CURVE SMOOTH"
);
}
);
width = 547;
},
{
associatedMasterId = "3B040282-CF47-4846-BCAF-7BFF90FB63BC";
layerId = "0562158D-8BDC-4F76-AAC8-46D381992C3B";
name = bubble;
paths = (
{
closed = 1;
nodes = (
"391 -124 OFFCURVE",
"526 20 OFFCURVE",
"526 214 CURVE SMOOTH",
"526 687 LINE",
"266 687 LINE",
"266 240 LINE SMOOTH",
"266 190 OFFCURVE",
"230 155 OFFCURVE",
"178 155 CURVE SMOOTH",
"140 155 OFFCURVE",
"98 169 OFFCURVE",
"75 190 CURVE",
"0 93.289 LINE",
"0 -52.69 LINE",
"60.262 -97.913 OFFCURVE",
"133.62 -124 OFFCURVE",
"208 -124 CURVE SMOOTH"
);
}
);
width = 526;
}
);
leftKerningGroup = J;
rightKerningGroup = J;
unicode = 004A;
},
{
color = 1;
glyphname = K;
lastChange = "2019-04-08 11:33:29 +0000";
layers = (
{
anchors = (
{
name = bottom;
position = "{383, 0}";
}
);
layerId = "35616FF6-3D9C-499B-B113-AC9E0DB5842A";
paths = (
{
closed = 1;
nodes = (
"187 0 LINE",
"187 206 LINE",
"295 320 LINE",
"556 0 LINE",
"657 0 LINE",
"349 373 LINE",
"638 687 LINE",
"535 687 LINE",
"187 307 LINE",
"187 687 LINE",
"109 687 LINE",
"109 0 LINE"
);
}
);
width = 680;
},
{
anchors = (
{
name = bottom;
position = "{410, 0}";
}
);
layerId = "A0D976AB-773B-4D3A-9F7E-7A0C42AF1E7B";
paths = (
{
closed = 1;
nodes = (
"267 0 LINE",
"267 182 LINE",
"338 260 LINE",
"515 0 LINE",
"747 0 LINE",
"473 400 LINE",
"727 687 LINE",
"498 687 LINE",
"267 416 LINE",
"267 687 LINE",
"73 687 LINE",
"73 0 LINE"
);
}
);
width = 772;
},
{
anchors = (
{
name = bottom;
position = "{376, 0}";
}
);
layerId = "3B040282-CF47-4846-BCAF-7BFF90FB63BC";
paths = (
{
closed = 1;
nodes = (
"162 0 LINE",
"162 205 LINE",
"294 349 LINE",
"580 0 LINE",
"626 0 LINE",
"319 376 LINE",
"604 687 LINE",
"556 687 LINE",
"162 257 LINE",
"162 687 LINE",
"126 687 LINE",
"126 0 LINE"
);
}
);
width = 642;
},
{
anchors = (
{
name = bottom;
position = "{387, 0}";
}
);
associatedMasterId = "A0D976AB-773B-4D3A-9F7E-7A0C42AF1E7B";
layerId = "B68BAB8A-1534-4636-A274-7EB7901297F4";
name = bubble;
paths = (
{
closed = 1;
nodes = (
"772 0 LINE",
"616 397 LINE",
"772 687 LINE",
"0 687 LINE",
"0 0 LINE"
);
}
);
width = 772;
},
{
anchors = (
{
name = bottom;
position = "{358, 0}";
}
);
associatedMasterId = "35616FF6-3D9C-499B-B113-AC9E0DB5842A";
layerId = "8809ABA7-7940-4C97-B655-FC3B3F6CDA42";
name = bubble;
paths = (
{
closed = 1;
nodes = (
"680 0 LINE",
"491 372 LINE",
"680 687 LINE",
"0 687 LINE",
"0 0 LINE"
);
}
);
width = 680;
},
{
anchors = (
{
name = bottom;
position = "{355, 0}";
}
);
associatedMasterId = "3B040282-CF47-4846-BCAF-7BFF90FB63BC";
layerId = "5B90D25A-24E3-4C48-89C8-4E1CC6C3EED7";
name = bubble;
paths = (
{
closed = 1;
nodes = (
"642 0 LINE",
"456 375 LINE",
"642 687 LINE",
"0 687 LINE",
"0 0 LINE"
);
}
);
width = 642;
}
);
leftKerningGroup = K;
rightKerningGroup = K;
unicode = 004B;
},
{
color = 1;
glyphname = L;
lastChange = "2019-04-08 11:33:33 +0000";
layers = (
{
anchors = (
{
name = top;
position = "{151, 687}";
}
);
layerId = "35616FF6-3D9C-499B-B113-AC9E0DB5842A";
paths = (
{
closed = 1;
nodes = (
"562 0 LINE",
"562 74 LINE",
"164 74 LINE",
"187 50 LINE",
"187 687 LINE",
"109 687 LINE",
"109 0 LINE"
);
}
);
width = 587;
},
{
anchors = (
{
name = top;
position = "{169, 687}";
}
);
layerId = "A0D976AB-773B-4D3A-9F7E-7A0C42AF1E7B";
paths = (
{
closed = 1;
nodes = (
"587 0 LINE",
"587 173 LINE",
"210 173 LINE",
"267 117 LINE",
"267 687 LINE",
"73 687 LINE",
"73 0 LINE"
);
}
);
width = 623;
},
{
anchors = (
{
name = top;
position = "{144, 687}";
}
);
layerId = "3B040282-CF47-4846-BCAF-7BFF90FB63BC";
paths = (
{
closed = 1;
nodes = (
"558 0 LINE",
"558 36 LINE",
"151 36 LINE",
"162 24 LINE",
"162 687 LINE",
"126 687 LINE",
"126 0 LINE"
);
}
);
width = 560;
},
{
anchors = (
{
name = top;
position = "{144, 687}";
}
);
associatedMasterId = "3B040282-CF47-4846-BCAF-7BFF90FB63BC";
layerId = "11A28F15-B00F-450B-8E22-AA45BB199A15";
name = bubble;
paths = (
{
closed = 1;
nodes = (
"560 0 LINE",
"560 122 LINE",
"248 122 LINE",
"248 687 LINE",
"0 687 LINE",
"0 0 LINE"
);
}
);
width = 560;
},
{
anchors = (
{
name = top;
position = "{151, 687}";
}
);
associatedMasterId = "35616FF6-3D9C-499B-B113-AC9E0DB5842A";
layerId = "55C28D61-0C70-4425-8EAB-313B90B7FCCD";
name = bubble;
paths = (
{
closed = 1;
nodes = (
"587 0 LINE",
"587 121 LINE",
"234 121 LINE",
"234 687 LINE",
"0 687 LINE",
"0 0 LINE"
);
}
);
width = 587;
},
{
anchors = (
{
name = top;
position = "{169, 687}";
}
);
associatedMasterId = "A0D976AB-773B-4D3A-9F7E-7A0C42AF1E7B";
layerId = "20F1C40E-5192-4A45-BF6C-D19D10E80E2B";
name = bubble;
paths = (
{
closed = 1;
nodes = (
"623 0 LINE",
"623 205 LINE",
"91 205 LINE",
"299 41 LINE",
"299 687 LINE",
"0 687 LINE",
"0 0 LINE"
);
}
);
width = 623;
}
);
leftKerningGroup = L;
rightKerningGroup = L;
unicode = 004C;
},
{
glyphname = Lslash;
lastChange = "2019-04-08 11:33:41 +0000";
layers = (
{
components = (
{
name = L;
transform = "{1, 0, 0, 1, 30, 0}";
}
);
layerId = "3B040282-CF47-4846-BCAF-7BFF90FB63BC";
paths = (
{
closed = 1;
nodes = (
"323 406 LINE",
"323 447 LINE",
"24 293 LINE",
"24 252 LINE"
);
}
);
width = 590;
},
{
components = (
{
name = L;
transform = "{1, 0, 0, 1, 32, 0}";
}
);
layerId = "35616FF6-3D9C-499B-B113-AC9E0DB5842A";
paths = (
{
closed = 1;
nodes = (
"331 388 LINE",
"331 463 LINE",
"32 309 LINE",
"32 234 LINE"
);
}
);
width = 619;
},
{
components = (
{
name = L;
transform = "{1, 0, 0, 1, 53, 0}";
}
);
layerId = "A0D976AB-773B-4D3A-9F7E-7A0C42AF1E7B";
paths = (
{
closed = 1;
nodes = (
"404 358 LINE",
"404 525 LINE",
"38 345 LINE",
"38 178 LINE"
);
}
);
width = 676;
},
{
associatedMasterId = "A0D976AB-773B-4D3A-9F7E-7A0C42AF1E7B";
layerId = "CC62AC2F-B5F4-4707-B43A-04EF20865C80";
name = bubble;
paths = (
{
closed = 1;
nodes = (
"460 323 LINE",
"460 615 LINE",
"0 388.849 LINE",
"0 96.849 LINE"
);
}
);
width = 676;
},
{
associatedMasterId = "35616FF6-3D9C-499B-B113-AC9E0DB5842A";
layerId = "76D44DAC-0161-4949-9DF3-DFE3E350F492";
name = bubble;
paths = (
{
closed = 1;
nodes = (
"387 354 LINE",
"387 555 LINE",
"2 356.411 LINE",
"2 155.411 LINE"
);
}
);
width = 619;
},
{
associatedMasterId = "3B040282-CF47-4846-BCAF-7BFF90FB63BC";
layerId = "81ED5289-6092-4AB0-837F-7D5807B575DF";
name = bubble;
paths = (
{
closed = 1;
nodes = (
"378 372 LINE",
"378 537 LINE",
"1 343.43 LINE",
"1 178.43 LINE"
);
}
);
width = 590;
}
);
leftKerningGroup = Lslash;
rightKerningGroup = L;
unicode = 0141;
},
{
color = 1;
glyphname = M;
lastChange = "2019-04-08 11:33:47 +0000";
layers = (
{
layerId = "35616FF6-3D9C-499B-B113-AC9E0DB5842A";
paths = (
{
closed = 1;
nodes = (
"187 0 LINE",
"187 519 LINE",
"442 40 LINE",
"697 519 LINE",
"697 0 LINE",
"775 0 LINE",
"775 687 LINE",
"697 687 LINE",
"442 208 LINE",
"187 687 LINE",
"109 687 LINE",
"109 0 LINE"
);
}
);
width = 884;
},
{
layerId = "A0D976AB-773B-4D3A-9F7E-7A0C42AF1E7B";
paths = (
{
closed = 1;
nodes = (
"267 0 LINE",
"267 368 LINE",
"451 40 LINE",
"635 368 LINE",
"635 0 LINE",
"829 0 LINE",
"829 687 LINE",
"635 687 LINE",
"451 359 LINE",
"267 687 LINE",
"73 687 LINE",
"73 0 LINE"
);
}
);
width = 902;
},
{
layerId = "3B040282-CF47-4846-BCAF-7BFF90FB63BC";
paths = (
{
closed = 1;
nodes = (
"162 0 LINE",
"162 615 LINE",
"438 96 LINE",
"714 615 LINE",
"714 0 LINE",
"750 0 LINE",
"750 687 LINE",
"714 687 LINE",
"438 168 LINE",
"162 687 LINE",
"126 687 LINE",
"126 0 LINE"
);
}
);
width = 876;
},
{
associatedMasterId = "A0D976AB-773B-4D3A-9F7E-7A0C42AF1E7B";
layerId = "2BC201D1-9EAB-40E7-A567-D170E95E7CEC";
name = bubble;
paths = (
{
closed = 1;
nodes = (
"902 0 LINE",
"902 687 LINE",
"0 687 LINE",
"0 0 LINE"
);
}
);
width = 902;
},
{
associatedMasterId = "35616FF6-3D9C-499B-B113-AC9E0DB5842A";
layerId = "D2EFBC30-B0EC-4D84-9B66-BB994EB67D45";
name = bubble;
paths = (
{
closed = 1;
nodes = (
"884 0 LINE",
"884 687 LINE",
"0 687 LINE",
"0 0 LINE"
);
}
);
width = 884;
},
{
associatedMasterId = "3B040282-CF47-4846-BCAF-7BFF90FB63BC";
layerId = "F727B878-59DC-44CD-81D4-553A9E53C27A";
name = bubble;
paths = (
{
closed = 1;
nodes = (
"876 0 LINE",
"876 687 LINE",
"0 687 LINE",
"0 0 LINE"
);
}
);
width = 876;
}
);
leftKerningGroup = M;
rightKerningGroup = M;
unicode = 004D;
},
{
glyphname = N;
lastChange = "2019-04-08 11:33:52 +0000";
layers = (
{
anchors = (
{
name = bottom;
position = "{400, 0}";
},
{
name = top;
position = "{400, 687}";
}
);
layerId = "35616FF6-3D9C-499B-B113-AC9E0DB5842A";
paths = (
{
closed = 1;
nodes = (
"187 0 LINE",
"187 559 LINE",
"613 0 LINE",
"691 0 LINE",
"691 687 LINE",
"613 687 LINE",
"613 128 LINE",
"187 687 LINE",
"109 687 LINE",
"109 0 LINE"
);
}
);
width = 800;
},
{
anchors = (
{
name = bottom;
position = "{401, 0}";
},
{
name = top;
position = "{401, 687}";
}
);
layerId = "A0D976AB-773B-4D3A-9F7E-7A0C42AF1E7B";
paths = (
{
closed = 1;
nodes = (
"267 0 LINE",
"267 368 LINE",
"535 0 LINE",
"729 0 LINE",
"729 687 LINE",
"535 687 LINE",
"535 319 LINE",
"267 687 LINE",
"73 687 LINE",
"73 0 LINE"
);
}
);
width = 802;
},
{
anchors = (
{
name = bottom;
position = "{396, 0}";
},
{
name = top;
position = "{396, 687}";
}
);
layerId = "3B040282-CF47-4846-BCAF-7BFF90FB63BC";
paths = (
{
closed = 1;
nodes = (
"162 0 LINE",
"162 631 LINE",
"630 0 LINE",
"666 0 LINE",
"666 687 LINE",
"630 687 LINE",
"630 56 LINE",
"162 687 LINE",
"126 687 LINE",
"126 0 LINE"
);
}
);
width = 792;
},
{
anchors = (
{
name = bottom;
position = "{401, 0}";
},
{
name = top;
position = "{401, 687}";
}
);
associatedMasterId = "A0D976AB-773B-4D3A-9F7E-7A0C42AF1E7B";
layerId = "4DF186BD-26EC-4724-83AE-E175B68E3FEF";
name = bubble;
paths = (
{
closed = 1;
nodes = (
"802 0 LINE",
"802 687 LINE",
"0 687 LINE",
"0 0 LINE"
);
}
);
width = 802;
},
{
anchors = (
{
name = bottom;
position = "{396, 0}";
},
{
name = top;
position = "{396, 687}";
}
);
associatedMasterId = "3B040282-CF47-4846-BCAF-7BFF90FB63BC";
layerId = "FFA8FBBD-E6C4-4689-80F3-C2B51A5E21C4";
name = bubble;
paths = (
{
closed = 1;
nodes = (
"792 0 LINE",
"792 687 LINE",
"0 687 LINE",
"0 0 LINE"
);
}
);
width = 792;
},
{
anchors = (
{
name = bottom;
position = "{400, 0}";
},
{
name = top;
position = "{400, 687}";
}
);
associatedMasterId = "35616FF6-3D9C-499B-B113-AC9E0DB5842A";
layerId = "8DBFF243-C393-4875-BD53-F2DA48646533";
name = bubble;
paths = (
{
closed = 1;
nodes = (
"800 0 LINE",
"800 687 LINE",
"0 687 LINE",
"0 0 LINE"
);
}
);
width = 800;
}
);
leftKerningGroup = N;
rightKerningGroup = N;
unicode = 004E;
},
{
color = 1;
glyphname = O;
lastChange = "2019-04-08 11:34:01 +0000";
layers = (
{
anchors = (
{
name = top;
position = "{408, 687}";
}
);
layerId = "35616FF6-3D9C-499B-B113-AC9E0DB5842A";
paths = (
{
closed = 1;
nodes = (
"599 -12 OFFCURVE",
"759 151 OFFCURVE",
"759 344 CURVE SMOOTH",
"759 537 OFFCURVE",
"599 699 OFFCURVE",
"408 699 CURVE SMOOTH",
"218 699 OFFCURVE",
"56 537 OFFCURVE",
"56 344 CURVE SMOOTH",
"56 151 OFFCURVE",
"218 -12 OFFCURVE",
"408 -12 CURVE SMOOTH"
);
},
{
closed = 1;
nodes = (
"260 60 OFFCURVE",
"135 190 OFFCURVE",
"135 344 CURVE SMOOTH",
"135 497 OFFCURVE",
"260 627 OFFCURVE",
"408 627 CURVE SMOOTH",
"556 627 OFFCURVE",
"680 497 OFFCURVE",
"680 344 CURVE SMOOTH",
"680 190 OFFCURVE",
"556 60 OFFCURVE",
"408 60 CURVE SMOOTH"
);
}
);
width = 816;
},
{
anchors = (
{
name = top;
position = "{414, 687}";
}
);
layerId = "A0D976AB-773B-4D3A-9F7E-7A0C42AF1E7B";
paths = (
{
closed = 1;
nodes = (
"617 -12 OFFCURVE",
"788 151 OFFCURVE",
"788 344 CURVE SMOOTH",
"788 537 OFFCURVE",
"617 699 OFFCURVE",
"414 699 CURVE SMOOTH",
"211 699 OFFCURVE",
"40 537 OFFCURVE",
"40 344 CURVE SMOOTH",
"40 151 OFFCURVE",
"211 -12 OFFCURVE",
"414 -12 CURVE SMOOTH"
);
},
{
closed = 1;
nodes = (
"320 164 OFFCURVE",
"240 246 OFFCURVE",
"240 344 CURVE SMOOTH",
"240 441 OFFCURVE",
"320 523 OFFCURVE",
"414 523 CURVE SMOOTH",
"508 523 OFFCURVE",
"588 441 OFFCURVE",
"588 344 CURVE SMOOTH",
"588 246 OFFCURVE",
"508 164 OFFCURVE",
"414 164 CURVE SMOOTH"
);
}
);
width = 828;
},
{
anchors = (
{
name = top;
position = "{410, 687}";
}
);
layerId = "3B040282-CF47-4846-BCAF-7BFF90FB63BC";
paths = (
{
closed = 1;
nodes = (
"601 -12 OFFCURVE",
"761 151 OFFCURVE",
"761 344 CURVE SMOOTH",
"761 537 OFFCURVE",
"601 699 OFFCURVE",
"410 699 CURVE SMOOTH",
"219 699 OFFCURVE",
"58 537 OFFCURVE",
"58 344 CURVE SMOOTH",
"58 151 OFFCURVE",
"219 -12 OFFCURVE",
"410 -12 CURVE SMOOTH"
);
},
{
closed = 1;
nodes = (
"238 24 OFFCURVE",
"94 170 OFFCURVE",
"94 344 CURVE SMOOTH",
"94 517 OFFCURVE",
"238 663 OFFCURVE",
"410 663 CURVE SMOOTH",
"581 663 OFFCURVE",
"725 517 OFFCURVE",
"725 344 CURVE SMOOTH",
"725 170 OFFCURVE",
"581 24 OFFCURVE",
"410 24 CURVE SMOOTH"
);
}
);
width = 819;
},
{
anchors = (
{
name = top;
position = "{414, 687}";
}
);
associatedMasterId = "A0D976AB-773B-4D3A-9F7E-7A0C42AF1E7B";
layerId = "525B1BDF-5472-47EA-B487-EC55B86F8422";
name = bubble;
paths = (
{
closed = 1;
nodes = (
"638 -52 OFFCURVE",
"828 128 OFFCURVE",
"828 344 CURVE SMOOTH",
"828 559 OFFCURVE",
"639 739 OFFCURVE",
"414 739 CURVE SMOOTH",
"189 739 OFFCURVE",
"0 559 OFFCURVE",
"0 344 CURVE SMOOTH",
"0 128 OFFCURVE",
"190 -52 OFFCURVE",
"414 -52 CURVE SMOOTH"
);
}
);
width = 828;
},
{
anchors = (
{
name = top;
position = "{408, 687}";
}
);
associatedMasterId = "35616FF6-3D9C-499B-B113-AC9E0DB5842A";
layerId = "5CF8AD8B-BC20-44D3-8D83-0029B584717D";
name = bubble;
paths = (
{
closed = 1;
nodes = (
"630 -69 OFFCURVE",
"816 119 OFFCURVE",
"816 344 CURVE SMOOTH",
"816 568 OFFCURVE",
"630 756 OFFCURVE",
"408 756 CURVE SMOOTH",
"186 756 OFFCURVE",
"0 568 OFFCURVE",
"0 344 CURVE SMOOTH",
"0 120 OFFCURVE",
"186 -69 OFFCURVE",
"408 -69 CURVE SMOOTH"
);
}
);
width = 816;
},
{
associatedMasterId = "3B040282-CF47-4846-BCAF-7BFF90FB63BC";
layerId = "04D61D97-2ADB-4A86-A630-73B9E3C3704B";
name = bubble;
paths = (
{
closed = 1;
nodes = (
"633 -70 OFFCURVE",
"819 119 OFFCURVE",
"819 344 CURVE SMOOTH",
"819 569 OFFCURVE",
"633 757 OFFCURVE",
"410 757 CURVE SMOOTH",
"187 757 OFFCURVE",
"0 569 OFFCURVE",
"0 344 CURVE SMOOTH",
"0 119 OFFCURVE",
"187 -70 OFFCURVE",
"410 -70 CURVE SMOOTH"
);
}
);
width = 819;
}
);
leftKerningGroup = O;
rightKerningGroup = O;
unicode = 004F;
},
{
color = 1;
glyphname = Oslash;
lastChange = "2019-04-08 11:34:11 +0000";
layers = (
{
anchors = (
{
name = top;
position = "{417, 687}";
}
);
layerId = "35616FF6-3D9C-499B-B113-AC9E0DB5842A";
paths = (
{
closed = 1;
nodes = (
"608 -12 OFFCURVE",
"768 151 OFFCURVE",
"768 344 CURVE SMOOTH",
"768 537 OFFCURVE",
"608 699 OFFCURVE",
"417 699 CURVE SMOOTH",
"227 699 OFFCURVE",
"65 537 OFFCURVE",
"65 344 CURVE SMOOTH",
"65 151 OFFCURVE",
"227 -12 OFFCURVE",
"417 -12 CURVE SMOOTH"
);
},
{
closed = 1;
nodes = (
"269 60 OFFCURVE",
"144 190 OFFCURVE",
"144 344 CURVE SMOOTH",
"144 497 OFFCURVE",
"269 627 OFFCURVE",
"417 627 CURVE SMOOTH",
"565 627 OFFCURVE",
"689 497 OFFCURVE",
"689 344 CURVE SMOOTH",
"689 190 OFFCURVE",
"565 60 OFFCURVE",
"417 60 CURVE SMOOTH"
);
},
{
closed = 1;
nodes = (
"155 0 LINE",
"756 687 LINE",
"671 687 LINE",
"70 0 LINE"
);
}
);
width = 832;
},
{
anchors = (
{
name = top;
position = "{416, 687}";
}
);
layerId = "A0D976AB-773B-4D3A-9F7E-7A0C42AF1E7B";
paths = (
{
closed = 1;
nodes = (
"619 -12 OFFCURVE",
"790 151 OFFCURVE",
"790 344 CURVE SMOOTH",
"790 537 OFFCURVE",
"619 699 OFFCURVE",
"416 699 CURVE SMOOTH",
"213 699 OFFCURVE",
"42 537 OFFCURVE",
"42 344 CURVE SMOOTH",
"42 151 OFFCURVE",
"213 -12 OFFCURVE",
"416 -12 CURVE SMOOTH"
);
},
{
closed = 1;
nodes = (
"322 164 OFFCURVE",
"242 246 OFFCURVE",
"242 344 CURVE SMOOTH",
"242 441 OFFCURVE",
"322 523 OFFCURVE",
"416 523 CURVE SMOOTH",
"510 523 OFFCURVE",
"590 441 OFFCURVE",
"590 344 CURVE SMOOTH",
"590 246 OFFCURVE",
"510 164 OFFCURVE",
"416 164 CURVE SMOOTH"
);
},
{
closed = 1;
nodes = (
"205 0 LINE",
"775 687 LINE",
"615 687 LINE",
"45 0 LINE"
);
}
);
width = 831;
},
{
anchors = (
{
name = top;
position = "{424, 687}";
}
);
layerId = "3B040282-CF47-4846-BCAF-7BFF90FB63BC";
paths = (
{
closed = 1;
nodes = (
"615 -12 OFFCURVE",
"775 151 OFFCURVE",
"775 344 CURVE SMOOTH",
"775 537 OFFCURVE",
"615 699 OFFCURVE",
"424 699 CURVE SMOOTH",
"233 699 OFFCURVE",
"72 537 OFFCURVE",
"72 344 CURVE SMOOTH",
"72 151 OFFCURVE",
"233 -12 OFFCURVE",
"424 -12 CURVE SMOOTH"
);
},
{
closed = 1;
nodes = (
"252 24 OFFCURVE",
"108 170 OFFCURVE",
"108 344 CURVE SMOOTH",
"108 517 OFFCURVE",
"252 663 OFFCURVE",
"424 663 CURVE SMOOTH",
"595 663 OFFCURVE",
"739 517 OFFCURVE",
"739 344 CURVE SMOOTH",
"739 170 OFFCURVE",
"595 24 OFFCURVE",
"424 24 CURVE SMOOTH"
);
},
{
closed = 1;
nodes = (
"142 0 LINE",
"743 687 LINE",
"695 687 LINE",
"94 0 LINE"
);
}
);
width = 846;
},
{
anchors = (
{
name = top;
position = "{416, 687}";
}
);
associatedMasterId = "A0D976AB-773B-4D3A-9F7E-7A0C42AF1E7B";
layerId = "E6A336E1-1711-45AD-A5D9-185BFAD79200";
name = bubble;
paths = (
{
closed = 1;
nodes = (
"210 0 LINE",
"268 -32 OFFCURVE",
"353 -54 OFFCURVE",
"416 -54 CURVE SMOOTH",
"642 -54 OFFCURVE",
"831 128 OFFCURVE",
"831 344 CURVE SMOOTH",
"831 434 OFFCURVE",
"799 518 OFFCURVE",
"744 585 CURVE",
"829 687 LINE",
"623 687 LINE",
"564 719 OFFCURVE",
"479 741 OFFCURVE",
"416 741 CURVE SMOOTH",
"190 741 OFFCURVE",
"0 560 OFFCURVE",
"0 344 CURVE SMOOTH",
"0 257 OFFCURVE",
"31 176 OFFCURVE",
"82 110 CURVE",
"0 0 LINE"
);
}
);
width = 831;
},
{
anchors = (
{
name = top;
position = "{417, 687}";
}
);
associatedMasterId = "35616FF6-3D9C-499B-B113-AC9E0DB5842A";
layerId = "9FDE1AEB-7628-4614-BB45-FDE1ACC69DB3";
name = bubble;
paths = (
{
closed = 1;
nodes = (
"644 -77 OFFCURVE",
"832 115 OFFCURVE",
"832 344 CURVE SMOOTH",
"832 434 OFFCURVE",
"804 518 OFFCURVE",
"754 587 CURVE",
"832 687 LINE",
"654 687 LINE",
"583 737 OFFCURVE",
"499 764 OFFCURVE",
"417 764 CURVE SMOOTH",
"191 764 OFFCURVE",
"0 572 OFFCURVE",
"0 344 CURVE SMOOTH",
"0 256 OFFCURVE",
"28 173 OFFCURVE",
"76 105 CURVE",
"0 0 LINE",
"180 0 LINE",
"243 -47 OFFCURVE",
"338 -77 OFFCURVE",
"417 -77 CURVE SMOOTH"
);
}
);
width = 832;
},
{
anchors = (
{
name = top;
position = "{424, 687}";
}
);
associatedMasterId = "3B040282-CF47-4846-BCAF-7BFF90FB63BC";
layerId = "9CD014AD-0584-497D-B986-C9C431C86528";
name = bubble;
paths = (
{
closed = 1;
nodes = (
"176 0 LINE",
"245 -52 OFFCURVE",
"338 -83 OFFCURVE",
"424 -83 CURVE SMOOTH",
"654 -83 OFFCURVE",
"846 111 OFFCURVE",
"846 344 CURVE SMOOTH",
"846 439 OFFCURVE",
"814 527 OFFCURVE",
"760 599 CURVE",
"837 687 LINE",
"672 687 LINE",
"600 740 OFFCURVE",
"512 770 OFFCURVE",
"424 770 CURVE SMOOTH",
"194 770 OFFCURVE",
"1 576 OFFCURVE",
"1 344 CURVE SMOOTH",
"1 252 OFFCURVE",
"31 166 OFFCURVE",
"83 95 CURVE",
"0 0 LINE"
);
}
);
width = 846;
}
);
leftKerningGroup = Oslash;
rightKerningGroup = Oslash;
unicode = 00D8;
},
{
color = 1;
glyphname = OE;
lastChange = "2019-04-08 11:34:03 +0000";
layers = (
{
layerId = "3B040282-CF47-4846-BCAF-7BFF90FB63BC";
paths = (
{
closed = 1;
nodes = (
"56 151 OFFCURVE",
"217 0 OFFCURVE",
"408 0 CURVE SMOOTH",
"939 0 LINE",
"939 36 LINE",
"524 36 LINE",
"524 332 LINE",
"908 332 LINE",
"908 368 LINE",
"524 368 LINE",
"524 651 LINE",
"939 651 LINE",
"939 687 LINE",
"408 687 LINE SMOOTH",
"217 687 OFFCURVE",
"56 537 OFFCURVE",
"56 344 CURVE SMOOTH"
);
},
{
closed = 1;
nodes = (
"92 517 OFFCURVE",
"236 651 OFFCURVE",
"408 651 CURVE SMOOTH",
"488 651 LINE",
"488 36 LINE",
"408 36 LINE SMOOTH",
"236 36 OFFCURVE",
"92 170 OFFCURVE",
"92 344 CURVE SMOOTH"
);
}
);
width = 994;
},
{
layerId = "35616FF6-3D9C-499B-B113-AC9E0DB5842A";
paths = (
{
closed = 1;
nodes = (
"55 141 OFFCURVE",
"217 0 OFFCURVE",
"407 0 CURVE SMOOTH",
"980 0 LINE",
"980 74 LINE",
"566 74 LINE",
"566 313 LINE",
"939 313 LINE",
"939 387 LINE",
"566 387 LINE",
"566 613 LINE",
"980 613 LINE",
"980 687 LINE",
"407 687 LINE SMOOTH",
"217 687 OFFCURVE",
"55 527 OFFCURVE",
"55 334 CURVE SMOOTH"
);
},
{
closed = 1;
nodes = (
"134 487 OFFCURVE",
"259 615 OFFCURVE",
"407 615 CURVE SMOOTH",
"487 615 LINE",
"487 72 LINE",
"407 72 LINE SMOOTH",
"259 72 OFFCURVE",
"134 180 OFFCURVE",
"134 334 CURVE SMOOTH"
);
}
);
width = 1036;
},
{
layerId = "A0D976AB-773B-4D3A-9F7E-7A0C42AF1E7B";
paths = (
{
closed = 1;
nodes = (
"39 151 OFFCURVE",
"210 0 OFFCURVE",
"413 0 CURVE SMOOTH",
"1013 0 LINE",
"1013 173 LINE",
"654 173 LINE",
"654 264 LINE",
"981 264 LINE",
"981 437 LINE",
"654 437 LINE",
"654 514 LINE",
"1013 514 LINE",
"1013 687 LINE",
"413 687 LINE SMOOTH",
"210 687 OFFCURVE",
"39 537 OFFCURVE",
"39 344 CURVE SMOOTH"
);
},
{
closed = 1;
nodes = (
"239 441 OFFCURVE",
"319 511 OFFCURVE",
"413 511 CURVE SMOOTH",
"460 511 LINE",
"460 176 LINE",
"413 176 LINE SMOOTH",
"319 176 OFFCURVE",
"239 246 OFFCURVE",
"239 344 CURVE SMOOTH"
);
}
);
width = 1069;
},
{
associatedMasterId = "A0D976AB-773B-4D3A-9F7E-7A0C42AF1E7B";
layerId = "C2789BC5-789F-43AD-91D4-78516B9F235D";
name = bubble;
paths = (
{
closed = 1;
nodes = (
"0 127 OFFCURVE",
"180 -38 OFFCURVE",
"413 -38 CURVE SMOOTH",
"1069 -38 LINE",
"1069 725 LINE",
"413 725 LINE SMOOTH",
"180 725 OFFCURVE",
"0 561 OFFCURVE",
"0 344 CURVE SMOOTH"
);
}
);
width = 1069;
},
{
associatedMasterId = "35616FF6-3D9C-499B-B113-AC9E0DB5842A";
layerId = "DE91FF8C-432C-4B0E-B238-CCC74E66E529";
name = bubble;
paths = (
{
closed = 1;
nodes = (
"0 117 OFFCURVE",
"181 -52 OFFCURVE",
"407 -52 CURVE SMOOTH",
"1035 -52 LINE",
"1035 739 LINE",
"407 739 LINE SMOOTH",
"186 739 OFFCURVE",
"0 556 OFFCURVE",
"0 334 CURVE SMOOTH"
);
}
);
width = 1036;
},
{
associatedMasterId = "3B040282-CF47-4846-BCAF-7BFF90FB63BC";
layerId = "1F1C7BE2-6FAF-41C4-93DC-126485153AB9";
name = bubble;
paths = (
{
closed = 1;
nodes = (
"0 93 OFFCURVE",
"183 -50 OFFCURVE",
"408 -50 CURVE SMOOTH",
"994 -50 LINE",
"994 737 LINE",
"408 737 LINE SMOOTH",
"182 737 OFFCURVE",
"0 594 OFFCURVE",
"0 344 CURVE SMOOTH"
);
}
);
width = 994;
}
);
leftKerningGroup = O;
rightKerningGroup = E;
unicode = 0152;
},
{
color = 1;
glyphname = P;
lastChange = "2019-04-08 11:34:15 +0000";
layers = (
{
layerId = "35616FF6-3D9C-499B-B113-AC9E0DB5842A";
paths = (
{
closed = 1;
nodes = (
"187 0 LINE",
"187 247 LINE",
"388 247 LINE SMOOTH",
"530 247 OFFCURVE",
"641 338 OFFCURVE",
"641 467 CURVE SMOOTH",
"641 596 OFFCURVE",
"530 687 OFFCURVE",
"388 687 CURVE SMOOTH",
"109 687 LINE",
"109 0 LINE"
);
},
{
closed = 1;
nodes = (
"187 613 LINE",
"374 613 LINE SMOOTH",
"486 613 OFFCURVE",
"562 559 OFFCURVE",
"562 467 CURVE SMOOTH",
"562 375 OFFCURVE",
"486 321 OFFCURVE",
"374 321 CURVE SMOOTH",
"187 321 LINE"
);
}
);
width = 685;
},
{
layerId = "A0D976AB-773B-4D3A-9F7E-7A0C42AF1E7B";
paths = (
{
closed = 1;
nodes = (
"267 0 LINE",
"267 207 LINE",
"402 207 LINE SMOOTH",
"556 207 OFFCURVE",
"665 306 OFFCURVE",
"665 447 CURVE SMOOTH",
"665 588 OFFCURVE",
"556 687 OFFCURVE",
"402 687 CURVE SMOOTH",
"73 687 LINE",
"73 0 LINE"
);
},
{
closed = 1;
nodes = (
"267 511 LINE",
"386 511 LINE SMOOTH",
"432 511 OFFCURVE",
"465 484 OFFCURVE",
"465 447 CURVE SMOOTH",
"465 410 OFFCURVE",
"432 383 OFFCURVE",
"386 383 CURVE SMOOTH",
"267 383 LINE"
);
}
);
width = 702;
},
{
layerId = "3B040282-CF47-4846-BCAF-7BFF90FB63BC";
paths = (
{
closed = 1;
nodes = (
"162 0 LINE",
"162 267 LINE",
"415 267 LINE SMOOTH",
"554 267 OFFCURVE",
"653 354 OFFCURVE",
"653 477 CURVE SMOOTH",
"653 600 OFFCURVE",
"554 687 OFFCURVE",
"415 687 CURVE SMOOTH",
"126 687 LINE",
"126 0 LINE"
);
},
{
closed = 1;
nodes = (
"162 651 LINE",
"408 651 LINE SMOOTH",
"530 651 OFFCURVE",
"617 579 OFFCURVE",
"617 477 CURVE SMOOTH",
"617 375 OFFCURVE",
"530 303 OFFCURVE",
"408 303 CURVE SMOOTH",
"162 303 LINE"
);
}
);
width = 691;
},
{
associatedMasterId = "A0D976AB-773B-4D3A-9F7E-7A0C42AF1E7B";
layerId = "DE9BCBDE-97C3-4778-AD8D-954FF0D59C93";
name = bubble;
paths = (
{
closed = 1;
nodes = (
"304 0 LINE",
"304 170 LINE",
"402 170 LINE SMOOTH",
"576 170 OFFCURVE",
"702 286 OFFCURVE",
"702 447 CURVE SMOOTH",
"702 608 OFFCURVE",
"576 724 OFFCURVE",
"402 724 CURVE SMOOTH",
"0 724 LINE",
"0 0 LINE"
);
}
);
width = 702;
},
{
associatedMasterId = "35616FF6-3D9C-499B-B113-AC9E0DB5842A";
layerId = "BA16B4D2-0E96-47BA-8D30-44D9862FB5A3";
name = bubble;
paths = (
{
closed = 1;
nodes = (
"231 0 LINE",
"231 203 LINE",
"388 203 LINE SMOOTH",
"557 203 OFFCURVE",
"685 316 OFFCURVE",
"685 467 CURVE SMOOTH",
"685 618 OFFCURVE",
"557 731 OFFCURVE",
"388 731 CURVE SMOOTH",
"0 731 LINE",
"0 0 LINE"
);
}
);
width = 685;
},
{
associatedMasterId = "3B040282-CF47-4846-BCAF-7BFF90FB63BC";
layerId = "D32D7097-335F-4EBA-811B-EEB90E70F0A1";
name = bubble;
paths = (
{
closed = 1;
nodes = (
"200 0 LINE",
"200 229 LINE",
"415 229 LINE SMOOTH",
"575 229 OFFCURVE",
"691 333 OFFCURVE",
"691 477 CURVE SMOOTH",
"691 621 OFFCURVE",
"575 725 OFFCURVE",
"415 725 CURVE SMOOTH",
"0 725 LINE",
"0 0 LINE"
);
}
);
width = 691;
}
);
leftKerningGroup = P;
rightKerningGroup = P;
unicode = 0050;
},
{
glyphname = Thorn;
lastChange = "2019-04-08 11:34:19 +0000";
layers = (
{
layerId = "3B040282-CF47-4846-BCAF-7BFF90FB63BC";
paths = (
{
closed = 1;
nodes = (
"148 0 LINE",
"148 136 LINE",
"401 136 LINE SMOOTH",
"540 136 OFFCURVE",
"639 223 OFFCURVE",
"639 346 CURVE SMOOTH",
"639 469 OFFCURVE",
"540 556 OFFCURVE",
"401 556 CURVE SMOOTH",
"148 556 LINE",
"148 687 LINE",
"112 687 LINE",
"112 0 LINE"
);
},
{
closed = 1;
nodes = (
"148 520 LINE",
"394 520 LINE SMOOTH",
"516 520 OFFCURVE",
"603 448 OFFCURVE",
"603 346 CURVE SMOOTH",
"603 244 OFFCURVE",
"516 172 OFFCURVE",
"394 172 CURVE SMOOTH",
"148 172 LINE"
);
}
);
width = 714;
},
{
layerId = "35616FF6-3D9C-499B-B113-AC9E0DB5842A";
paths = (
{
closed = 1;
nodes = (
"180 0 LINE",
"180 126 LINE",
"381 126 LINE SMOOTH",
"523 126 OFFCURVE",
"634 217 OFFCURVE",
"634 346 CURVE SMOOTH",
"634 475 OFFCURVE",
"523 566 OFFCURVE",
"381 566 CURVE SMOOTH",
"182 566 LINE",
"182 687 LINE",
"102 687 LINE",
"102 0 LINE"
);
},
{
closed = 1;
nodes = (
"180 492 LINE",
"367 492 LINE SMOOTH",
"479 492 OFFCURVE",
"555 438 OFFCURVE",
"555 346 CURVE SMOOTH",
"555 254 OFFCURVE",
"479 200 OFFCURVE",
"367 200 CURVE SMOOTH",
"180 200 LINE"
);
}
);
width = 699;
},
{
layerId = "A0D976AB-773B-4D3A-9F7E-7A0C42AF1E7B";
paths = (
{
closed = 1;
nodes = (
"257 0 LINE",
"257 105 LINE",
"392 105 LINE SMOOTH",
"546 105 OFFCURVE",
"655 204 OFFCURVE",
"655 345 CURVE SMOOTH",
"655 486 OFFCURVE",
"546 585 OFFCURVE",
"392 585 CURVE SMOOTH",
"252 585 LINE",
"252 687 LINE",
"63 687 LINE",
"63 0 LINE"
);
},
{
closed = 1;
nodes = (
"257 409 LINE",
"376 409 LINE SMOOTH",
"422 409 OFFCURVE",
"455 382 OFFCURVE",
"455 345 CURVE SMOOTH",
"455 308 OFFCURVE",
"422 281 OFFCURVE",
"376 281 CURVE SMOOTH",
"257 281 LINE"
);
}
);
width = 682;
},
{
associatedMasterId = "A0D976AB-773B-4D3A-9F7E-7A0C42AF1E7B";
layerId = "BC0B18AD-9DEF-45A6-B42F-AD686875E1F9";
name = bubble;
paths = (
{
closed = 1;
nodes = (
"284 0 LINE",
"284 78 LINE",
"392 78 LINE SMOOTH",
"561 78 OFFCURVE",
"682 189 OFFCURVE",
"682 345 CURVE SMOOTH",
"682 501 OFFCURVE",
"561 612 OFFCURVE",
"392 612 CURVE SMOOTH",
"279 612 LINE",
"279 687 LINE",
"0 687 LINE",
"0 0 LINE"
);
}
);
width = 682;
},
{
associatedMasterId = "35616FF6-3D9C-499B-B113-AC9E0DB5842A";
layerId = "8BF83F4A-590B-4DFA-82C6-930A870862D2";
name = bubble;
paths = (
{
closed = 1;
nodes = (
"245 0 LINE",
"245 61 LINE",
"381 61 LINE SMOOTH",
"562 61 OFFCURVE",
"699 183 OFFCURVE",
"699 346 CURVE SMOOTH",
"699 509 OFFCURVE",
"562 631 OFFCURVE",
"381 631 CURVE SMOOTH",
"247 631 LINE",
"247 687 LINE",
"0 687 LINE",
"0 0 LINE"
);
}
);
width = 699;
},
{
associatedMasterId = "3B040282-CF47-4846-BCAF-7BFF90FB63BC";
layerId = "5E2C2F0D-C60C-48AB-B583-9CA127CA5752";
name = bubble;
paths = (
{
closed = 1;
nodes = (
"223 0 LINE",
"223 61 LINE",
"401 61 LINE SMOOTH",
"581 61 OFFCURVE",
"714 181 OFFCURVE",
"714 346 CURVE SMOOTH",
"714 511 OFFCURVE",
"581 631 OFFCURVE",
"401 631 CURVE SMOOTH",
"223 631 LINE",
"223 687 LINE",
"0 687 LINE",
"0 0 LINE"
);
}
);
width = 714;
}
);
leftKerningGroup = Thorn;
rightKerningGroup = Thorn;
unicode = 00DE;
},
{
glyphname = Q;
lastChange = "2019-04-08 11:34:22 +0000";
layers = (
{
anchors = (
{
name = top;
position = "{408, 687}";
}
);
layerId = "35616FF6-3D9C-499B-B113-AC9E0DB5842A";
paths = (
{
closed = 1;
nodes = (
"755 58 LINE",
"511 270 LINE",
"461 212 LINE",
"705 0 LINE"
);
},
{
closed = 1;
nodes = (
"599 -12 OFFCURVE",
"759 151 OFFCURVE",
"759 344 CURVE SMOOTH",
"759 537 OFFCURVE",
"599 699 OFFCURVE",
"408 699 CURVE SMOOTH",
"218 699 OFFCURVE",
"56 537 OFFCURVE",
"56 344 CURVE SMOOTH",
"56 151 OFFCURVE",
"218 -12 OFFCURVE",
"408 -12 CURVE SMOOTH"
);
},
{
closed = 1;
nodes = (
"260 60 OFFCURVE",
"135 190 OFFCURVE",
"135 344 CURVE SMOOTH",
"135 497 OFFCURVE",
"260 627 OFFCURVE",
"408 627 CURVE SMOOTH",
"556 627 OFFCURVE",
"680 497 OFFCURVE",
"680 344 CURVE SMOOTH",
"680 190 OFFCURVE",
"556 60 OFFCURVE",
"408 60 CURVE SMOOTH"
);
}
);
width = 828;
},
{
anchors = (
{
name = top;
position = "{414, 687}";
}
);
layerId = "A0D976AB-773B-4D3A-9F7E-7A0C42AF1E7B";
paths = (
{
closed = 1;
nodes = (
"780 106 LINE",
"511 340 LINE",
"420 234 LINE",
"689 0 LINE"
);
},
{
closed = 1;
nodes = (
"617 -12 OFFCURVE",
"788 151 OFFCURVE",
"788 344 CURVE SMOOTH",
"788 537 OFFCURVE",
"617 699 OFFCURVE",
"414 699 CURVE SMOOTH",
"211 699 OFFCURVE",
"40 537 OFFCURVE",
"40 344 CURVE SMOOTH",
"40 151 OFFCURVE",
"211 -12 OFFCURVE",
"414 -12 CURVE SMOOTH"
);
},
{
closed = 1;
nodes = (
"320 164 OFFCURVE",
"240 246 OFFCURVE",
"240 344 CURVE SMOOTH",
"240 441 OFFCURVE",
"320 523 OFFCURVE",
"414 523 CURVE SMOOTH",
"508 523 OFFCURVE",
"588 441 OFFCURVE",
"588 344 CURVE SMOOTH",
"588 246 OFFCURVE",
"508 164 OFFCURVE",
"414 164 CURVE SMOOTH"
);
}
);
width = 831;
},
{
anchors = (
{
name = top;
position = "{410, 687}";
}
);
layerId = "3B040282-CF47-4846-BCAF-7BFF90FB63BC";
paths = (
{
closed = 1;
nodes = (
"728 27 LINE",
"485 237 LINE",
"462 210 LINE",
"704 0 LINE"
);
},
{
closed = 1;
nodes = (
"601 -12 OFFCURVE",
"761 151 OFFCURVE",
"761 344 CURVE SMOOTH",
"761 537 OFFCURVE",
"601 699 OFFCURVE",
"410 699 CURVE SMOOTH",
"219 699 OFFCURVE",
"58 537 OFFCURVE",
"58 344 CURVE SMOOTH",
"58 151 OFFCURVE",
"219 -12 OFFCURVE",
"410 -12 CURVE SMOOTH"
);
},
{
closed = 1;
nodes = (
"238 24 OFFCURVE",
"94 170 OFFCURVE",
"94 344 CURVE SMOOTH",
"94 517 OFFCURVE",
"238 663 OFFCURVE",
"410 663 CURVE SMOOTH",
"581 663 OFFCURVE",
"725 517 OFFCURVE",
"725 344 CURVE SMOOTH",
"725 170 OFFCURVE",
"581 24 OFFCURVE",
"410 24 CURVE SMOOTH"
);
}
);
width = 832;
},
{
associatedMasterId = "3B040282-CF47-4846-BCAF-7BFF90FB63BC";
layerId = "7FB4B71B-76DF-4ACF-9A69-59EB718A2D61";
name = bubble;
paths = (
{
closed = 1;
nodes = (
"488 -70 OFFCURVE",
"561 -47 OFFCURVE",
"624 -7 CURVE",
"665 -43 LINE",
"766 69 LINE",
"736 96 LINE",
"788 166 OFFCURVE",
"819 252 OFFCURVE",
"819 344 CURVE SMOOTH",
"819 569 OFFCURVE",
"633 757 OFFCURVE",
"410 757 CURVE SMOOTH",
"187 757 OFFCURVE",
"0 569 OFFCURVE",
"0 344 CURVE SMOOTH",
"0 119 OFFCURVE",
"187 -70 OFFCURVE",
"410 -70 CURVE SMOOTH"
);
}
);
width = 819;
},
{
associatedMasterId = "35616FF6-3D9C-499B-B113-AC9E0DB5842A";
layerId = "C4591007-61E7-4235-A889-142C04582070";
name = bubble;
paths = (
{
closed = 1;
nodes = (
"487 -68 OFFCURVE",
"561 -44 OFFCURVE",
"624 -4 CURVE",
"669 -42 LINE",
"792 101 LINE",
"755 132 LINE",
"793 194 OFFCURVE",
"815 267 OFFCURVE",
"815 344 CURVE SMOOTH",
"815 568 OFFCURVE",
"630 755 OFFCURVE",
"408 755 CURVE SMOOTH",
"186 755 OFFCURVE",
"0 567 OFFCURVE",
"0 344 CURVE SMOOTH",
"0 120 OFFCURVE",
"187 -68 OFFCURVE",
"408 -68 CURVE SMOOTH"
);
}
);
width = 816;
},
{
associatedMasterId = "A0D976AB-773B-4D3A-9F7E-7A0C42AF1E7B";
layerId = "C6DEB584-BDFE-420C-95A7-DA822B128D88";
name = bubble;
paths = (
{
closed = 1;
nodes = (
"490 -52 OFFCURVE",
"561 -32 OFFCURVE",
"623 4 CURVE",
"663 -31 LINE",
"806 136 LINE",
"779 160 LINE",
"810 215 OFFCURVE",
"828 278 OFFCURVE",
"828 344 CURVE SMOOTH",
"828 559 OFFCURVE",
"639 739 OFFCURVE",
"414 739 CURVE SMOOTH",
"189 739 OFFCURVE",
"0 559 OFFCURVE",
"0 344 CURVE SMOOTH",
"0 128 OFFCURVE",
"190 -52 OFFCURVE",
"414 -52 CURVE SMOOTH"
);
}
);
width = 828;
}
);
leftKerningGroup = Q;
rightKerningGroup = Q;
unicode = 0051;
},
{
color = 1;
glyphname = R;
lastChange = "2019-04-08 11:34:26 +0000";
layers = (
{
anchors = (
{
name = bottom;
position = "{334, 0}";
},
{
name = top;
position = "{334, 687}";
}
);
layerId = "35616FF6-3D9C-499B-B113-AC9E0DB5842A";
paths = (
{
closed = 1;
nodes = (
"602 0 LINE",
"413 269 LINE",
"324 269 LINE",
"513 0 LINE"
);
},
{
closed = 1;
nodes = (
"187 0 LINE",
"187 247 LINE",
"388 247 LINE SMOOTH",
"530 247 OFFCURVE",
"641 338 OFFCURVE",
"641 467 CURVE SMOOTH",
"641 596 OFFCURVE",
"530 687 OFFCURVE",
"388 687 CURVE SMOOTH",
"109 687 LINE",
"109 0 LINE"
);
},
{
closed = 1;
nodes = (
"187 613 LINE",
"374 613 LINE SMOOTH",
"486 613 OFFCURVE",
"562 559 OFFCURVE",
"562 467 CURVE SMOOTH",
"562 375 OFFCURVE",
"486 321 OFFCURVE",
"374 321 CURVE SMOOTH",
"187 321 LINE"
);
}
);
width = 690;
},
{
anchors = (
{
name = bottom;
position = "{349, 0}";
},
{
name = top;
position = "{342, 687}";
}
);
layerId = "A0D976AB-773B-4D3A-9F7E-7A0C42AF1E7B";
paths = (
{
closed = 1;
nodes = (
"680 0 LINE",
"491 269 LINE",
"270 269 LINE",
"459 0 LINE"
);
},
{
closed = 1;
nodes = (
"267 0 LINE",
"267 207 LINE",
"402 207 LINE SMOOTH",
"556 207 OFFCURVE",
"665 306 OFFCURVE",
"665 447 CURVE SMOOTH",
"665 588 OFFCURVE",
"556 687 OFFCURVE",
"402 687 CURVE SMOOTH",
"73 687 LINE",
"73 0 LINE"
);
},
{
closed = 1;
nodes = (
"267 511 LINE",
"386 511 LINE SMOOTH",
"432 511 OFFCURVE",
"465 484 OFFCURVE",
"465 447 CURVE SMOOTH",
"465 410 OFFCURVE",
"432 383 OFFCURVE",
"386 383 CURVE SMOOTH",
"267 383 LINE"
);
}
);
width = 714;
},
{
anchors = (
{
name = bottom;
position = "{334, 0}";
},
{
name = top;
position = "{334, 687}";
}
);
layerId = "3B040282-CF47-4846-BCAF-7BFF90FB63BC";
paths = (
{
closed = 1;
nodes = (
"582 0 LINE",
"378 291 LINE",
"334 291 LINE",
"538 0 LINE"
);
},
{
closed = 1;
nodes = (
"162 0 LINE",
"162 267 LINE",
"415 267 LINE SMOOTH",
"554 267 OFFCURVE",
"653 354 OFFCURVE",
"653 477 CURVE SMOOTH",
"653 600 OFFCURVE",
"554 687 OFFCURVE",
"415 687 CURVE SMOOTH",
"126 687 LINE",
"126 0 LINE"
);
},
{
closed = 1;
nodes = (
"162 651 LINE",
"408 651 LINE SMOOTH",
"530 651 OFFCURVE",
"617 579 OFFCURVE",
"617 477 CURVE SMOOTH",
"617 375 OFFCURVE",
"530 303 OFFCURVE",
"408 303 CURVE SMOOTH",
"162 303 LINE"
);
}
);
width = 700;
},
{
associatedMasterId = "3B040282-CF47-4846-BCAF-7BFF90FB63BC";
layerId = "150FFD29-5CE0-45FB-8C53-3A4A88E4F2D3";
name = bubble;
paths = (
{
closed = 1;
nodes = (
"628 0 LINE",
"466 233 LINE",
"599 252 OFFCURVE",
"691 349 OFFCURVE",
"691 477 CURVE SMOOTH",
"691 621 OFFCURVE",
"575 725 OFFCURVE",
"415 725 CURVE SMOOTH",
"0 725 LINE",
"0 0 LINE"
);
}
);
width = 691;
},
{
associatedMasterId = "35616FF6-3D9C-499B-B113-AC9E0DB5842A";
layerId = "73F1EFAE-AB49-42C9-8667-69A9D8EC6B26";
name = bubble;
paths = (
{
closed = 1;
nodes = (
"656 0 LINE",
"501 221 LINE",
"611 259 OFFCURVE",
"685 352 OFFCURVE",
"685 467 CURVE SMOOTH",
"685 618 OFFCURVE",
"557 731 OFFCURVE",
"388 731 CURVE SMOOTH",
"0 731 LINE",
"0 0 LINE"
);
}
);
width = 685;
},
{
associatedMasterId = "A0D976AB-773B-4D3A-9F7E-7A0C42AF1E7B";
layerId = "ACAF4C6C-200C-4047-A347-A05AC5F86A42";
name = bubble;
paths = (
{
closed = 1;
nodes = (
"702 0 LINE",
"574 215 LINE",
"653 264 OFFCURVE",
"702 346 OFFCURVE",
"702 447 CURVE SMOOTH",
"702 608 OFFCURVE",
"576 724 OFFCURVE",
"402 724 CURVE SMOOTH",
"0 724 LINE",
"0 0 LINE"
);
}
);
width = 702;
}
);
leftKerningGroup = R;
rightKerningGroup = R;
unicode = 0052;
},
{
color = 1;
glyphname = S;
lastChange = "2019-04-07 06:07:48 +0000";
layers = (
{
anchors = (
{
name = bottom;
position = "{308, 0}";
},
{
name = top;
position = "{307, 687}";
}
);
layerId = "35616FF6-3D9C-499B-B113-AC9E0DB5842A";
paths = (
{
closed = 1;
nodes = (
"477 -11 OFFCURVE",
"559 78 OFFCURVE",
"559 187 CURVE SMOOTH",
"559 308 OFFCURVE",
"465 355 OFFCURVE",
"334 386 CURVE SMOOTH",
"217 414 OFFCURVE",
"149 439 OFFCURVE",
"149 510 CURVE SMOOTH",
"149 573 OFFCURVE",
"211 629 OFFCURVE",
"296 629 CURVE SMOOTH",
"368 629 OFFCURVE",
"436 596 OFFCURVE",
"493 541 CURVE",
"541 602 LINE",
"478 660 OFFCURVE",
"402 700 OFFCURVE",
"300 700 CURVE SMOOTH",
"168 700 OFFCURVE",
"70 614 OFFCURVE",
"70 504 CURVE SMOOTH",
"70 385 OFFCURVE",
"157 342 OFFCURVE",
"295 310 CURVE SMOOTH",
"415 282 OFFCURVE",
"480 253 OFFCURVE",
"480 180 CURVE SMOOTH",
"480 118 OFFCURVE",
"426 60 OFFCURVE",
"320 60 CURVE SMOOTH",
"224 60 OFFCURVE",
"153 101 OFFCURVE",
"95 159 CURVE",
"46 98 LINE",
"115 30 OFFCURVE",
"204 -11 OFFCURVE",
"317 -11 CURVE SMOOTH"
);
}
);
width = 612;
},
{
anchors = (
{
name = bottom;
position = "{337, 0}";
},
{
name = top;
position = "{337, 687}";
}
);
layerId = "A0D976AB-773B-4D3A-9F7E-7A0C42AF1E7B";
paths = (
{
closed = 1;
nodes = (
"529 -12 OFFCURVE",
"640 73 OFFCURVE",
"640 218 CURVE SMOOTH",
"640 349 OFFCURVE",
"540 392 OFFCURVE",
"380 426 CURVE SMOOTH",
"282 447 OFFCURVE",
"258 458 OFFCURVE",
"258 493 CURVE SMOOTH",
"258 519 OFFCURVE",
"281 538 OFFCURVE",
"328 538 CURVE SMOOTH",
"390 538 OFFCURVE",
"460 515 OFFCURVE",
"524 469 CURVE",
"621 606 LINE",
"545 667 OFFCURVE",
"452 699 OFFCURVE",
"333 699 CURVE SMOOTH",
"170 699 OFFCURVE",
"62 610 OFFCURVE",
"62 473 CURVE SMOOTH",
"62 330 OFFCURVE",
"177 291 OFFCURVE",
"326 257 CURVE SMOOTH",
"421 235 OFFCURVE",
"445 230 OFFCURVE",
"445 197 CURVE SMOOTH",
"445 167 OFFCURVE",
"417 149 OFFCURVE",
"364 149 CURVE SMOOTH",
"283 149 OFFCURVE",
"207 178 OFFCURVE",
"137 233 CURVE",
"29 104 LINE",
"116 27 OFFCURVE",
"233 -12 OFFCURVE",
"357 -12 CURVE SMOOTH"
);
}
);
width = 678;
},
{
anchors = (
{
name = bottom;
position = "{309, 0}";
},
{
name = top;
position = "{309, 687}";
}
);
layerId = "3B040282-CF47-4846-BCAF-7BFF90FB63BC";
paths = (
{
closed = 1;
nodes = (
"451 -11 OFFCURVE",
"547 67 OFFCURVE",
"547 177 CURVE SMOOTH",
"547 273 OFFCURVE",
"482 327 OFFCURVE",
"321 365 CURVE SMOOTH",
"173 401 OFFCURVE",
"114 441 OFFCURVE",
"114 507 CURVE SMOOTH",
"114 599 OFFCURVE",
"189 664 OFFCURVE",
"296 664 CURVE SMOOTH",
"376 664 OFFCURVE",
"454 631 OFFCURVE",
"513 574 CURVE",
"535 602 LINE",
"468 664 OFFCURVE",
"382 700 OFFCURVE",
"298 700 CURVE SMOOTH",
"169 700 OFFCURVE",
"78 619 OFFCURVE",
"78 504 CURVE SMOOTH",
"78 418 OFFCURVE",
"142 369 OFFCURVE",
"303 332 CURVE SMOOTH",
"452 297 OFFCURVE",
"511 252 OFFCURVE",
"511 174 CURVE SMOOTH",
"511 87 OFFCURVE",
"430 25 OFFCURVE",
"316 25 CURVE SMOOTH",
"222 25 OFFCURVE",
"129 63 OFFCURVE",
"66 126 CURVE",
"44 98 LINE",
"114 29 OFFCURVE",
"214 -11 OFFCURVE",
"315 -11 CURVE SMOOTH"
);
}
);
width = 606;
},
{
anchors = (
{
name = bottom;
position = "{309, 0}";
},
{
name = top;
position = "{309, 687}";
}
);
associatedMasterId = "3B040282-CF47-4846-BCAF-7BFF90FB63BC";
layerId = "3D01659E-1C11-4EEA-8891-522CC6C46D04";
name = bubble;
paths = (
{
closed = 1;
nodes = (
"483 -70 OFFCURVE",
"606 33 OFFCURVE",
"606 177 CURVE SMOOTH",
"606 293 OFFCURVE",
"535 364 OFFCURVE",
"382 410 CURVE",
"571 648 LINE",
"494 718 OFFCURVE",
"394 759 OFFCURVE",
"298 759 CURVE SMOOTH",
"137 759 OFFCURVE",
"19 652 OFFCURVE",
"19 504 CURVE SMOOTH",
"19 406 OFFCURVE",
"77 342 OFFCURVE",
"203 299 CURVE",
"0 42 LINE",
"80 -37 OFFCURVE",
"199 -70 OFFCURVE",
"315 -70 CURVE SMOOTH"
);
}
);
width = 606;
},
{
anchors = (
{
name = bottom;
position = "{308, 0}";
},
{
name = top;
position = "{307, 687}";
}
);
associatedMasterId = "35616FF6-3D9C-499B-B113-AC9E0DB5842A";
layerId = "77C5887E-5CD0-45AC-AF01-36C986C450FF";
name = bubble;
paths = (
{
closed = 1;
nodes = (
"493 -64 OFFCURVE",
"612 37 OFFCURVE",
"612 187 CURVE SMOOTH",
"612 305 OFFCURVE",
"545 378 OFFCURVE",
"400 423 CURVE",
"575 644 LINE",
"494 717 OFFCURVE",
"403 753 OFFCURVE",
"300 753 CURVE SMOOTH",
"140 753 OFFCURVE",
"17 645 OFFCURVE",
"17 504 CURVE SMOOTH",
"17 395 OFFCURVE",
"71 328 OFFCURVE",
"196 283 CURVE",
"0 41 LINE",
"90 -28 OFFCURVE",
"207 -64 OFFCURVE",
"317 -64 CURVE SMOOTH"
);
}
);
width = 612;
},
{
anchors = (
{
name = bottom;
position = "{337, 0}";
},
{
name = top;
position = "{337, 687}";
}
);
associatedMasterId = "A0D976AB-773B-4D3A-9F7E-7A0C42AF1E7B";
layerId = "26AEABBF-5FBF-46A5-91D2-BA9B18BA90EA";
name = bubble;
paths = (
{
closed = 1;
nodes = (
"553 -50 OFFCURVE",
"678 54 OFFCURVE",
"678 218 CURVE SMOOTH",
"678 326 OFFCURVE",
"626 390 OFFCURVE",
"499 433 CURVE",
"643 637 LINE",
"559 704 OFFCURVE",
"455 737 OFFCURVE",
"333 737 CURVE SMOOTH",
"149 737 OFFCURVE",
"24 631 OFFCURVE",
"24 473 CURVE SMOOTH",
"24 364 OFFCURVE",
"83 305 OFFCURVE",
"165 267 CURVE",
"0 69 LINE",
"92 -12 OFFCURVE",
"221 -50 OFFCURVE",
"357 -50 CURVE SMOOTH"
);
}
);
width = 678;
}
);
leftKerningGroup = S;
rightKerningGroup = S;
unicode = 0053;
},
{
color = 1;
glyphname = T;
lastChange = "2019-04-07 02:14:04 +0000";
layers = (
{
anchors = (
{
name = bottom;
position = "{295, 0}";
},
{
name = top;
position = "{295, 687}";
}
);
layerId = "35616FF6-3D9C-499B-B113-AC9E0DB5842A";
paths = (
{
closed = 1;
nodes = (
"334 0 LINE",
"334 613 LINE",
"565 613 LINE",
"565 687 LINE",
"25 687 LINE",
"25 613 LINE",
"256 613 LINE",
"256 0 LINE"
);
}
);
width = 590;
},
{
anchors = (
{
name = bottom;
position = "{336, 0}";
},
{
name = top;
position = "{336, 687}";
}
);
layerId = "A0D976AB-773B-4D3A-9F7E-7A0C42AF1E7B";
paths = (
{
closed = 1;
nodes = (
"433 0 LINE",
"433 514 LINE",
"636 514 LINE",
"636 687 LINE",
"36 687 LINE",
"36 514 LINE",
"239 514 LINE",
"239 0 LINE"
);
}
);
width = 672;
},
{
anchors = (
{
name = bottom;
position = "{271, 0}";
},
{
name = top;
position = "{271, 687}";
}
);
layerId = "3B040282-CF47-4846-BCAF-7BFF90FB63BC";
paths = (
{
closed = 1;
nodes = (
"289 0 LINE",
"289 651 LINE",
"541 651 LINE",
"541 687 LINE",
"1 687 LINE",
"1 651 LINE",
"253 651 LINE",
"253 0 LINE"
);
}
);
width = 542;
},
{
anchors = (
{
name = bottom;
position = "{271, 0}";
},
{
name = top;
position = "{271, 687}";
}
);
associatedMasterId = "3B040282-CF47-4846-BCAF-7BFF90FB63BC";
layerId = "90850F19-15D4-46A4-9C7B-38BDB2613D50";
name = bubble;
paths = (
{
closed = 1;
nodes = (
"430 -1 LINE",
"430 590 LINE",
"542 590 LINE",
"542 687 LINE",
"0 687 LINE",
"0 590 LINE",
"112 590 LINE",
"112 -1 LINE"
);
}
);
width = 542;
},
{
anchors = (
{
name = bottom;
position = "{289, 0}";
},
{
name = top;
position = "{295, 687}";
}
);
associatedMasterId = "35616FF6-3D9C-499B-B113-AC9E0DB5842A";
layerId = "741E7EF9-B90A-44D2-BADA-65EEE9895863";
name = bubble;
paths = (
{
closed = 1;
nodes = (
"449 0 LINE",
"449 548 LINE",
"590 548 LINE",
"590 687 LINE",
"0 687 LINE",
"0 548 LINE",
"141 548 LINE",
"141 0 LINE"
);
}
);
width = 590;
},
{
anchors = (
{
name = bottom;
position = "{333, 0}";
},
{
name = top;
position = "{336, 687}";
}
);
associatedMasterId = "A0D976AB-773B-4D3A-9F7E-7A0C42AF1E7B";
layerId = "ED82BB9C-FBA5-48FB-BD45-5A8E12906DF2";
name = bubble;
paths = (
{
closed = 1;
nodes = (
"549 0 LINE",
"549 438 LINE",
"672 438 LINE",
"672 687 LINE",
"0 687 LINE",
"0 438 LINE",
"123 438 LINE",
"123 0 LINE"
);
}
);
width = 672;
}
);
leftKerningGroup = T;
rightKerningGroup = T;
unicode = 0054;
},
{
glyphname = U;
lastChange = "2019-04-08 11:34:40 +0000";
layers = (
{
anchors = (
{
name = bottom;
position = "{378, -12}";
},
{
name = top;
position = "{378, 687}";
}
);
layerId = "35616FF6-3D9C-499B-B113-AC9E0DB5842A";
paths = (
{
closed = 1;
nodes = (
"546 -12 OFFCURVE",
"665 111 OFFCURVE",
"665 285 CURVE SMOOTH",
"665 687 LINE",
"587 687 LINE",
"587 285 LINE SMOOTH",
"587 153 OFFCURVE",
"500 59 OFFCURVE",
"378 59 CURVE SMOOTH",
"256 59 OFFCURVE",
"169 153 OFFCURVE",
"169 285 CURVE SMOOTH",
"169 687 LINE",
"91 687 LINE",
"91 285 LINE SMOOTH",
"91 111 OFFCURVE",
"210 -12 OFFCURVE",
"378 -12 CURVE SMOOTH"
);
}
);
width = 756;
},
{
anchors = (
{
name = bottom;
position = "{386, -12}";
},
{
name = top;
position = "{386, 687}";
}
);
layerId = "A0D976AB-773B-4D3A-9F7E-7A0C42AF1E7B";
paths = (
{
closed = 1;
nodes = (
"578 -12 OFFCURVE",
"713 119 OFFCURVE",
"713 305 CURVE SMOOTH",
"713 687 LINE",
"519 687 LINE",
"519 315 LINE SMOOTH",
"519 227 OFFCURVE",
"464 164 OFFCURVE",
"386 164 CURVE SMOOTH",
"308 164 OFFCURVE",
"253 227 OFFCURVE",
"253 315 CURVE SMOOTH",
"253 687 LINE",
"59 687 LINE",
"59 305 LINE SMOOTH",
"59 119 OFFCURVE",
"194 -12 OFFCURVE",
"386 -12 CURVE SMOOTH"
);
}
);
width = 772;
},
{
anchors = (
{
name = bottom;
position = "{371, -12}";
},
{
name = top;
position = "{371, 687}";
}
);
layerId = "3B040282-CF47-4846-BCAF-7BFF90FB63BC";
paths = (
{
closed = 1;
nodes = (
"527 -12 OFFCURVE",
"637 103 OFFCURVE",
"637 265 CURVE SMOOTH",
"637 687 LINE",
"601 687 LINE",
"601 265 LINE SMOOTH",
"601 124 OFFCURVE",
"506 24 OFFCURVE",
"371 24 CURVE SMOOTH",
"236 24 OFFCURVE",
"141 124 OFFCURVE",
"141 265 CURVE SMOOTH",
"141 687 LINE",
"105 687 LINE",
"105 265 LINE SMOOTH",
"105 103 OFFCURVE",
"215 -12 OFFCURVE",
"371 -12 CURVE SMOOTH"
);
}
);
width = 742;
},
{
anchors = (
{
name = bottom;
position = "{384, 0}";
},
{
name = top;
position = "{371, 687}";
}
);
associatedMasterId = "3B040282-CF47-4846-BCAF-7BFF90FB63BC";
layerId = "8256F4E9-E7D6-486A-855D-A54DFCE3712A";
name = bubble;
paths = (
{
closed = 1;
nodes = (
"585 -117 OFFCURVE",
"742 45 OFFCURVE",
"742 265 CURVE SMOOTH",
"742 687 LINE",
"0 687 LINE",
"0 265 LINE SMOOTH",
"0 45 OFFCURVE",
"157 -117 OFFCURVE",
"371 -117 CURVE SMOOTH"
);
}
);
width = 742;
},
{
anchors = (
{
name = bottom;
position = "{400, 0}";
},
{
name = top;
position = "{378, 687}";
}
);
associatedMasterId = "35616FF6-3D9C-499B-B113-AC9E0DB5842A";
layerId = "281B0FCD-5315-4FA7-819B-740F90C388F4";
name = bubble;
paths = (
{
closed = 1;
nodes = (
"597 -103 OFFCURVE",
"756 61 OFFCURVE",
"756 285 CURVE SMOOTH",
"756 687 LINE",
"0 687 LINE",
"0 285 LINE SMOOTH",
"0 61 OFFCURVE",
"159 -103 OFFCURVE",
"378 -103 CURVE SMOOTH"
);
}
);
width = 756;
},
{
anchors = (
{
name = bottom;
position = "{440, 0}";
},
{
name = top;
position = "{386, 687}";
}
);
associatedMasterId = "A0D976AB-773B-4D3A-9F7E-7A0C42AF1E7B";
layerId = "6B1555C9-9F3C-4D4A-8375-E685FA38D6DA";
name = bubble;
paths = (
{
closed = 1;
nodes = (
"610 -71 OFFCURVE",
"772 86 OFFCURVE",
"772 305 CURVE SMOOTH",
"772 687 LINE",
"0 687 LINE",
"0 305 LINE SMOOTH",
"0 86 OFFCURVE",
"162 -71 OFFCURVE",
"386 -71 CURVE SMOOTH"
);
}
);
width = 772;
}
);
leftKerningGroup = U;
rightKerningGroup = U;
unicode = 0055;
},
{
glyphname = V;
lastChange = "2019-03-31 02:24:32 +0000";
layers = (
{
components = (
{
name = capital_V;
}
);
layerId = "35616FF6-3D9C-499B-B113-AC9E0DB5842A";
width = 741;
},
{
components = (
{
name = capital_V;
}
);
layerId = "A0D976AB-773B-4D3A-9F7E-7A0C42AF1E7B";
width = 801;
},
{
components = (
{
name = capital_V;
}
);
layerId = "3B040282-CF47-4846-BCAF-7BFF90FB63BC";
width = 676;
},
{
associatedMasterId = "3B040282-CF47-4846-BCAF-7BFF90FB63BC";
layerId = "D5D50BC4-0886-4E41-818A-2844C980697A";
name = bubble;
paths = (
{
closed = 1;
nodes = (
"514 0 LINE",
"676 687 LINE",
"0 687 LINE",
"164 0 LINE"
);
}
);
width = 676;
},
{
associatedMasterId = "35616FF6-3D9C-499B-B113-AC9E0DB5842A";
layerId = "567A3A05-4CCF-4D11-A7AF-E76A7AEDFCD3";
name = bubble;
paths = (
{
closed = 1;
nodes = (
"573 0 LINE",
"741 687 LINE",
"0 687 LINE",
"168 0 LINE"
);
}
);
width = 741;
},
{
associatedMasterId = "A0D976AB-773B-4D3A-9F7E-7A0C42AF1E7B";
layerId = "B7474A6B-D8AC-4E46-AAE4-9D1AF55E5CD1";
name = bubble;
paths = (
{
closed = 1;
nodes = (
"129 0 LINE",
"672 0 LINE",
"801 687 LINE",
"0 687 LINE"
);
}
);
width = 801;
}
);
leftKerningGroup = V;
rightKerningGroup = V;
unicode = 0056;
},
{
color = 1;
glyphname = W;
lastChange = "2019-04-07 02:26:39 +0000";
layers = (
{
anchors = (
{
name = top;
position = "{534, 687}";
}
);
layerId = "35616FF6-3D9C-499B-B113-AC9E0DB5842A";
paths = (
{
closed = 1;
nodes = (
"342 0 LINE",
"534 585 LINE",
"725 0 LINE",
"802 0 LINE",
"1037 687 LINE",
"949 687 LINE",
"759 131 LINE",
"577 687 LINE",
"490 687 LINE",
"308 131 LINE",
"118 687 LINE",
"30 687 LINE",
"265 0 LINE"
);
}
);
width = 1067;
},
{
anchors = (
{
name = top;
position = "{559, 687}";
}
);
layerId = "A0D976AB-773B-4D3A-9F7E-7A0C42AF1E7B";
paths = (
{
closed = 1;
nodes = (
"415 0 LINE",
"559 397 LINE",
"702 0 LINE",
"898 0 LINE",
"1088 687 LINE",
"879 687 LINE",
"795 290 LINE",
"663 687 LINE",
"454 687 LINE",
"321 290 LINE",
"237 687 LINE",
"28 687 LINE",
"219 0 LINE"
);
}
);
width = 1117;
},
{
anchors = (
{
name = top;
position = "{507, 687}";
}
);
layerId = "3B040282-CF47-4846-BCAF-7BFF90FB63BC";
paths = (
{
closed = 1;
nodes = (
"296 0 LINE",
"507 629 LINE",
"717 0 LINE",
"756 0 LINE",
"986 687 LINE",
"947 687 LINE",
"737 58 LINE",
"526 687 LINE",
"487 687 LINE",
"277 58 LINE",
"66 687 LINE",
"27 687 LINE",
"257 0 LINE"
);
}
);
width = 1013;
},
{
anchors = (
{
name = top;
position = "{559, 687}";
}
);
associatedMasterId = "A0D976AB-773B-4D3A-9F7E-7A0C42AF1E7B";
layerId = "D8E74EC7-CC35-43BB-AA27-427D9F4120CC";
name = bubble;
paths = (
{
closed = 1;
nodes = (
"1003 0 LINE",
"1117 687 LINE",
"0 687 LINE",
"114 0 LINE"
);
}
);
width = 1117;
},
{
anchors = (
{
name = top;
position = "{534, 687}";
}
);
associatedMasterId = "35616FF6-3D9C-499B-B113-AC9E0DB5842A";
layerId = "5C748FA8-D7FD-408E-80D2-24134493FE80";
name = bubble;
paths = (
{
closed = 1;
nodes = (
"937 0 LINE",
"1067 687 LINE",
"0 687 LINE",
"130 0 LINE"
);
}
);
width = 1067;
},
{
anchors = (
{
name = top;
position = "{507, 687}";
}
);
associatedMasterId = "3B040282-CF47-4846-BCAF-7BFF90FB63BC";
layerId = "AFDC8CA6-014F-471C-BD4D-6EB3799B3DF2";
name = bubble;
paths = (
{
closed = 1;
nodes = (
"878 0 LINE",
"1013 687 LINE",
"0 687 LINE",
"135 0 LINE"
);
}
);
width = 1013;
}
);
leftKerningGroup = W;
rightKerningGroup = W;
unicode = 0057;
},
{
glyphname = X;
lastChange = "2019-04-06 02:06:21 +0000";
layers = (
{
layerId = "3B040282-CF47-4846-BCAF-7BFF90FB63BC";
paths = (
{
closed = 1;
nodes = (
"26 687 LINE",
"72 687 LINE",
"597 0 LINE",
"551 0 LINE"
);
},
{
closed = 1;
nodes = (
"552 687 LINE",
"598 687 LINE",
"72 0 LINE",
"26 0 LINE"
);
}
);
width = 624;
},
{
layerId = "35616FF6-3D9C-499B-B113-AC9E0DB5842A";
paths = (
{
closed = 1;
nodes = (
"28 687 LINE",
"124 687 LINE",
"649 0 LINE",
"553 0 LINE"
);
},
{
closed = 1;
nodes = (
"554 687 LINE",
"649 687 LINE",
"123 0 LINE",
"28 0 LINE"
);
}
);
width = 677;
},
{
associatedMasterId = "35616FF6-3D9C-499B-B113-AC9E0DB5842A";
layerId = "E4A816BD-1A2A-48A9-8DCB-A1FEAFCF96CE";
name = bubble;
paths = (
{
closed = 1;
nodes = (
"677 0 LINE",
"518 344 LINE",
"677 687 LINE",
"0 687 LINE",
"159 343 LINE",
"0 0 LINE"
);
}
);
width = 677;
},
{
layerId = "A0D976AB-773B-4D3A-9F7E-7A0C42AF1E7B";
paths = (
{
closed = 1;
nodes = (
"517 687 LINE",
"740 687 LINE",
"250 0 LINE",
"27 0 LINE"
);
},
{
closed = 1;
nodes = (
"27 687 LINE",
"254 687 LINE",
"740 0 LINE",
"513 0 LINE"
);
}
);
width = 767;
},
{
associatedMasterId = "A0D976AB-773B-4D3A-9F7E-7A0C42AF1E7B";
layerId = "1734ECE4-6BD2-468A-980D-23D28FC74627";
name = bubble;
paths = (
{
closed = 1;
nodes = (
"767 0 LINE",
"621 345 LINE",
"767 687 LINE",
"0 687 LINE",
"146 342 LINE",
"0 0 LINE"
);
}
);
width = 767;
},
{
associatedMasterId = "3B040282-CF47-4846-BCAF-7BFF90FB63BC";
layerId = "2A80C341-46E9-4143-9C63-5B5BDCDFAEC7";
name = bubble;
paths = (
{
closed = 1;
nodes = (
"623 0 LINE",
"461 343 LINE",
"624 687 LINE",
"1 687 LINE",
"163 343 LINE",
"0 0 LINE"
);
}
);
width = 624;
}
);
leftKerningGroup = X;
rightKerningGroup = X;
unicode = 0058;
},
{
glyphname = Y;
lastChange = "2019-04-06 02:11:31 +0000";
layers = (
{
anchors = (
{
name = top;
position = "{337, 687}";
}
);
layerId = "35616FF6-3D9C-499B-B113-AC9E0DB5842A";
paths = (
{
closed = 1;
nodes = (
"378 0 LINE",
"378 280 LINE",
"654 687 LINE",
"560 687 LINE",
"337 354 LINE",
"116 687 LINE",
"19 687 LINE",
"296 280 LINE",
"296 0 LINE"
);
}
);
width = 673;
},
{
anchors = (
{
name = top;
position = "{386, 687}";
}
);
layerId = "A0D976AB-773B-4D3A-9F7E-7A0C42AF1E7B";
paths = (
{
closed = 1;
nodes = (
"483 0 LINE",
"483 226 LINE",
"746 687 LINE",
"533 687 LINE",
"386 408 LINE",
"247 687 LINE",
"25 687 LINE",
"289 226 LINE",
"289 0 LINE"
);
}
);
width = 771;
},
{
anchors = (
{
name = top;
position = "{300, 687}";
}
);
layerId = "3B040282-CF47-4846-BCAF-7BFF90FB63BC";
paths = (
{
closed = 1;
nodes = (
"318 0 LINE",
"318 279 LINE",
"598 687 LINE",
"552 687 LINE",
"300 320 LINE",
"48 687 LINE",
"2 687 LINE",
"282 279 LINE",
"282 0 LINE"
);
}
);
width = 600;
},
{
anchors = (
{
name = top;
position = "{386, 687}";
}
);
associatedMasterId = "A0D976AB-773B-4D3A-9F7E-7A0C42AF1E7B";
layerId = "89BC030D-31B3-4132-91AE-B52293F90B3E";
name = bubble;
paths = (
{
closed = 1;
nodes = (
"603 0 LINE",
"603 221 LINE",
"771 687 LINE",
"0 687 LINE",
"169 221 LINE",
"169 0 LINE"
);
}
);
width = 771;
},
{
anchors = (
{
name = top;
position = "{337, 687}";
}
);
associatedMasterId = "35616FF6-3D9C-499B-B113-AC9E0DB5842A";
layerId = "18E0D132-B724-4D86-A0A6-E3FCB2614DC5";
name = bubble;
paths = (
{
closed = 1;
nodes = (
"498 0 LINE",
"498 274 LINE",
"673 687 LINE",
"0 687 LINE",
"176 274 LINE",
"176 0 LINE"
);
}
);
width = 673;
},
{
anchors = (
{
name = top;
position = "{300, 687}";
}
);
associatedMasterId = "3B040282-CF47-4846-BCAF-7BFF90FB63BC";
layerId = "32B6E9B7-E3E7-4EE6-BCE9-C07F134D9BDC";
name = bubble;
paths = (
{
closed = 1;
nodes = (
"433 -15 LINE",
"433 274 LINE",
"600 687 LINE",
"0 687 LINE",
"167 274 LINE",
"167 -15 LINE"
);
}
);
width = 600;
}
);
leftKerningGroup = Y;
rightKerningGroup = Y;
unicode = 0059;
},
{
color = 1;
glyphname = Z;
lastChange = "2019-04-06 02:14:20 +0000";
layers = (
{
anchors = (
{
name = top;
position = "{308, 687}";
}
);
layerId = "35616FF6-3D9C-499B-B113-AC9E0DB5842A";
paths = (
{
closed = 1;
nodes = (
"569 0 LINE",
"569 74 LINE",
"150 74 LINE",
"565 625 LINE",
"565 687 LINE",
"51 687 LINE",
"51 613 LINE",
"458 613 LINE",
"44 62 LINE",
"44 0 LINE"
);
}
);
width = 613;
},
{
anchors = (
{
name = top;
position = "{350, 687}";
}
);
layerId = "A0D976AB-773B-4D3A-9F7E-7A0C42AF1E7B";
paths = (
{
closed = 1;
nodes = (
"644 0 LINE",
"644 173 LINE",
"315 173 LINE",
"639 542 LINE",
"639 687 LINE",
"55 687 LINE",
"55 514 LINE",
"373 514 LINE",
"47 145 LINE",
"48 0 LINE"
);
}
);
width = 692;
},
{
anchors = (
{
name = top;
position = "{286, 687}";
}
);
layerId = "3B040282-CF47-4846-BCAF-7BFF90FB63BC";
paths = (
{
closed = 1;
nodes = (
"538 0 LINE",
"538 36 LINE",
"77 36 LINE",
"534 657 LINE",
"534 687 LINE",
"40 687 LINE",
"40 651 LINE",
"490 651 LINE",
"33 30 LINE",
"33 0 LINE"
);
}
);
width = 572;
},
{
anchors = (
{
name = top;
position = "{350, 687}";
}
);
associatedMasterId = "A0D976AB-773B-4D3A-9F7E-7A0C42AF1E7B";
layerId = "AA108EAD-6965-4D1D-8FD1-75990BA1D8B4";
name = bubble;
paths = (
{
closed = 1;
nodes = (
"692 0 LINE",
"692 220 LINE",
"419 220 LINE",
"686 524 LINE",
"686 687 LINE",
"8 687 LINE",
"8 467 LINE",
"269 467 LINE",
"0 163 LINE",
"1 0 LINE"
);
}
);
width = 692;
},
{
anchors = (
{
name = top;
position = "{308, 687}";
}
);
associatedMasterId = "35616FF6-3D9C-499B-B113-AC9E0DB5842A";
layerId = "D9418302-C332-41E9-BCC3-E1FF77FAD512";
name = bubble;
paths = (
{
closed = 1;
nodes = (
"613 0 LINE",
"613 118 LINE",
"238 118 LINE",
"609 610 LINE",
"609 687 LINE",
"7 687 LINE",
"7 569 LINE",
"370 569 LINE",
"0 77 LINE",
"0 0 LINE"
);
}
);
width = 613;
},
{
anchors = (
{
name = top;
position = "{286, 687}";
}
);
associatedMasterId = "3B040282-CF47-4846-BCAF-7BFF90FB63BC";
layerId = "EBF105AC-60F0-4C50-881F-33EF065141BC";
name = bubble;
paths = (
{
closed = 1;
nodes = (
"572 0 LINE",
"572 69 LINE",
"142 69 LINE",
"567 646 LINE",
"567 687 LINE",
"7 687 LINE",
"7 618 LINE",
"425 618 LINE",
"0 41 LINE",
"0 0 LINE"
);
}
);
width = 572;
}
);
leftKerningGroup = Z;
rightKerningGroup = Z;
unicode = 005A;
},
{
color = 1;
glyphname = a;
lastChange = "2019-03-31 02:28:56 +0000";
layers = (
{
anchors = (
{
name = bottom;
position = "{482, 0}";
},
{
name = top;
position = "{272, 517}";
}
);
layerId = "35616FF6-3D9C-499B-B113-AC9E0DB5842A";
paths = (
{
closed = 1;
nodes = (
"482 0 LINE",
"482 315 LINE SMOOTH",
"482 440 OFFCURVE",
"413 529 OFFCURVE",
"272 529 CURVE SMOOTH",
"222 529 OFFCURVE",
"160 516 OFFCURVE",
"86 479 CURVE",
"116 418 LINE",
"163 442 OFFCURVE",
"215 465 OFFCURVE",
"267 465 CURVE SMOOTH",
"379 465 OFFCURVE",
"407 385 OFFCURVE",
"407 315 CURVE SMOOTH",
"407 0 LINE"
);
},
{
closed = 1;
nodes = (
"307 -12 OFFCURVE",
"403 35 OFFCURVE",
"424 123 CURVE",
"407 162 LINE",
"387 89 OFFCURVE",
"306 54 OFFCURVE",
"238 54 CURVE SMOOTH",
"165 54 OFFCURVE",
"109 92 OFFCURVE",
"109 156 CURVE SMOOTH",
"109 218 OFFCURVE",
"174 262 OFFCURVE",
"251 262 CURVE SMOOTH",
"321 262 OFFCURVE",
"385 250 OFFCURVE",
"440 230 CURVE",
"440 284 LINE",
"379 308 OFFCURVE",
"307 325 OFFCURVE",
"239 325 CURVE SMOOTH",
"128 325 OFFCURVE",
"36 256 OFFCURVE",
"36 153 CURVE SMOOTH",
"36 51 OFFCURVE",
"116 -12 OFFCURVE",
"225 -12 CURVE SMOOTH"
);
}
);
width = 557;
},
{
anchors = (
{
name = bottom;
position = "{538, 0}";
},
{
name = top;
position = "{299, 517}";
}
);
layerId = "A0D976AB-773B-4D3A-9F7E-7A0C42AF1E7B";
paths = (
{
closed = 1;
nodes = (
"538 0 LINE",
"538 305 LINE SMOOTH",
"538 446 OFFCURVE",
"430 529 OFFCURVE",
"299 529 CURVE SMOOTH",
"212 529 OFFCURVE",
"135 504 OFFCURVE",
"63 468 CURVE",
"124 347 LINE",
"162 366 OFFCURVE",
"202 376 OFFCURVE",
"247 376 CURVE SMOOTH",
"314 376 OFFCURVE",
"353 350 OFFCURVE",
"353 305 CURVE SMOOTH",
"353 0 LINE"
);
},
{
closed = 1;
nodes = (
"300 -12 OFFCURVE",
"379 34 OFFCURVE",
"399 113 CURVE",
"353 163 LINE",
"349 133 OFFCURVE",
"314 112 OFFCURVE",
"267 112 CURVE SMOOTH",
"232 112 OFFCURVE",
"206 131 OFFCURVE",
"206 158 CURVE SMOOTH",
"206 187 OFFCURVE",
"234 208 OFFCURVE",
"271 208 CURVE SMOOTH",
"301 208 OFFCURVE",
"331 201 OFFCURVE",
"354 188 CURVE",
"405 274 LINE",
"354 308 OFFCURVE",
"294 325 OFFCURVE",
"244 325 CURVE SMOOTH",
"119 325 OFFCURVE",
"23 254 OFFCURVE",
"23 153 CURVE SMOOTH",
"23 56 OFFCURVE",
"109 -12 OFFCURVE",
"220 -12 CURVE SMOOTH"
);
}
);
width = 586;
},
{
anchors = (
{
name = bottom;
position = "{469, 0}";
},
{
name = top;
position = "{270, 517}";
}
);
layerId = "3B040282-CF47-4846-BCAF-7BFF90FB63BC";
paths = (
{
closed = 1;
nodes = (
"469 0 LINE",
"469 315 LINE SMOOTH",
"469 440 OFFCURVE",
"394 529 OFFCURVE",
"270 529 CURVE SMOOTH",
"216 529 OFFCURVE",
"149 512 OFFCURVE",
"92 479 CURVE",
"107 448 LINE",
"155 477 OFFCURVE",
"213 493 OFFCURVE",
"265 493 CURVE SMOOTH",
"388 493 OFFCURVE",
"433 402 OFFCURVE",
"433 315 CURVE SMOOTH",
"433 0 LINE"
);
},
{
closed = 1;
nodes = (
"317 -12 OFFCURVE",
"429 36 OFFCURVE",
"450 123 CURVE",
"433 162 LINE",
"413 69 OFFCURVE",
"311 24 OFFCURVE",
"232 24 CURVE SMOOTH",
"146 24 OFFCURVE",
"78 78 OFFCURVE",
"78 155 CURVE SMOOTH",
"78 233 OFFCURVE",
"149 289 OFFCURVE",
"254 289 CURVE SMOOTH",
"319 289 OFFCURVE",
"391 268 OFFCURVE",
"446 248 CURVE",
"446 284 LINE",
"385 308 OFFCURVE",
"311 325 OFFCURVE",
"250 325 CURVE SMOOTH",
"125 325 OFFCURVE",
"42 254 OFFCURVE",
"42 154 CURVE SMOOTH",
"42 56 OFFCURVE",
"121 -12 OFFCURVE",
"228 -12 CURVE SMOOTH"
);
}
);
width = 553;
},
{
anchors = (
{
name = bottom;
position = "{469, 0}";
},
{
name = top;
position = "{270, 517}";
}
);
associatedMasterId = "3B040282-CF47-4846-BCAF-7BFF90FB63BC";
layerId = "B484CD4F-744F-4A71-805C-02B47C267A3A";
name = bubble;
paths = (
{
closed = 1;
nodes = (
"295 -54 OFFCURVE",
"358 -34 OFFCURVE",
"407 0 CURVE",
"553 0 LINE",
"553 315 LINE SMOOTH",
"553 490 OFFCURVE",
"437 613 OFFCURVE",
"270 613 CURVE SMOOTH",
"199 613 OFFCURVE",
"115 590 OFFCURVE",
"50 552 CURVE",
"162 355 LINE",
"64 327 OFFCURVE",
"0 252 OFFCURVE",
"0 154 CURVE SMOOTH",
"0 34 OFFCURVE",
"97 -54 OFFCURVE",
"228 -54 CURVE SMOOTH"
);
}
);
width = 553;
},
{
anchors = (
{
name = bottom;
position = "{461, 0}";
},
{
name = top;
position = "{251, 517}";
}
);
associatedMasterId = "35616FF6-3D9C-499B-B113-AC9E0DB5842A";
layerId = "BCD91F96-DA5B-473A-85E8-5DC0E7A68144";
name = bubble;
paths = (
{
closed = 1;
nodes = (
"282 -48 OFFCURVE",
"337 -30 OFFCURVE",
"379 0 CURVE",
"557 0 LINE",
"557 315 LINE SMOOTH",
"557 490 OFFCURVE",
"446 604 OFFCURVE",
"272 604 CURVE SMOOTH",
"204 604 OFFCURVE",
"128 584 OFFCURVE",
"52 546 CURVE",
"152 348 LINE",
"61 319 OFFCURVE",
"0 245 OFFCURVE",
"0 153 CURVE SMOOTH",
"0 34 OFFCURVE",
"92 -48 OFFCURVE",
"225 -48 CURVE SMOOTH"
);
}
);
width = 557;
},
{
anchors = (
{
name = bottom;
position = "{538, 0}";
},
{
name = top;
position = "{299, 517}";
}
);
associatedMasterId = "A0D976AB-773B-4D3A-9F7E-7A0C42AF1E7B";
layerId = "A02EB06D-5945-4FCD-8A04-A6D1D5ABA265";
name = bubble;
paths = (
{
closed = 1;
nodes = (
"266 -35 OFFCURVE",
"308 -22 OFFCURVE",
"342 0 CURVE",
"586 0 LINE",
"586 305 LINE SMOOTH",
"586 464 OFFCURVE",
"466 577 OFFCURVE",
"299 577 CURVE SMOOTH",
"215 577 OFFCURVE",
"130 555 OFFCURVE",
"42 511 CURVE",
"133 329 LINE",
"53 298 OFFCURVE",
"0 233 OFFCURVE",
"0 153 CURVE SMOOTH",
"0 45 OFFCURVE",
"95 -35 OFFCURVE",
"220 -35 CURVE SMOOTH"
);
}
);
width = 586;
}
);
leftKerningGroup = a;
rightKerningGroup = a;
unicode = 0061;
},
{
color = 1;
glyphname = ae;
lastChange = "2019-04-07 00:00:02 +0000";
layers = (
{
anchors = (
{
name = bottom;
position = "{686, -12}";
},
{
name = top;
position = "{686, 517}";
}
);
layerId = "3B040282-CF47-4846-BCAF-7BFF90FB63BC";
paths = (
{
closed = 1;
nodes = (
"346 -12 OFFCURVE",
"429 49 OFFCURVE",
"458 143 CURVE",
"499 52 OFFCURVE",
"587 -12 OFFCURVE",
"686 -12 CURVE SMOOTH",
"769 -12 OFFCURVE",
"859 21 OFFCURVE",
"902 68 CURVE",
"877 95 LINE",
"834 48 OFFCURVE",
"760 24 OFFCURVE",
"686 24 CURVE SMOOTH",
"568 24 OFFCURVE",
"468 132 OFFCURVE",
"468 260 CURVE SMOOTH",
"468 390 OFFCURVE",
"564 493 OFFCURVE",
"686 493 CURVE SMOOTH",
"812 493 OFFCURVE",
"895 401 OFFCURVE",
"896 265 CURVE",
"912 278 LINE",
"453 278 LINE",
"453 242 LINE",
"932 242 LINE",
"932 414 OFFCURVE",
"834 529 OFFCURVE",
"686 529 CURVE SMOOTH",
"586 529 OFFCURVE",
"501 471 OFFCURVE",
"460 384 CURVE",
"437 471 OFFCURVE",
"369 529 OFFCURVE",
"269 529 CURVE SMOOTH",
"215 529 OFFCURVE",
"148 512 OFFCURVE",
"91 479 CURVE",
"106 448 LINE",
"154 477 OFFCURVE",
"212 493 OFFCURVE",
"264 493 CURVE SMOOTH",
"387 493 OFFCURVE",
"432 402 OFFCURVE",
"432 315 CURVE SMOOTH",
"432 289 LINE",
"374 310 OFFCURVE",
"306 325 OFFCURVE",
"249 325 CURVE SMOOTH",
"124 325 OFFCURVE",
"41 254 OFFCURVE",
"41 154 CURVE SMOOTH",
"41 57 OFFCURVE",
"122 -12 OFFCURVE",
"237 -12 CURVE SMOOTH"
);
},
{
closed = 1;
nodes = (
"146 24 OFFCURVE",
"78 78 OFFCURVE",
"78 155 CURVE SMOOTH",
"78 233 OFFCURVE",
"149 289 OFFCURVE",
"254 289 CURVE SMOOTH",
"314 289 OFFCURVE",
"380 271 OFFCURVE",
"433 253 CURVE",
"433 162 LINE",
"413 69 OFFCURVE",
"311 24 OFFCURVE",
"232 24 CURVE SMOOTH"
);
}
);
width = 975;
},
{
anchors = (
{
name = bottom;
position = "{639, -12}";
},
{
name = top;
position = "{662, 517}";
}
);
layerId = "35616FF6-3D9C-499B-B113-AC9E0DB5842A";
paths = (
{
closed = 1;
nodes = (
"327 -12 OFFCURVE",
"409 37 OFFCURVE",
"452 107 CURVE",
"500 33 OFFCURVE",
"582 -12 OFFCURVE",
"669 -12 CURVE SMOOTH",
"741 -12 OFFCURVE",
"832 19 OFFCURVE",
"877 68 CURVE",
"831 117 LINE",
"799 82 OFFCURVE",
"729 55 OFFCURVE",
"668 55 CURVE SMOOTH",
"556 55 OFFCURVE",
"482 144 OFFCURVE",
"482 260 CURVE SMOOTH",
"482 380 OFFCURVE",
"562 462 OFFCURVE",
"665 462 CURVE SMOOTH",
"777 462 OFFCURVE",
"832 377 OFFCURVE",
"835 273 CURVE",
"867 297 LINE",
"458 297 LINE",
"458 230 LINE",
"907 230 LINE",
"907 411 OFFCURVE",
"818 529 OFFCURVE",
"662 529 CURVE SMOOTH",
"580 529 OFFCURVE",
"506 489 OFFCURVE",
"459 425 CURVE",
"429 489 OFFCURVE",
"367 529 OFFCURVE",
"272 529 CURVE SMOOTH",
"222 529 OFFCURVE",
"160 516 OFFCURVE",
"86 479 CURVE",
"116 418 LINE",
"163 442 OFFCURVE",
"215 465 OFFCURVE",
"267 465 CURVE SMOOTH",
"379 465 OFFCURVE",
"407 385 OFFCURVE",
"407 315 CURVE SMOOTH",
"407 296 LINE",
"354 313 OFFCURVE",
"295 325 OFFCURVE",
"239 325 CURVE SMOOTH",
"128 325 OFFCURVE",
"36 256 OFFCURVE",
"36 153 CURVE SMOOTH",
"36 49 OFFCURVE",
"110 -12 OFFCURVE",
"235 -12 CURVE SMOOTH"
);
},
{
closed = 1;
nodes = (
"165 54 OFFCURVE",
"109 92 OFFCURVE",
"109 156 CURVE SMOOTH",
"109 218 OFFCURVE",
"174 262 OFFCURVE",
"251 262 CURVE SMOOTH",
"307 262 OFFCURVE",
"360 254 OFFCURVE",
"407 241 CURVE",
"407 162 LINE",
"387 89 OFFCURVE",
"306 54 OFFCURVE",
"238 54 CURVE SMOOTH"
);
}
);
width = 946;
},
{
anchors = (
{
name = bottom;
position = "{641, -12}";
},
{
name = top;
position = "{633, 517}";
}
);
layerId = "A0D976AB-773B-4D3A-9F7E-7A0C42AF1E7B";
paths = (
{
closed = 1;
nodes = (
"338 -12 OFFCURVE",
"404 12 OFFCURVE",
"444 57 CURVE",
"494 13 OFFCURVE",
"563 -12 OFFCURVE",
"641 -12 CURVE SMOOTH",
"720 -12 OFFCURVE",
"808 21 OFFCURVE",
"854 68 CURVE",
"748 175 LINE",
"714 148 OFFCURVE",
"672 132 OFFCURVE",
"633 132 CURVE SMOOTH",
"570 132 OFFCURVE",
"530 185 OFFCURVE",
"530 259 CURVE SMOOTH",
"530 333 OFFCURVE",
"570 385 OFFCURVE",
"633 385 CURVE SMOOTH",
"695 385 OFFCURVE",
"730 325 OFFCURVE",
"721 246 CURVE",
"800 314 LINE",
"414 314 LINE",
"414 213 LINE",
"902 213 LINE",
"902 412 OFFCURVE",
"799 529 OFFCURVE",
"633 529 CURVE SMOOTH",
"559 529 OFFCURVE",
"494 505 OFFCURVE",
"445 464 CURVE",
"408 505 OFFCURVE",
"350 529 OFFCURVE",
"281 529 CURVE SMOOTH",
"194 529 OFFCURVE",
"137 504 OFFCURVE",
"65 468 CURVE",
"126 347 LINE",
"164 366 OFFCURVE",
"204 376 OFFCURVE",
"249 376 CURVE SMOOTH",
"316 376 OFFCURVE",
"355 350 OFFCURVE",
"355 305 CURVE SMOOTH",
"355 302 LINE",
"318 317 OFFCURVE",
"280 325 OFFCURVE",
"246 325 CURVE SMOOTH",
"121 325 OFFCURVE",
"23 254 OFFCURVE",
"23 153 CURVE SMOOTH",
"23 56 OFFCURVE",
"118 -12 OFFCURVE",
"252 -12 CURVE SMOOTH"
);
},
{
closed = 1;
nodes = (
"232 112 OFFCURVE",
"206 131 OFFCURVE",
"206 158 CURVE SMOOTH",
"206 187 OFFCURVE",
"234 208 OFFCURVE",
"271 208 CURVE SMOOTH",
"301 208 OFFCURVE",
"330 201 OFFCURVE",
"353 189 CURVE",
"353 163 LINE",
"349 133 OFFCURVE",
"314 112 OFFCURVE",
"267 112 CURVE SMOOTH"
);
}
);
width = 925;
},
{
associatedMasterId = "A0D976AB-773B-4D3A-9F7E-7A0C42AF1E7B";
layerId = "3E708985-D266-4659-A17A-FF03D02194DE";
name = bubble;
paths = (
{
closed = 1;
nodes = (
"333 -35 OFFCURVE",
"401 -14 OFFCURVE",
"446 26 CURVE",
"498 -13 OFFCURVE",
"567 -35 OFFCURVE",
"641 -35 CURVE SMOOTH",
"725 -35 OFFCURVE",
"819 1 OFFCURVE",
"869 51 CURVE",
"733 190 LINE",
"925 190 LINE",
"933 413 OFFCURVE",
"821 552 OFFCURVE",
"633 552 CURVE SMOOTH",
"564 552 OFFCURVE",
"499 532 OFFCURVE",
"447 494 CURVE",
"405 531 OFFCURVE",
"346 552 OFFCURVE",
"281 552 CURVE SMOOTH",
"190 552 OFFCURVE",
"128 525 OFFCURVE",
"55 489 CURVE",
"135 329 LINE",
"53 298 OFFCURVE",
"0 233 OFFCURVE",
"0 153 CURVE SMOOTH",
"0 42 OFFCURVE",
"105 -35 OFFCURVE",
"252 -35 CURVE SMOOTH"
);
}
);
width = 925;
},
{
associatedMasterId = "35616FF6-3D9C-499B-B113-AC9E0DB5842A";
layerId = "E7AB4B10-547A-4A06-8E00-5B15ABC6487E";
name = bubble;
paths = (
{
closed = 1;
nodes = (
"318 -49 OFFCURVE",
"398 -13 OFFCURVE",
"452 46 CURVE",
"508 -14 OFFCURVE",
"587 -49 OFFCURVE",
"669 -49 CURVE SMOOTH",
"755 -49 OFFCURVE",
"852 -12 OFFCURVE",
"902 40 CURVE",
"761 193 LINE",
"946 193 LINE",
"946 420 OFFCURVE",
"846 566 OFFCURVE",
"662 566 CURVE SMOOTH",
"588 566 OFFCURVE",
"517 537 OFFCURVE",
"464 486 CURVE",
"421 538 OFFCURVE",
"354 566 OFFCURVE",
"272 566 CURVE SMOOTH",
"211 566 OFFCURVE",
"140 547 OFFCURVE",
"69 512 CURVE",
"151 349 LINE",
"61 319 OFFCURVE",
"0 245 OFFCURVE",
"0 153 CURVE SMOOTH",
"0 28 OFFCURVE",
"90 -49 OFFCURVE",
"235 -49 CURVE SMOOTH"
);
}
);
width = 946;
},
{
associatedMasterId = "3B040282-CF47-4846-BCAF-7BFF90FB63BC";
layerId = "3FDF3636-A72E-4475-90FA-BC10F0094772";
name = bubble;
paths = (
{
closed = 1;
nodes = (
"332 -54 OFFCURVE",
"413 -13 OFFCURVE",
"462 57 CURVE",
"518 -12 OFFCURVE",
"600 -54 OFFCURVE",
"686 -54 CURVE SMOOTH",
"779 -54 OFFCURVE",
"879 -17 OFFCURVE",
"930 37 CURVE",
"780 200 LINE",
"975 200 LINE",
"975 418 OFFCURVE",
"890 571 OFFCURVE",
"696 571 CURVE SMOOTH",
"610 571 OFFCURVE",
"521 534 OFFCURVE",
"467 471 CURVE",
"424 534 OFFCURVE",
"354 571 OFFCURVE",
"269 571 CURVE SMOOTH",
"205 571 OFFCURVE",
"129 550 OFFCURVE",
"70 515 CURVE",
"161 355 LINE",
"63 327 OFFCURVE",
"0 252 OFFCURVE",
"0 154 CURVE SMOOTH",
"0 33 OFFCURVE",
"99 -54 OFFCURVE",
"237 -54 CURVE SMOOTH"
);
}
);
width = 975;
}
);
leftKerningGroup = a;
rightKerningGroup = e;
unicode = 00E6;
},
{
color = 1;
glyphname = b;
lastChange = "2019-03-30 06:45:14 +0000";
layers = (
{
layerId = "35616FF6-3D9C-499B-B113-AC9E0DB5842A";
paths = (
{
closed = 1;
nodes = (
"486 -12 OFFCURVE",
"588 100 OFFCURVE",
"588 259 CURVE SMOOTH",
"588 417 OFFCURVE",
"486 529 OFFCURVE",
"350 529 CURVE SMOOTH",
"213 529 OFFCURVE",
"123 417 OFFCURVE",
"123 259 CURVE SMOOTH",
"123 100 OFFCURVE",
"213 -12 OFFCURVE",
"350 -12 CURVE SMOOTH"
);
},
{
closed = 1;
nodes = (
"234 55 OFFCURVE",
"162 140 OFFCURVE",
"162 259 CURVE SMOOTH",
"162 378 OFFCURVE",
"234 462 OFFCURVE",
"336 462 CURVE SMOOTH",
"437 462 OFFCURVE",
"509 378 OFFCURVE",
"509 259 CURVE SMOOTH",
"509 140 OFFCURVE",
"437 55 OFFCURVE",
"336 55 CURVE SMOOTH"
);
},
{
closed = 1;
nodes = (
"162 0 LINE",
"162 699 LINE",
"87 699 LINE",
"87 0 LINE"
);
}
);
width = 635;
},
{
layerId = "A0D976AB-773B-4D3A-9F7E-7A0C42AF1E7B";
paths = (
{
closed = 1;
nodes = (
"556 -12 OFFCURVE",
"654 100 OFFCURVE",
"654 259 CURVE SMOOTH",
"654 417 OFFCURVE",
"556 529 OFFCURVE",
"417 529 CURVE SMOOTH",
"281 529 OFFCURVE",
"184 417 OFFCURVE",
"184 259 CURVE SMOOTH",
"184 100 OFFCURVE",
"281 -12 OFFCURVE",
"417 -12 CURVE SMOOTH"
);
},
{
closed = 1;
nodes = (
"295 148 OFFCURVE",
"252 194 OFFCURVE",
"252 259 CURVE SMOOTH",
"252 323 OFFCURVE",
"295 369 OFFCURVE",
"356 369 CURVE SMOOTH",
"423 369 OFFCURVE",
"470 323 OFFCURVE",
"470 259 CURVE SMOOTH",
"470 194 OFFCURVE",
"423 148 OFFCURVE",
"356 148 CURVE SMOOTH"
);
},
{
closed = 1;
nodes = (
"252 0 LINE",
"252 699 LINE",
"59 699 LINE",
"59 0 LINE"
);
}
);
width = 685;
},
{
layerId = "3B040282-CF47-4846-BCAF-7BFF90FB63BC";
paths = (
{
closed = 1;
nodes = (
"467 -12 OFFCURVE",
"573 112 OFFCURVE",
"573 259 CURVE SMOOTH",
"573 406 OFFCURVE",
"467 529 OFFCURVE",
"341 529 CURVE SMOOTH",
"200 529 OFFCURVE",
"101 417 OFFCURVE",
"101 259 CURVE SMOOTH",
"101 100 OFFCURVE",
"200 -12 OFFCURVE",
"341 -12 CURVE SMOOTH"
);
},
{
closed = 1;
nodes = (
"219 24 OFFCURVE",
"137 121 OFFCURVE",
"137 259 CURVE SMOOTH",
"137 396 OFFCURVE",
"219 493 OFFCURVE",
"334 493 CURVE SMOOTH",
"444 493 OFFCURVE",
"537 386 OFFCURVE",
"537 259 CURVE SMOOTH",
"537 131 OFFCURVE",
"444 24 OFFCURVE",
"334 24 CURVE SMOOTH"
);
},
{
closed = 1;
nodes = (
"137 0 LINE",
"137 699 LINE",
"101 699 LINE",
"101 0 LINE"
);
}
);
width = 621;
},
{
associatedMasterId = "35616FF6-3D9C-499B-B113-AC9E0DB5842A";
layerId = "E6F6FB8F-27C1-4064-8A1C-C2D237DAE1EF";
name = bubble;
paths = (
{
closed = 1;
nodes = (
"514 -59 OFFCURVE",
"635 77 OFFCURVE",
"635 259 CURVE SMOOTH",
"635 441 OFFCURVE",
"514 576 OFFCURVE",
"350 576 CURVE SMOOTH",
"298 576 OFFCURVE",
"250 562 OFFCURVE",
"209 536 CURVE",
"209 699 LINE",
"0 699 LINE",
"0 0 LINE",
"183 0 LINE",
"230 -38 OFFCURVE",
"286 -59 OFFCURVE",
"350 -59 CURVE SMOOTH"
);
}
);
width = 635;
},
{
associatedMasterId = "3B040282-CF47-4846-BCAF-7BFF90FB63BC";
layerId = "096D5C82-448E-4158-BD1C-4AD62D385E55";
name = bubble;
paths = (
{
closed = 1;
nodes = (
"494 -60 OFFCURVE",
"621 86 OFFCURVE",
"621 259 CURVE SMOOTH",
"621 432 OFFCURVE",
"494 577 OFFCURVE",
"341 577 CURVE SMOOTH",
"283 577 OFFCURVE",
"230 561 OFFCURVE",
"185 531 CURVE",
"185 699 LINE",
"0 699 LINE",
"0 0 LINE",
"165 0 LINE",
"214 -40 OFFCURVE",
"274 -60 OFFCURVE",
"341 -60 CURVE SMOOTH"
);
}
);
width = 621;
},
{
associatedMasterId = "A0D976AB-773B-4D3A-9F7E-7A0C42AF1E7B";
layerId = "BC837DEB-5974-4156-A9C2-0B1938453DC7";
name = bubble;
paths = (
{
closed = 1;
nodes = (
"574 -43 OFFCURVE",
"685 83 OFFCURVE",
"685 259 CURVE SMOOTH",
"685 434 OFFCURVE",
"573 560 OFFCURVE",
"417 560 CURVE SMOOTH",
"367 560 OFFCURVE",
"322 547 OFFCURVE",
"283 523 CURVE",
"283 699 LINE",
"0 699 LINE",
"0 0 LINE",
"273 0 LINE",
"314 -28 OFFCURVE",
"363 -43 OFFCURVE",
"417 -43 CURVE SMOOTH"
);
}
);
width = 685;
}
);
leftKerningGroup = b;
rightKerningGroup = b;
unicode = 0062;
},
{
color = 1;
glyphname = c;
lastChange = "2019-03-30 06:45:14 +0000";
layers = (
{
anchors = (
{
name = bottom;
position = "{299, 0}";
},
{
name = top;
position = "{289, 517}";
}
);
layerId = "35616FF6-3D9C-499B-B113-AC9E0DB5842A";
paths = (
{
closed = 1;
nodes = (
"381 -12 OFFCURVE",
"447 18 OFFCURVE",
"496 67 CURVE",
"444 118 LINE",
"409 79 OFFCURVE",
"361 55 OFFCURVE",
"309 55 CURVE SMOOTH",
"206 55 OFFCURVE",
"120 148 OFFCURVE",
"120 259 CURVE SMOOTH",
"120 369 OFFCURVE",
"206 462 OFFCURVE",
"309 462 CURVE SMOOTH",
"360 462 OFFCURVE",
"407 439 OFFCURVE",
"441 402 CURVE",
"493 453 LINE",
"444 500 OFFCURVE",
"379 529 OFFCURVE",
"309 529 CURVE SMOOTH",
"164 529 OFFCURVE",
"41 406 OFFCURVE",
"41 259 CURVE SMOOTH",
"41 112 OFFCURVE",
"164 -12 OFFCURVE",
"309 -12 CURVE SMOOTH"
);
}
);
width = 519;
},
{
anchors = (
{
name = bottom;
position = "{309, 0}";
},
{
name = top;
position = "{299, 517}";
}
);
layerId = "A0D976AB-773B-4D3A-9F7E-7A0C42AF1E7B";
paths = (
{
closed = 1;
nodes = (
"414 -12 OFFCURVE",
"487 27 OFFCURVE",
"539 87 CURVE",
"412 189 LINE",
"391 165 OFFCURVE",
"353 148 OFFCURVE",
"320 148 CURVE SMOOTH",
"261 148 OFFCURVE",
"212 199 OFFCURVE",
"212 260 CURVE SMOOTH",
"212 319 OFFCURVE",
"261 369 OFFCURVE",
"319 369 CURVE SMOOTH",
"352 369 OFFCURVE",
"389 352 OFFCURVE",
"409 329 CURVE",
"536 433 LINE",
"486 491 OFFCURVE",
"413 529 OFFCURVE",
"321 529 CURVE SMOOTH",
"162 529 OFFCURVE",
"28 406 OFFCURVE",
"28 259 CURVE SMOOTH",
"28 112 OFFCURVE",
"161 -12 OFFCURVE",
"318 -12 CURVE SMOOTH"
);
}
);
width = 557;
},
{
anchors = (
{
name = bottom;
position = "{298, 0}";
},
{
name = top;
position = "{288, 517}";
}
);
layerId = "3B040282-CF47-4846-BCAF-7BFF90FB63BC";
paths = (
{
closed = 1;
nodes = (
"374 -12 OFFCURVE",
"437 17 OFFCURVE",
"483 64 CURVE",
"458 89 LINE",
"418 49 OFFCURVE",
"364 24 OFFCURVE",
"306 24 CURVE SMOOTH",
"176 24 OFFCURVE",
"84 121 OFFCURVE",
"84 259 CURVE SMOOTH",
"84 396 OFFCURVE",
"176 493 OFFCURVE",
"306 493 CURVE SMOOTH",
"364 493 OFFCURVE",
"418 468 OFFCURVE",
"457 428 CURVE",
"483 453 LINE",
"437 500 OFFCURVE",
"374 529 OFFCURVE",
"306 529 CURVE SMOOTH",
"155 529 OFFCURVE",
"48 417 OFFCURVE",
"48 259 CURVE SMOOTH",
"48 100 OFFCURVE",
"155 -12 OFFCURVE",
"306 -12 CURVE SMOOTH"
);
}
);
width = 507;
},
{
anchors = (
{
name = bottom;
position = "{298, 0}";
},
{
name = top;
position = "{288, 517}";
}
);
associatedMasterId = "3B040282-CF47-4846-BCAF-7BFF90FB63BC";
layerId = "DCF41AAA-6B10-4EF5-8D3B-1869DC8CA8F6";
name = bubble;
paths = (
{
closed = 1;
nodes = (
"387.724 -57 OFFCURVE",
"455.099 -33.804 OFFCURVE",
"507 7.012 CURVE",
"507 510.064 LINE",
"455.099 550.804 OFFCURVE",
"387.724 574 OFFCURVE",
"310 574 CURVE SMOOTH",
"126 574 OFFCURVE",
"0 444 OFFCURVE",
"0 259 CURVE SMOOTH",
"0 73 OFFCURVE",
"126 -57 OFFCURVE",
"310 -57 CURVE SMOOTH"
);
}
);
width = 507;
},
{
anchors = (
{
name = bottom;
position = "{299, 0}";
},
{
name = top;
position = "{289, 517}";
}
);
associatedMasterId = "35616FF6-3D9C-499B-B113-AC9E0DB5842A";
layerId = "FD7D8407-4C92-4EA0-8FE8-7CF6E8E25A2D";
name = bubble;
paths = (
{
closed = 1;
nodes = (
"0 75 OFFCURVE",
"127 -54 OFFCURVE",
"309 -54 CURVE SMOOTH",
"393.098 -54 OFFCURVE",
"465.539 -26.151 OFFCURVE",
"519 22.124 CURVE",
"519 495.323 LINE",
"465.539 543.367 OFFCURVE",
"393.098 571 OFFCURVE",
"309 571 CURVE SMOOTH",
"127 571 OFFCURVE",
"0 443 OFFCURVE",
"0 259 CURVE SMOOTH"
);
}
);
width = 519;
},
{
anchors = (
{
name = bottom;
position = "{309, 0}";
},
{
name = top;
position = "{299, 517}";
}
);
associatedMasterId = "A0D976AB-773B-4D3A-9F7E-7A0C42AF1E7B";
layerId = "0355FE52-A402-4C83-B84C-656F142FEE38";
name = bubble;
paths = (
{
closed = 1;
nodes = (
"418 -40 OFFCURVE",
"500 -7 OFFCURVE",
"557 48 CURVE",
"557 468 LINE",
"500 524 OFFCURVE",
"418 557 OFFCURVE",
"321 557 CURVE SMOOTH",
"132 557 OFFCURVE",
"0 434 OFFCURVE",
"0 259 CURVE SMOOTH",
"0 83 OFFCURVE",
"132 -40 OFFCURVE",
"321 -40 CURVE SMOOTH"
);
}
);
width = 557;
}
);
leftKerningGroup = c;
rightKerningGroup = c;
unicode = 0063;
},
{
color = 1;
glyphname = d;
lastChange = "2019-04-07 02:38:43 +0000";
layers = (
{
layerId = "35616FF6-3D9C-499B-B113-AC9E0DB5842A";
paths = (
{
closed = 1;
nodes = (
"422 -12 OFFCURVE",
"512 100 OFFCURVE",
"512 259 CURVE SMOOTH",
"512 417 OFFCURVE",
"422 529 OFFCURVE",
"285 529 CURVE SMOOTH",
"149 529 OFFCURVE",
"47 417 OFFCURVE",
"47 259 CURVE SMOOTH",
"47 100 OFFCURVE",
"149 -12 OFFCURVE",
"285 -12 CURVE SMOOTH"
);
},
{
closed = 1;
nodes = (
"198 55 OFFCURVE",
"126 140 OFFCURVE",
"126 259 CURVE SMOOTH",
"126 378 OFFCURVE",
"198 462 OFFCURVE",
"299 462 CURVE SMOOTH",
"401 462 OFFCURVE",
"473 378 OFFCURVE",
"473 259 CURVE SMOOTH",
"473 140 OFFCURVE",
"401 55 OFFCURVE",
"299 55 CURVE SMOOTH"
);
},
{
closed = 1;
nodes = (
"548 0 LINE",
"548 699 LINE",
"473 699 LINE",
"473 0 LINE"
);
}
);
width = 635;
},
{
layerId = "A0D976AB-773B-4D3A-9F7E-7A0C42AF1E7B";
paths = (
{
closed = 1;
nodes = (
"405 -12 OFFCURVE",
"502 100 OFFCURVE",
"502 259 CURVE SMOOTH",
"502 417 OFFCURVE",
"405 529 OFFCURVE",
"269 529 CURVE SMOOTH",
"130 529 OFFCURVE",
"32 417 OFFCURVE",
"32 259 CURVE SMOOTH",
"32 100 OFFCURVE",
"130 -12 OFFCURVE",
"269 -12 CURVE SMOOTH"
);
},
{
closed = 1;
nodes = (
"263 148 OFFCURVE",
"216 194 OFFCURVE",
"216 259 CURVE SMOOTH",
"216 323 OFFCURVE",
"263 369 OFFCURVE",
"330 369 CURVE SMOOTH",
"391 369 OFFCURVE",
"434 323 OFFCURVE",
"434 259 CURVE SMOOTH",
"434 194 OFFCURVE",
"391 148 OFFCURVE",
"330 148 CURVE SMOOTH"
);
},
{
closed = 1;
nodes = (
"627 0 LINE",
"627 699 LINE",
"434 699 LINE",
"434 0 LINE"
);
}
);
width = 686;
},
{
layerId = "3B040282-CF47-4846-BCAF-7BFF90FB63BC";
paths = (
{
closed = 1;
nodes = (
"421 -12 OFFCURVE",
"520 100 OFFCURVE",
"520 259 CURVE SMOOTH",
"520 417 OFFCURVE",
"421 529 OFFCURVE",
"280 529 CURVE SMOOTH",
"154 529 OFFCURVE",
"48 406 OFFCURVE",
"48 259 CURVE SMOOTH",
"48 112 OFFCURVE",
"154 -12 OFFCURVE",
"280 -12 CURVE SMOOTH"
);
},
{
closed = 1;
nodes = (
"177 24 OFFCURVE",
"84 131 OFFCURVE",
"84 259 CURVE SMOOTH",
"84 386 OFFCURVE",
"177 493 OFFCURVE",
"287 493 CURVE SMOOTH",
"402 493 OFFCURVE",
"484 396 OFFCURVE",
"484 259 CURVE SMOOTH",
"484 121 OFFCURVE",
"402 24 OFFCURVE",
"287 24 CURVE SMOOTH"
);
},
{
closed = 1;
nodes = (
"520 0 LINE",
"520 699 LINE",
"484 699 LINE",
"484 0 LINE"
);
}
);
width = 621;
},
{
associatedMasterId = "A0D976AB-773B-4D3A-9F7E-7A0C42AF1E7B";
layerId = "732A3C5A-BD6B-49A1-B2A9-8A7166A6F14F";
name = bubble;
paths = (
{
closed = 1;
nodes = (
"322 -44 OFFCURVE",
"372 -29 OFFCURVE",
"413 0 CURVE",
"686 0 LINE",
"686 699 LINE",
"402 699 LINE",
"402 524 LINE",
"363 548 OFFCURVE",
"317 561 OFFCURVE",
"269 561 CURVE SMOOTH",
"112 561 OFFCURVE",
"0 435 OFFCURVE",
"0 259 CURVE SMOOTH",
"0 83 OFFCURVE",
"112 -44 OFFCURVE",
"269 -44 CURVE SMOOTH"
);
}
);
width = 686;
},
{
associatedMasterId = "35616FF6-3D9C-499B-B113-AC9E0DB5842A";
layerId = "7CDEAF36-E76D-4FBB-8FEC-8C1DD00BB74D";
name = bubble;
paths = (
{
closed = 1;
nodes = (
"349 -59 OFFCURVE",
"405 -38 OFFCURVE",
"452 0 CURVE",
"635 0 LINE",
"635 699 LINE",
"426 699 LINE",
"426 536 LINE",
"385 562 OFFCURVE",
"337 576 OFFCURVE",
"285 576 CURVE SMOOTH",
"121 576 OFFCURVE",
"0 441 OFFCURVE",
"0 259 CURVE SMOOTH",
"0 77 OFFCURVE",
"121 -59 OFFCURVE",
"285 -59 CURVE SMOOTH"
);
}
);
width = 635;
},
{
associatedMasterId = "3B040282-CF47-4846-BCAF-7BFF90FB63BC";
layerId = "2BA19432-F5C4-4775-963B-DC96243F260C";
name = bubble;
paths = (
{
closed = 1;
nodes = (
"348 -60 OFFCURVE",
"408 -38 OFFCURVE",
"455 0 CURVE",
"621 0 LINE",
"621 699 LINE",
"436 699 LINE",
"436 531 LINE",
"392 561 OFFCURVE",
"339 577 OFFCURVE",
"280 577 CURVE SMOOTH",
"127 577 OFFCURVE",
"0 432 OFFCURVE",
"0 259 CURVE SMOOTH",
"0 86 OFFCURVE",
"127 -60 OFFCURVE",
"280 -60 CURVE SMOOTH"
);
}
);
width = 621;
}
);
leftKerningGroup = d;
rightKerningGroup = d;
unicode = 0064;
},
{
color = 1;
glyphname = eth;
lastChange = "2019-04-08 11:35:04 +0000";
layers = (
{
layerId = "3B040282-CF47-4846-BCAF-7BFF90FB63BC";
paths = (
{
closed = 1;
nodes = (
"169 24 OFFCURVE",
"82 116 OFFCURVE",
"82 245 CURVE SMOOTH",
"82 375 OFFCURVE",
"169 467 OFFCURVE",
"292 467 CURVE SMOOTH",
"418 467 OFFCURVE",
"501 377 OFFCURVE",
"501 249 CURVE SMOOTH",
"501 117 OFFCURVE",
"414 24 OFFCURVE",
"291 24 CURVE SMOOTH"
);
},
{
closed = 1;
nodes = (
"412 524 OFFCURVE",
"470 414 CURVE",
"422 479 OFFCURVE",
"357 503 OFFCURVE",
"292 503 CURVE SMOOTH",
"148 503 OFFCURVE",
"46 397 OFFCURVE",
"46 246 CURVE SMOOTH",
"46 95 OFFCURVE",
"148 -12 OFFCURVE",
"292 -12 CURVE SMOOTH",
"436 -12 OFFCURVE",
"537 99 OFFCURVE",
"537 255 CURVE SMOOTH",
"537 440 OFFCURVE",
"385 613 OFFCURVE",
"216 713 CURVE",
"183 696 LINE",
"302 622 OFFCURVE"
);
},
{
closed = 1;
nodes = (
"426 652 LINE",
"411 685 LINE",
"171 578 LINE",
"186 545 LINE"
);
}
);
width = 593;
},
{
layerId = "35616FF6-3D9C-499B-B113-AC9E0DB5842A";
paths = (
{
closed = 1;
nodes = (
"194 56 OFFCURVE",
"121 135 OFFCURVE",
"121 247 CURVE SMOOTH",
"121 355 OFFCURVE",
"193 432 OFFCURVE",
"295 432 CURVE SMOOTH",
"403 432 OFFCURVE",
"471 348 OFFCURVE",
"471 245 CURVE SMOOTH",
"471 134 OFFCURVE",
"399 56 OFFCURVE",
"298 56 CURVE SMOOTH"
);
},
{
closed = 1;
nodes = (
"390 519 OFFCURVE",
"443 417 CURVE",
"400 468 OFFCURVE",
"346 498 OFFCURVE",
"276 498 CURVE SMOOTH",
"140 498 OFFCURVE",
"43 394 OFFCURVE",
"43 248 CURVE SMOOTH",
"43 96 OFFCURVE",
"149 -12 OFFCURVE",
"298 -12 CURVE SMOOTH",
"446 -12 OFFCURVE",
"550 104 OFFCURVE",
"550 269 CURVE SMOOTH",
"550 441 OFFCURVE",
"444 562 OFFCURVE",
"245 716 CURVE",
"169 685 LINE",
"282 609 OFFCURVE"
);
},
{
closed = 1;
nodes = (
"444 640 LINE",
"417 702 LINE",
"159 587 LINE",
"186 525 LINE"
);
}
);
width = 601;
},
{
layerId = "A0D976AB-773B-4D3A-9F7E-7A0C42AF1E7B";
paths = (
{
closed = 1;
nodes = (
"255 149 OFFCURVE",
"213 188 OFFCURVE",
"213 244 CURVE SMOOTH",
"213 299 OFFCURVE",
"254 338 OFFCURVE",
"313 338 CURVE SMOOTH",
"374 338 OFFCURVE",
"414 297 OFFCURVE",
"414 243 CURVE SMOOTH",
"414 188 OFFCURVE",
"373 149 OFFCURVE",
"314 149 CURVE SMOOTH"
);
},
{
closed = 1;
nodes = (
"349 513 OFFCURVE",
"392 425 CURVE",
"356 466 OFFCURVE",
"312 492 OFFCURVE",
"249 492 CURVE SMOOTH",
"120 492 OFFCURVE",
"29 392 OFFCURVE",
"29 251 CURVE SMOOTH",
"29 97 OFFCURVE",
"147 -12 OFFCURVE",
"313 -12 CURVE SMOOTH",
"480 -12 OFFCURVE",
"598 112 OFFCURVE",
"598 288 CURVE SMOOTH",
"598 460 OFFCURVE",
"501 573 OFFCURVE",
"295 732 CURVE",
"127 660 LINE",
"246 584 OFFCURVE"
);
},
{
closed = 1;
nodes = (
"473 638 LINE",
"434 726 LINE",
"149 599 LINE",
"188 511 LINE"
);
}
);
width = 631;
},
{
associatedMasterId = "A0D976AB-773B-4D3A-9F7E-7A0C42AF1E7B";
layerId = "499DAEEC-1A41-4EDB-A24F-09FFE140B4FB";
name = bubble;
paths = (
{
closed = 1;
nodes = (
"499 -45 OFFCURVE",
"631 94 OFFCURVE",
"631 288 CURVE SMOOTH",
"631 407 OFFCURVE",
"591 501 OFFCURVE",
"488 606 CURVE",
"421 756 LINE",
"355 727 LINE",
"330 747 LINE",
"86 642 LINE",
"149 599 LINE",
"188 511 LINE",
"66 489 OFFCURVE",
"0 394 OFFCURVE",
"0 251 CURVE SMOOTH",
"0 79 OFFCURVE",
"129 -45 OFFCURVE",
"313 -45 CURVE SMOOTH"
);
}
);
width = 631;
},
{
associatedMasterId = "35616FF6-3D9C-499B-B113-AC9E0DB5842A";
layerId = "3C2B746C-B756-4111-A122-32AB1F1DECFC";
name = bubble;
paths = (
{
closed = 1;
nodes = (
"471 -56 OFFCURVE",
"601 80 OFFCURVE",
"601 269 CURVE SMOOTH",
"601 388 OFFCURVE",
"552 486 OFFCURVE",
"449 595 CURVE",
"462 601 LINE",
"399 742 LINE",
"325 709 LINE",
"291 735 LINE",
"119 665 LINE",
"163 636 LINE",
"142 627 LINE",
"185 528 LINE",
"73 493 OFFCURVE",
"0 382 OFFCURVE",
"0 248 CURVE SMOOTH",
"0 72 OFFCURVE",
"125 -56 OFFCURVE",
"298 -56 CURVE SMOOTH"
);
}
);
width = 601;
},
{
associatedMasterId = "3B040282-CF47-4846-BCAF-7BFF90FB63BC";
layerId = "2AACC0E4-4AA0-4294-AA4F-9C1067A93461";
name = bubble;
paths = (
{
closed = 1;
nodes = (
"463 -61 OFFCURVE",
"593 72 OFFCURVE",
"593 255 CURVE SMOOTH",
"593 373 OFFCURVE",
"534 496 OFFCURVE",
"434 602 CURVE",
"446 608 LINE",
"391 730 LINE",
"324 700 LINE",
"305 714 OFFCURVE",
"287 727 OFFCURVE",
"267 739 CURVE",
"132 670 LINE",
"183 637 LINE",
"151 623 LINE",
"191 535 LINE",
"75 498 OFFCURVE",
"0 386 OFFCURVE",
"0 246 CURVE SMOOTH",
"0 68 OFFCURVE",
"121 -61 OFFCURVE",
"292 -61 CURVE SMOOTH"
);
}
);
width = 593;
}
);
leftKerningGroup = d;
rightKerningGroup = eth;
unicode = 00F0;
},
{
color = 1;
glyphname = dcroat;
lastChange = "2019-04-08 11:35:20 +0000";
layers = (
{
components = (
{
name = d;
}
);
layerId = "3B040282-CF47-4846-BCAF-7BFF90FB63BC";
paths = (
{
closed = 1;
nodes = (
"590 592 LINE",
"590 628 LINE",
"300 628 LINE",
"300 592 LINE"
);
}
);
width = 621;
},
{
components = (
{
name = d;
}
);
layerId = "35616FF6-3D9C-499B-B113-AC9E0DB5842A";
paths = (
{
closed = 1;
nodes = (
"620 585 LINE",
"620 635 LINE",
"310 635 LINE",
"310 585 LINE"
);
}
);
width = 635;
},
{
components = (
{
name = d;
}
);
layerId = "A0D976AB-773B-4D3A-9F7E-7A0C42AF1E7B";
paths = (
{
closed = 1;
nodes = (
"680 565 LINE",
"680 655 LINE",
"290 655 LINE",
"290 565 LINE"
);
}
);
width = 686;
},
{
associatedMasterId = "A0D976AB-773B-4D3A-9F7E-7A0C42AF1E7B";
layerId = "CDD77135-9949-4A39-B37C-F9676359F44F";
name = bubble;
paths = (
{
closed = 1;
nodes = (
"680 535 LINE",
"680 685 LINE",
"290 685 LINE",
"290 535 LINE"
);
}
);
width = 687;
},
{
associatedMasterId = "35616FF6-3D9C-499B-B113-AC9E0DB5842A";
layerId = "7517C2CF-16A4-4FEE-AE9D-AE628545CF17";
name = bubble;
paths = (
{
closed = 1;
nodes = (
"620 542 LINE",
"620 677 LINE",
"310 677 LINE",
"310 542 LINE"
);
}
);
width = 635;
},
{
associatedMasterId = "3B040282-CF47-4846-BCAF-7BFF90FB63BC";
layerId = "32E9513F-335B-4058-B17B-D0B43FD690F0";
name = bubble;
paths = (
{
closed = 1;
nodes = (
"590 557 LINE",
"590 664 LINE",
"300 664 LINE",
"300 557 LINE"
);
}
);
width = 621;
}
);
leftKerningGroup = d;
rightKerningGroup = dcroat;
unicode = 0111;
},
{
color = 1;
glyphname = e;
lastChange = "2019-04-07 03:54:09 +0000";
layers = (
{
anchors = (
{
name = bottom;
position = "{276, -12}";
},
{
name = top;
position = "{299, 517}";
}
);
layerId = "35616FF6-3D9C-499B-B113-AC9E0DB5842A";
paths = (
{
closed = 1;
nodes = (
"378 -12 OFFCURVE",
"469 19 OFFCURVE",
"514 68 CURVE",
"468 117 LINE",
"436 82 OFFCURVE",
"366 55 OFFCURVE",
"305 55 CURVE SMOOTH",
"193 55 OFFCURVE",
"119 144 OFFCURVE",
"119 260 CURVE SMOOTH",
"119 380 OFFCURVE",
"199 462 OFFCURVE",
"302 462 CURVE SMOOTH",
"415 462 OFFCURVE",
"471 374 OFFCURVE",
"471 268 CURVE",
"514 297 LINE",
"95 297 LINE",
"95 230 LINE",
"544 230 LINE",
"544 411 OFFCURVE",
"455 529 OFFCURVE",
"299 529 CURVE SMOOTH",
"160 529 OFFCURVE",
"44 414 OFFCURVE",
"44 260 CURVE SMOOTH",
"44 101 OFFCURVE",
"168 -12 OFFCURVE",
"306 -12 CURVE SMOOTH"
);
}
);
width = 583;
},
{
anchors = (
{
name = bottom;
position = "{316, -12}";
},
{
name = top;
position = "{308, 517}";
}
);
layerId = "A0D976AB-773B-4D3A-9F7E-7A0C42AF1E7B";
paths = (
{
closed = 1;
nodes = (
"395 -12 OFFCURVE",
"483 21 OFFCURVE",
"529 68 CURVE",
"423 175 LINE",
"389 148 OFFCURVE",
"347 132 OFFCURVE",
"308 132 CURVE SMOOTH",
"245 132 OFFCURVE",
"205 185 OFFCURVE",
"205 259 CURVE SMOOTH",
"205 333 OFFCURVE",
"245 385 OFFCURVE",
"308 385 CURVE SMOOTH",
"364 385 OFFCURVE",
"399 335 OFFCURVE",
"399 265 CURVE",
"446 314 LINE",
"89 314 LINE",
"89 213 LINE",
"577 213 LINE",
"577 412 OFFCURVE",
"474 529 OFFCURVE",
"308 529 CURVE SMOOTH",
"148 529 OFFCURVE",
"30 418 OFFCURVE",
"30 260 CURVE SMOOTH",
"30 101 OFFCURVE",
"151 -12 OFFCURVE",
"316 -12 CURVE SMOOTH"
);
}
);
width = 600;
},
{
anchors = (
{
name = bottom;
position = "{299, -12}";
},
{
name = top;
position = "{299, 517}";
}
);
layerId = "3B040282-CF47-4846-BCAF-7BFF90FB63BC";
paths = (
{
closed = 1;
nodes = (
"382 -12 OFFCURVE",
"472 21 OFFCURVE",
"515 68 CURVE",
"490 95 LINE",
"447 48 OFFCURVE",
"373 24 OFFCURVE",
"299 24 CURVE SMOOTH",
"181 24 OFFCURVE",
"81 132 OFFCURVE",
"81 260 CURVE SMOOTH",
"81 390 OFFCURVE",
"177 493 OFFCURVE",
"299 493 CURVE SMOOTH",
"425 493 OFFCURVE",
"509 401 OFFCURVE",
"509 264 CURVE",
"515 278 LINE",
"66 278 LINE",
"66 242 LINE",
"545 242 LINE",
"545 414 OFFCURVE",
"447 529 OFFCURVE",
"299 529 CURVE SMOOTH",
"157 529 OFFCURVE",
"45 411 OFFCURVE",
"45 260 CURVE SMOOTH",
"45 112 OFFCURVE",
"161 -12 OFFCURVE",
"299 -12 CURVE SMOOTH"
);
}
);
width = 588;
},
{
anchors = (
{
name = bottom;
position = "{299, -12}";
},
{
name = top;
position = "{291, 517}";
}
);
associatedMasterId = "A0D976AB-773B-4D3A-9F7E-7A0C42AF1E7B";
layerId = "573B4588-E821-488A-BBEF-674BA691C050";
name = bubble;
paths = (
{
closed = 1;
nodes = (
"401 -42 OFFCURVE",
"496 -2 OFFCURVE",
"547 50 CURVE",
"410 188 LINE",
"600 188 LINE",
"600 413 OFFCURVE",
"497 559 OFFCURVE",
"308 559 CURVE SMOOTH",
"133 559 OFFCURVE",
"0 430 OFFCURVE",
"0 260 CURVE SMOOTH",
"0 88 OFFCURVE",
"136 -42 OFFCURVE",
"316 -42 CURVE SMOOTH"
);
}
);
width = 600;
},
{
anchors = (
{
name = bottom;
position = "{276, -12}";
},
{
name = top;
position = "{299, 517}";
}
);
associatedMasterId = "35616FF6-3D9C-499B-B113-AC9E0DB5842A";
layerId = "24493D14-4F18-4C26-93DA-446584DF2E97";
name = bubble;
paths = (
{
closed = 1;
nodes = (
"394 -53 OFFCURVE",
"492 -15 OFFCURVE",
"542 39 CURVE",
"401 189 LINE",
"583 189 LINE",
"583 420 OFFCURVE",
"486 570 OFFCURVE",
"299 570 CURVE SMOOTH",
"134 570 OFFCURVE",
"0 433 OFFCURVE",
"0 260 CURVE SMOOTH",
"0 86 OFFCURVE",
"138 -53 OFFCURVE",
"306 -53 CURVE SMOOTH"
);
}
);
width = 583;
},
{
anchors = (
{
name = bottom;
position = "{299, -12}";
},
{
name = top;
position = "{299, 517}";
}
);
associatedMasterId = "3B040282-CF47-4846-BCAF-7BFF90FB63BC";
layerId = "3103581C-E5B0-4A71-A416-7C4E9B4F08D2";
name = bubble;
paths = (
{
closed = 1;
nodes = (
"393 -56 OFFCURVE",
"493 -19 OFFCURVE",
"545 36 CURVE",
"394 198 LINE",
"588 198 LINE",
"588 418 OFFCURVE",
"484 573 OFFCURVE",
"299 573 CURVE SMOOTH",
"132 573 OFFCURVE",
"0 435 OFFCURVE",
"0 260 CURVE SMOOTH",
"0 88 OFFCURVE",
"136 -56 OFFCURVE",
"299 -56 CURVE SMOOTH"
);
}
);
width = 588;
}
);
leftKerningGroup = e;
rightKerningGroup = e;
unicode = 0065;
},
{
color = 1;
glyphname = f;
lastChange = "2019-03-30 06:45:14 +0000";
layers = (
{
layerId = "35616FF6-3D9C-499B-B113-AC9E0DB5842A";
paths = (
{
closed = 1;
nodes = (
"180 0 LINE",
"180 588 LINE SMOOTH",
"180 626 OFFCURVE",
"206 653 OFFCURVE",
"236 653 CURVE SMOOTH",
"259 653 OFFCURVE",
"279 644 OFFCURVE",
"290 632 CURVE",
"327 687 LINE",
"300 708 OFFCURVE",
"266 720 OFFCURVE",
"231 720 CURVE SMOOTH",
"157 720 OFFCURVE",
"105 665 OFFCURVE",
"105 588 CURVE SMOOTH",
"105 0 LINE"
);
},
{
closed = 1;
nodes = (
"307 450 LINE",
"307 517 LINE",
"24 517 LINE",
"24 450 LINE"
);
}
);
width = 317;
},
{
layerId = "A0D976AB-773B-4D3A-9F7E-7A0C42AF1E7B";
paths = (
{
closed = 1;
nodes = (
"274 0 LINE",
"274 517 LINE SMOOTH",
"274 548 OFFCURVE",
"292 570 OFFCURVE",
"318 570 CURVE SMOOTH",
"336 570 OFFCURVE",
"355 564 OFFCURVE",
"365 555 CURVE",
"398 667 LINE",
"366 698 OFFCURVE",
"311 720 OFFCURVE",
"265 720 CURVE SMOOTH",
"162 720 OFFCURVE",
"90 648 OFFCURVE",
"90 545 CURVE SMOOTH",
"90 0 LINE"
);
},
{
closed = 1;
nodes = (
"376 365 LINE",
"376 517 LINE",
"25 517 LINE",
"25 365 LINE"
);
}
);
width = 401;
},
{
layerId = "3B040282-CF47-4846-BCAF-7BFF90FB63BC";
paths = (
{
closed = 1;
nodes = (
"154 0 LINE",
"154 588 LINE SMOOTH",
"154 644 OFFCURVE",
"184 684 OFFCURVE",
"226 684 CURVE SMOOTH",
"256 684 OFFCURVE",
"280 676 OFFCURVE",
"300 659 CURVE",
"320 687 LINE",
"292 709 OFFCURVE",
"260 720 OFFCURVE",
"224 720 CURVE SMOOTH",
"162 720 OFFCURVE",
"118 665 OFFCURVE",
"118 588 CURVE SMOOTH",
"118 0 LINE"
);
},
{
closed = 1;
nodes = (
"299 481 LINE",
"299 517 LINE",
"27 517 LINE",
"27 481 LINE"
);
}
);
width = 290;
},
{
associatedMasterId = "3B040282-CF47-4846-BCAF-7BFF90FB63BC";
layerId = "A323A772-7330-42DB-9866-15521717A12F";
name = bubble;
paths = (
{
closed = 1;
nodes = (
"190 0 LINE",
"190 445 LINE",
"290 445 LINE",
"290 744 LINE",
"269 752 OFFCURVE",
"247 756 OFFCURVE",
"224 756 CURVE SMOOTH",
"141 756 OFFCURVE",
"82 685 OFFCURVE",
"82 588 CURVE SMOOTH",
"82 553 LINE",
"0 553 LINE",
"0 445 LINE",
"82 445 LINE",
"82 0 LINE"
);
}
);
width = 290;
},
{
associatedMasterId = "35616FF6-3D9C-499B-B113-AC9E0DB5842A";
layerId = "CEC3805E-1006-468C-BB55-05655E8BB0E7";
name = bubble;
paths = (
{
closed = 1;
nodes = (
"255 0 LINE",
"255 375 LINE",
"317 375 LINE",
"317 777 LINE",
"291 789 OFFCURVE",
"261 795 OFFCURVE",
"231 795 CURVE SMOOTH",
"116 795 OFFCURVE",
"32 708 OFFCURVE",
"30 592 CURVE",
"0 592 LINE",
"0 375 LINE",
"30 375 LINE",
"30 0 LINE"
);
}
);
width = 317;
},
{
associatedMasterId = "A0D976AB-773B-4D3A-9F7E-7A0C42AF1E7B";
layerId = "E3892B0F-A007-4A49-96DF-6F09E19567FB";
name = bubble;
paths = (
{
closed = 1;
nodes = (
"322 0 LINE",
"322 317 LINE",
"401 317 LINE",
"401 720 LINE",
"364 749 OFFCURVE",
"313 768 OFFCURVE",
"265 768 CURVE SMOOTH",
"142 768 OFFCURVE",
"52 684 OFFCURVE",
"43 565 CURVE",
"0 565 LINE",
"0 317 LINE",
"42 317 LINE",
"42 0 LINE"
);
}
);
width = 401;
}
);
leftKerningGroup = f;
rightKerningGroup = f;
unicode = 0066;
},
{
color = 1;
glyphname = g;
lastChange = "2019-04-07 03:34:16 +0000";
layers = (
{
anchors = (
{
name = bottom;
position = "{289, -172}";
},
{
name = top;
position = "{298, 517}";
}
);
layerId = "35616FF6-3D9C-499B-B113-AC9E0DB5842A";
paths = (
{
closed = 1;
nodes = (
"438 -172 OFFCURVE",
"543 -78 OFFCURVE",
"543 55 CURVE SMOOTH",
"543 517 LINE",
"468 517 LINE",
"468 55 LINE SMOOTH",
"468 -46 OFFCURVE",
"398 -105 OFFCURVE",
"279 -105 CURVE SMOOTH",
"215 -105 OFFCURVE",
"153 -82 OFFCURVE",
"113 -44 CURVE",
"80 -103 LINE",
"127 -143 OFFCURVE",
"205 -172 OFFCURVE",
"289 -172 CURVE SMOOTH"
);
},
{
closed = 1;
nodes = (
"373 38 OFFCURVE",
"445 87 OFFCURVE",
"483 166 CURVE",
"483 401 LINE",
"445 480 OFFCURVE",
"373 529 OFFCURVE",
"280 529 CURVE SMOOTH",
"141 529 OFFCURVE",
"42 428 OFFCURVE",
"42 284 CURVE SMOOTH",
"42 140 OFFCURVE",
"141 38 OFFCURVE",
"280 38 CURVE SMOOTH"
);
},
{
closed = 1;
nodes = (
"193 105 OFFCURVE",
"121 179 OFFCURVE",
"121 284 CURVE SMOOTH",
"121 388 OFFCURVE",
"193 462 OFFCURVE",
"294 462 CURVE SMOOTH",
"396 462 OFFCURVE",
"468 388 OFFCURVE",
"468 284 CURVE SMOOTH",
"468 179 OFFCURVE",
"396 105 OFFCURVE",
"294 105 CURVE SMOOTH"
);
}
);
width = 630;
},
{
anchors = (
{
name = bottom;
position = "{313, -172}";
},
{
name = top;
position = "{320, 517}";
}
);
layerId = "A0D976AB-773B-4D3A-9F7E-7A0C42AF1E7B";
paths = (
{
closed = 1;
nodes = (
"485 -172 OFFCURVE",
"607 -78 OFFCURVE",
"607 55 CURVE SMOOTH",
"607 517 LINE",
"413 517 LINE",
"413 65 LINE SMOOTH",
"413 21 OFFCURVE",
"359 -12 OFFCURVE",
"282 -12 CURVE SMOOTH",
"225 -12 OFFCURVE",
"165 5 OFFCURVE",
"135 30 CURVE",
"72 -103 LINE",
"127 -143 OFFCURVE",
"217 -172 OFFCURVE",
"313 -172 CURVE SMOOTH"
);
},
{
closed = 1;
nodes = (
"323 38 OFFCURVE",
"392 72 OFFCURVE",
"432 129 CURVE",
"426 439 LINE",
"403 489 OFFCURVE",
"325 529 OFFCURVE",
"253 529 CURVE SMOOTH",
"128 529 OFFCURVE",
"29 428 OFFCURVE",
"29 284 CURVE SMOOTH",
"29 140 OFFCURVE",
"128 38 OFFCURVE",
"253 38 CURVE SMOOTH"
);
},
{
closed = 1;
nodes = (
"266 198 OFFCURVE",
"227 234 OFFCURVE",
"227 284 CURVE SMOOTH",
"227 334 OFFCURVE",
"266 369 OFFCURVE",
"320 369 CURVE SMOOTH",
"374 369 OFFCURVE",
"413 334 OFFCURVE",
"413 284 CURVE SMOOTH",
"413 234 OFFCURVE",
"374 198 OFFCURVE",
"320 198 CURVE SMOOTH"
);
}
);
width = 665;
},
{
anchors = (
{
name = bottom;
position = "{283, -172}";
},
{
name = top;
position = "{286, 517}";
}
);
layerId = "3B040282-CF47-4846-BCAF-7BFF90FB63BC";
paths = (
{
closed = 1;
nodes = (
"421 -172 OFFCURVE",
"518 -78 OFFCURVE",
"518 55 CURVE SMOOTH",
"518 517 LINE",
"482 517 LINE",
"482 55 LINE SMOOTH",
"482 -57 OFFCURVE",
"398 -136 OFFCURVE",
"280 -136 CURVE SMOOTH",
"215 -136 OFFCURVE",
"137 -109 OFFCURVE",
"92 -71 CURVE",
"74 -103 LINE",
"121 -143 OFFCURVE",
"208 -172 OFFCURVE",
"283 -172 CURVE SMOOTH"
);
},
{
closed = 1;
nodes = (
"365 38 OFFCURVE",
"452 89 OFFCURVE",
"487 186 CURVE",
"487 382 LINE",
"452 479 OFFCURVE",
"369 529 OFFCURVE",
"266 529 CURVE SMOOTH",
"143 529 OFFCURVE",
"40 417 OFFCURVE",
"40 284 CURVE SMOOTH",
"40 150 OFFCURVE",
"143 38 OFFCURVE",
"266 38 CURVE SMOOTH"
);
},
{
closed = 1;
nodes = (
"166 74 OFFCURVE",
"76 170 OFFCURVE",
"76 284 CURVE SMOOTH",
"76 397 OFFCURVE",
"166 493 OFFCURVE",
"273 493 CURVE SMOOTH",
"391 493 OFFCURVE",
"482 406 OFFCURVE",
"482 284 CURVE SMOOTH",
"482 161 OFFCURVE",
"391 74 OFFCURVE",
"273 74 CURVE SMOOTH"
);
}
);
width = 618;
},
{
anchors = (
{
name = bottom;
position = "{313, -172}";
},
{
name = top;
position = "{320, 517}";
}
);
associatedMasterId = "A0D976AB-773B-4D3A-9F7E-7A0C42AF1E7B";
layerId = "1085D82F-60C2-420E-A2EC-3937E6DDE936";
name = bubble;
paths = (
{
closed = 1;
nodes = (
"517 -230 OFFCURVE",
"665 -112 OFFCURVE",
"665 55 CURVE SMOOTH",
"665 517 LINE",
"391 517 LINE",
"350 542 OFFCURVE",
"301 558 OFFCURVE",
"253 558 CURVE SMOOTH",
"108 558 OFFCURVE",
"0 440 OFFCURVE",
"0 284 CURVE SMOOTH",
"0 169 OFFCURVE",
"53 78 OFFCURVE",
"138 36 CURVE",
"51 -147 LINE",
"115 -198 OFFCURVE",
"209 -230 OFFCURVE",
"313 -230 CURVE SMOOTH"
);
}
);
width = 665;
},
{
anchors = (
{
name = bottom;
position = "{289, -172}";
},
{
name = top;
position = "{298, 517}";
}
);
associatedMasterId = "35616FF6-3D9C-499B-B113-AC9E0DB5842A";
layerId = "896C5ACB-90BF-47FB-876B-D2063026B1F0";
name = bubble;
paths = (
{
closed = 1;
nodes = (
"479 -247 OFFCURVE",
"630 -120 OFFCURVE",
"630 55 CURVE SMOOTH",
"630 517 LINE",
"493 517 LINE",
"438 573 OFFCURVE",
"364 604 OFFCURVE",
"280 604 CURVE SMOOTH",
"99 604 OFFCURVE",
"0 469 OFFCURVE",
"0 284 CURVE SMOOTH",
"0 157 OFFCURVE",
"53 55 OFFCURVE",
"139 4 CURVE",
"57 -145 LINE",
"110 -206 OFFCURVE",
"186 -247 OFFCURVE",
"289 -247 CURVE SMOOTH"
);
}
);
width = 630;
},
{
anchors = (
{
name = bottom;
position = "{283, -172}";
},
{
name = top;
position = "{286, 517}";
}
);
associatedMasterId = "3B040282-CF47-4846-BCAF-7BFF90FB63BC";
layerId = "94B30FAE-6A7D-499A-AE06-33FA0EE010B7";
name = bubble;
paths = (
{
closed = 1;
nodes = (
"447 -220 OFFCURVE",
"618 -105 OFFCURVE",
"618 55 CURVE SMOOTH",
"618 517 LINE",
"449 517 LINE",
"401 556 OFFCURVE",
"338 577 OFFCURVE",
"266 577 CURVE SMOOTH",
"116 577 OFFCURVE",
"0 444 OFFCURVE",
"0 284 CURVE SMOOTH",
"0 161 OFFCURVE",
"56 64 OFFCURVE",
"145 19 CURVE",
"53 -140 LINE",
"106 -187 OFFCURVE",
"198 -220 OFFCURVE",
"283 -220 CURVE SMOOTH"
);
}
);
width = 618;
}
);
leftKerningGroup = g;
rightKerningGroup = g;
unicode = 0067;
},
{
color = 1;
glyphname = h;
lastChange = "2019-04-08 10:00:40 +0000";
layers = (
{
layerId = "35616FF6-3D9C-499B-B113-AC9E0DB5842A";
paths = (
{
closed = 1;
nodes = (
"526 0 LINE",
"526 329 LINE SMOOTH",
"526 448 OFFCURVE",
"447 529 OFFCURVE",
"332 529 CURVE SMOOTH",
"235 529 OFFCURVE",
"151 462 OFFCURVE",
"146 379 CURVE",
"162 329 LINE",
"162 402 OFFCURVE",
"234 462 OFFCURVE",
"322 462 CURVE SMOOTH",
"398 462 OFFCURVE",
"451 404 OFFCURVE",
"451 319 CURVE SMOOTH",
"451 0 LINE"
);
},
{
closed = 1;
nodes = (
"162 0 LINE",
"162 699 LINE",
"87 699 LINE",
"87 0 LINE"
);
}
);
width = 601;
},
{
layerId = "A0D976AB-773B-4D3A-9F7E-7A0C42AF1E7B";
paths = (
{
closed = 1;
nodes = (
"588 0 LINE",
"588 329 LINE SMOOTH",
"588 446 OFFCURVE",
"509 529 OFFCURVE",
"398 529 CURVE SMOOTH",
"299 529 OFFCURVE",
"225 467 OFFCURVE",
"220 379 CURVE",
"252 290 LINE",
"252 336 OFFCURVE",
"283 369 OFFCURVE",
"326 369 CURVE SMOOTH",
"372 369 OFFCURVE",
"404 334 OFFCURVE",
"404 284 CURVE SMOOTH",
"404 0 LINE"
);
},
{
closed = 1;
nodes = (
"252 0 LINE",
"252 699 LINE",
"59 699 LINE",
"59 0 LINE"
);
}
);
width = 638;
},
{
layerId = "3B040282-CF47-4846-BCAF-7BFF90FB63BC";
paths = (
{
closed = 1;
nodes = (
"500 0 LINE",
"500 339 LINE SMOOTH",
"500 450 OFFCURVE",
"420 529 OFFCURVE",
"307 529 CURVE SMOOTH",
"200 529 OFFCURVE",
"124 459 OFFCURVE",
"124 360 CURVE",
"137 330 LINE",
"137 425 OFFCURVE",
"205 493 OFFCURVE",
"302 493 CURVE SMOOTH",
"397 493 OFFCURVE",
"464 427 OFFCURVE",
"464 334 CURVE SMOOTH",
"464 0 LINE"
);
},
{
closed = 1;
nodes = (
"137 0 LINE",
"137 699 LINE",
"101 699 LINE",
"101 0 LINE"
);
}
);
width = 586;
},
{
associatedMasterId = "A0D976AB-773B-4D3A-9F7E-7A0C42AF1E7B";
layerId = "E8FEB62B-4C23-4D26-AB95-52BDEC505669";
name = bubble;
paths = (
{
closed = 1;
nodes = (
"638 0 LINE",
"638 329 LINE SMOOTH",
"638 473 OFFCURVE",
"537 579 OFFCURVE",
"398 579 CURVE SMOOTH",
"363 579 OFFCURVE",
"331 573 OFFCURVE",
"302 561 CURVE",
"302 699 LINE",
"0 699 LINE",
"0 0 LINE"
);
}
);
width = 638;
},
{
associatedMasterId = "35616FF6-3D9C-499B-B113-AC9E0DB5842A";
layerId = "F2333D53-A396-4EEA-B04C-B388D3F966A1";
name = bubble;
paths = (
{
closed = 1;
nodes = (
"601 0 LINE",
"601 329 LINE SMOOTH",
"601 489 OFFCURVE",
"489 604 OFFCURVE",
"332 604 CURVE SMOOTH",
"299 604 OFFCURVE",
"267 598 OFFCURVE",
"237 588 CURVE",
"237 699 LINE",
"0 699 LINE",
"0 0 LINE"
);
}
);
width = 601;
},
{
anchors = (
{
name = k_arms;
position = "{128, 125}";
}
);
associatedMasterId = "3B040282-CF47-4846-BCAF-7BFF90FB63BC";
layerId = "E1392992-96F8-499E-BE37-F6A7DB917B5F";
name = bubble;
paths = (
{
closed = 1;
nodes = (
"586 0 LINE",
"586 339 LINE SMOOTH",
"586 497 OFFCURVE",
"467 615 OFFCURVE",
"307 615 CURVE SMOOTH",
"278 615 OFFCURVE",
"249 611 OFFCURVE",
"223 603 CURVE",
"223 699 LINE",
"0 699 LINE",
"0 0 LINE"
);
}
);
width = 586;
}
);
leftKerningGroup = h;
rightKerningGroup = h;
unicode = 0068;
},
{
color = 1;
glyphname = idotless;
lastChange = "2019-03-30 06:45:14 +0000";
layers = (
{
anchors = (
{
name = bottom;
position = "{162, 0}";
},
{
name = loop_left;
position = "{87, 259}";
},
{
name = r_shoulder;
position = "{162, 291}";
},
{
name = shoulder;
position = "{162, 329}";
},
{
name = top;
position = "{125, 517}";
}
);
layerId = "35616FF6-3D9C-499B-B113-AC9E0DB5842A";
paths = (
{
closed = 1;
nodes = (
"162 0 LINE",
"162 517 LINE",
"87 517 LINE",
"87 0 LINE"
);
}
);
width = 249;
},
{
anchors = (
{
name = bottom;
position = "{252, 0}";
},
{
name = loop_left;
position = "{59, 259}";
},
{
name = r_shoulder;
position = "{252, 219}";
},
{
name = shoulder;
position = "{252, 290}";
},
{
name = top;
position = "{156, 517}";
}
);
layerId = "A0D976AB-773B-4D3A-9F7E-7A0C42AF1E7B";
paths = (
{
closed = 1;
nodes = (
"252 0 LINE",
"252 517 LINE",
"59 517 LINE",
"59 0 LINE"
);
}
);
width = 311;
},
{
anchors = (
{
name = bottom;
position = "{136, 0}";
},
{
name = loop_left;
position = "{100, 259}";
},
{
name = r_shoulder;
position = "{136, 289}";
},
{
name = shoulder;
position = "{136, 330}";
},
{
name = top;
position = "{118, 517}";
}
);
layerId = "3B040282-CF47-4846-BCAF-7BFF90FB63BC";
paths = (
{
closed = 1;
nodes = (
"136 0 LINE",
"136 517 LINE",
"100 517 LINE",
"100 0 LINE"
);
}
);
width = 236;
},
{
anchors = (
{
name = bottom;
position = "{114, 0}";
},
{
name = loop_left;
position = "{78, 259}";
},
{
name = r_shoulder;
position = "{114, 289}";
},
{
name = shoulder;
position = "{114, 330}";
},
{
name = top;
position = "{96, 517}";
}
);
associatedMasterId = "3B040282-CF47-4846-BCAF-7BFF90FB63BC";
layerId = "109CA4A2-0BE2-44D2-B254-0B7E83B1D201";
name = bubble;
paths = (
{
closed = 1;
nodes = (
"236 0 LINE",
"236 517 LINE",
"0 517 LINE",
"0 0 LINE"
);
}
);
width = 236;
},
{
anchors = (
{
name = bottom;
position = "{245, 0}";
},
{
name = loop_left;
position = "{170, 259}";
},
{
name = r_shoulder;
position = "{245, 291}";
},
{
name = shoulder;
position = "{245, 329}";
},
{
name = top;
position = "{208, 517}";
}
);
associatedMasterId = "35616FF6-3D9C-499B-B113-AC9E0DB5842A";
layerId = "D62BA482-AE7B-4C9F-9987-1160FDD15582";
name = bubble;
paths = (
{
closed = 1;
nodes = (
"249 0 LINE",
"249 517 LINE",
"0 517 LINE",
"0 0 LINE"
);
}
);
width = 249;
},
{
anchors = (
{
name = bottom;
position = "{311, 0}";
},
{
name = loop_left;
position = "{118, 259}";
},
{
name = r_shoulder;
position = "{311, 219}";
},
{
name = shoulder;
position = "{311, 290}";
},
{
name = top;
position = "{215, 517}";
}
);
associatedMasterId = "A0D976AB-773B-4D3A-9F7E-7A0C42AF1E7B";
layerId = "C7FF0282-CA1D-429D-96F4-58456C5EE888";
name = bubble;
paths = (
{
closed = 1;
nodes = (
"311 0 LINE",
"311 517 LINE",
"0 517 LINE",
"0 0 LINE"
);
}
);
width = 311;
}
);
leftKerningGroup = i;
rightKerningGroup = i;
unicode = 0131;
},
{
color = 1;
glyphname = jdotless;
lastChange = "2019-03-30 06:45:15 +0000";
layers = (
{
anchors = (
{
name = top;
position = "{125, 517}";
}
);
layerId = "35616FF6-3D9C-499B-B113-AC9E0DB5842A";
paths = (
{
closed = 1;
nodes = (
"110 -178 OFFCURVE",
"162 -123 OFFCURVE",
"162 -46 CURVE SMOOTH",
"162 517 LINE",
"87 517 LINE",
"87 -46 LINE SMOOTH",
"87 -84 OFFCURVE",
"64 -111 OFFCURVE",
"31 -111 CURVE SMOOTH",
"10 -111 OFFCURVE",
"-17 -106 OFFCURVE",
"-33 -100 CURVE",
"-45 -162 LINE",
"-25 -171 OFFCURVE",
"8 -178 OFFCURVE",
"36 -178 CURVE SMOOTH"
);
}
);
width = 249;
},
{
anchors = (
{
name = top;
position = "{152, 517}";
}
);
layerId = "A0D976AB-773B-4D3A-9F7E-7A0C42AF1E7B";
paths = (
{
closed = 1;
nodes = (
"175 -178 OFFCURVE",
"251 -102 OFFCURVE",
"251 6 CURVE SMOOTH",
"251 517 LINE",
"58 517 LINE",
"58 30 LINE SMOOTH",
"58 -1 OFFCURVE",
"40 -23 OFFCURVE",
"14 -23 CURVE SMOOTH",
"-2 -23 OFFCURVE",
"-21 -20 OFFCURVE",
"-33 -15 CURVE",
"-51 -154 LINE",
"-23 -168 OFFCURVE",
"26 -178 OFFCURVE",
"67 -178 CURVE SMOOTH"
);
}
);
width = 310;
},
{
anchors = (
{
name = top;
position = "{118, 517}";
}
);
layerId = "3B040282-CF47-4846-BCAF-7BFF90FB63BC";
paths = (
{
closed = 1;
nodes = (
"93 -178 OFFCURVE",
"137 -127 OFFCURVE",
"137 -56 CURVE SMOOTH",
"137 517 LINE",
"101 517 LINE",
"101 -56 LINE SMOOTH",
"101 -106 OFFCURVE",
"71 -142 OFFCURVE",
"28 -142 CURVE SMOOTH",
"4 -142 OFFCURVE",
"-26 -136 OFFCURVE",
"-44 -128 CURVE",
"-51 -162 LINE",
"-30 -171 OFFCURVE",
"3 -178 OFFCURVE",
"30 -178 CURVE SMOOTH"
);
}
);
width = 238;
},
{
anchors = (
{
name = top;
position = "{152, 517}";
}
);
associatedMasterId = "A0D976AB-773B-4D3A-9F7E-7A0C42AF1E7B";
layerId = "AA5220F4-F1D6-4239-89A6-FB6CBA8931C2";
name = bubble;
paths = (
{
closed = 1;
nodes = (
"208 -237 OFFCURVE",
"310 -135 OFFCURVE",
"310 6 CURVE SMOOTH",
"310 517 LINE",
"-1 517 LINE",
"0 0 LINE SMOOTH",
"0 -4 OFFCURVE",
"-6 -7 OFFCURVE",
"-15 -7 CURVE SMOOTH",
"-22 -7 OFFCURVE",
"-29 -6 OFFCURVE",
"-32 -4 CURVE",
"-59 -215 LINE",
"-24 -228 OFFCURVE",
"26 -237 OFFCURVE",
"67 -237 CURVE SMOOTH"
);
}
);
width = 310;
},
{
anchors = (
{
name = top;
position = "{125, 517}";
}
);
associatedMasterId = "35616FF6-3D9C-499B-B113-AC9E0DB5842A";
layerId = "623CAA8A-7BBB-44D5-A5B9-061855AB54FB";
name = bubble;
paths = (
{
closed = 1;
nodes = (
"158 -265 OFFCURVE",
"249 -171 OFFCURVE",
"249 -46 CURVE SMOOTH",
"249 517 LINE",
"0 517 LINE",
"0 -34 LINE SMOOTH",
"0 -39 OFFCURVE",
"-4 -42 OFFCURVE",
"-10 -42 CURVE SMOOTH",
"-13 -42 OFFCURVE",
"-17 -41 OFFCURVE",
"-21 -39 CURVE",
"-62 -249 LINE",
"-32 -258 OFFCURVE",
"6 -265 OFFCURVE",
"36 -265 CURVE SMOOTH"
);
}
);
width = 249;
},
{
anchors = (
{
name = top;
position = "{118, 517}";
}
);
associatedMasterId = "3B040282-CF47-4846-BCAF-7BFF90FB63BC";
layerId = "DE4D6D55-E2F1-4B9D-8C54-F4FD93F09054";
name = bubble;
paths = (
{
closed = 1;
nodes = (
"151 -279 OFFCURVE",
"238 -180 OFFCURVE",
"238 -56 CURVE SMOOTH",
"238 517 LINE",
"0 517 LINE",
"0 -52 LINE SMOOTH",
"0 -57 OFFCURVE",
"-6 -61 OFFCURVE",
"-14 -61 CURVE SMOOTH",
"-19 -61 OFFCURVE",
"-25 -59 OFFCURVE",
"-29 -56 CURVE",
"-71 -262 LINE",
"-40 -272 OFFCURVE",
"-1 -279 OFFCURVE",
"30 -279 CURVE SMOOTH"
);
}
);
width = 238;
}
);
leftKerningGroup = j;
rightKerningGroup = j;
unicode = 0237;
},
{
color = 1;
glyphname = k;
lastChange = "2019-04-08 11:35:41 +0000";
layers = (
{
anchors = (
{
name = bottom;
position = "{274, 0}";
}
);
layerId = "35616FF6-3D9C-499B-B113-AC9E0DB5842A";
paths = (
{
closed = 1;
nodes = (
"162 0 LINE",
"162 137 LINE",
"255 229 LINE",
"434 0 LINE",
"528 0 LINE",
"308 280 LINE",
"541 517 LINE",
"445 517 LINE",
"162 231 LINE",
"162 699 LINE",
"87 699 LINE",
"87 0 LINE"
);
}
);
width = 549;
},
{
anchors = (
{
name = bottom;
position = "{316, 0}";
}
);
layerId = "A0D976AB-773B-4D3A-9F7E-7A0C42AF1E7B";
paths = (
{
closed = 1;
nodes = (
"252 0 LINE",
"252 119 LINE",
"294 171 LINE",
"389 0 LINE",
"605 0 LINE",
"420 294 LINE",
"601 517 LINE",
"385 517 LINE",
"252 335 LINE",
"252 699 LINE",
"59 699 LINE",
"59 0 LINE"
);
}
);
width = 619;
},
{
anchors = (
{
name = bottom;
position = "{281, 0}";
}
);
layerId = "3B040282-CF47-4846-BCAF-7BFF90FB63BC";
paths = (
{
closed = 1;
nodes = (
"137 0 LINE",
"137 134 LINE",
"255 255 LINE",
"454 0 LINE",
"500 0 LINE",
"280 280 LINE",
"512 517 LINE",
"462 517 LINE",
"137 186 LINE",
"137 699 LINE",
"101 699 LINE",
"101 0 LINE"
);
}
);
width = 518;
},
{
anchors = (
{
name = bottom;
position = "{316, 0}";
}
);
associatedMasterId = "A0D976AB-773B-4D3A-9F7E-7A0C42AF1E7B";
layerId = "3A121742-6163-4318-BE62-A15FFA726738";
name = bubble;
paths = (
{
closed = 1;
nodes = (
"619 0 LINE",
"555 290 LINE",
"619 517 LINE",
"311 517 LINE",
"311 699 LINE",
"0 699 LINE",
"0 0 LINE"
);
}
);
width = 619;
},
{
anchors = (
{
name = bottom;
position = "{274, 0}";
}
);
associatedMasterId = "35616FF6-3D9C-499B-B113-AC9E0DB5842A";
layerId = "CED065D6-A1B3-4967-A000-3885AFBC6AD4";
name = bubble;
paths = (
{
closed = 1;
nodes = (
"549 0 LINE",
"486 274 LINE",
"549 517 LINE",
"249 517 LINE",
"249 699 LINE",
"0 699 LINE",
"0 0 LINE"
);
}
);
width = 549;
},
{
anchors = (
{
name = bottom;
position = "{281, 0}";
}
);
associatedMasterId = "3B040282-CF47-4846-BCAF-7BFF90FB63BC";
layerId = "8765D5B8-B54F-4BF0-A7A0-0ABA5D667442";
name = bubble;
paths = (
{
closed = 1;
nodes = (
"518 0 LINE",
"466 273 LINE",
"518 517 LINE",
"238 517 LINE",
"238 699 LINE",
"0 699 LINE",
"0 0 LINE"
);
}
);
width = 518;
}
);
leftKerningGroup = k;
rightKerningGroup = k;
unicode = 006B;
},
{
color = 1;
glyphname = l;
lastChange = "2019-03-30 06:45:14 +0000";
layers = (
{
anchors = (
{
name = bottom;
position = "{125, 0}";
},
{
name = top;
position = "{125, 699}";
}
);
layerId = "35616FF6-3D9C-499B-B113-AC9E0DB5842A";
paths = (
{
closed = 1;
nodes = (
"162 0 LINE",
"162 699 LINE",
"87 699 LINE",
"87 0 LINE"
);
}
);
width = 249;
},
{
anchors = (
{
name = bottom;
position = "{155, 0}";
},
{
name = top;
position = "{155, 699}";
}
);
layerId = "A0D976AB-773B-4D3A-9F7E-7A0C42AF1E7B";
paths = (
{
closed = 1;
nodes = (
"252 0 LINE",
"252 699 LINE",
"59 699 LINE",
"59 0 LINE"
);
}
);
width = 311;
},
{
anchors = (
{
name = bottom;
position = "{119, 0}";
},
{
name = top;
position = "{119, 699}";
}
);
layerId = "3B040282-CF47-4846-BCAF-7BFF90FB63BC";
paths = (
{
closed = 1;
nodes = (
"137 0 LINE",
"137 699 LINE",
"101 699 LINE",
"101 0 LINE"
);
}
);
width = 238;
},
{
anchors = (
{
name = bottom;
position = "{155, 0}";
},
{
name = top;
position = "{155, 699}";
}
);
associatedMasterId = "A0D976AB-773B-4D3A-9F7E-7A0C42AF1E7B";
layerId = "7CCD992D-F3FC-43A6-AAF9-0E04B060D450";
name = bubble;
paths = (
{
closed = 1;
nodes = (
"311 0 LINE",
"311 699 LINE",
"0 699 LINE",
"0 0 LINE"
);
}
);
width = 311;
},
{
anchors = (
{
name = bottom;
position = "{125, 0}";
},
{
name = top;
position = "{125, 699}";
}
);
associatedMasterId = "35616FF6-3D9C-499B-B113-AC9E0DB5842A";
layerId = "14E6116C-714C-4755-B236-F7A435B40EFC";
name = bubble;
paths = (
{
closed = 1;
nodes = (
"249 0 LINE",
"249 699 LINE",
"0 699 LINE",
"0 0 LINE"
);
}
);
width = 249;
},
{
anchors = (
{
name = bottom;
position = "{119, 0}";
},
{
name = top;
position = "{119, 699}";
}
);
associatedMasterId = "3B040282-CF47-4846-BCAF-7BFF90FB63BC";
layerId = "5B9ABEF8-4F9C-4604-B33F-9F81E78BC354";
name = bubble;
paths = (
{
closed = 1;
nodes = (
"238 0 LINE",
"238 699 LINE",
"0 699 LINE",
"0 0 LINE"
);
}
);
width = 238;
}
);
leftKerningGroup = l;
rightKerningGroup = l;
unicode = 006C;
},
{
color = 1;
glyphname = lslash;
lastChange = "2019-04-08 11:35:54 +0000";
layers = (
{
components = (
{
name = l;
transform = "{1, 0, 0, 1, 21, 0}";
}
);
layerId = "3B040282-CF47-4846-BCAF-7BFF90FB63BC";
paths = (
{
closed = 1;
nodes = (
"226 349 LINE",
"226 390 LINE",
"31 290 LINE",
"31 249 LINE"
);
}
);
width = 272;
},
{
components = (
{
name = l;
transform = "{1, 0, 0, 1, 26, 0}";
}
);
layerId = "35616FF6-3D9C-499B-B113-AC9E0DB5842A";
paths = (
{
closed = 1;
nodes = (
"261 354 LINE",
"261 429 LINE",
"28 309 LINE",
"28 234 LINE"
);
}
);
width = 295;
},
{
components = (
{
name = l;
transform = "{1, 0, 0, 1, 54, 0}";
}
);
layerId = "A0D976AB-773B-4D3A-9F7E-7A0C42AF1E7B";
paths = (
{
closed = 1;
nodes = (
"377 350 LINE",
"377 517 LINE",
"29 345 LINE",
"29 178 LINE"
);
}
);
width = 403;
},
{
anchors = (
{
name = bottom;
position = "{298, 0}";
},
{
name = k_arms;
position = "{296, 107}";
},
{
name = loop_left;
position = "{113, 259}";
},
{
name = loop_right;
position = "{306, 259}";
},
{
name = shoulder;
position = "{306, 290}";
},
{
name = top;
position = "{200, 699}";
}
);
associatedMasterId = "A0D976AB-773B-4D3A-9F7E-7A0C42AF1E7B";
layerId = "8EC25D25-35AC-416F-8857-5D5E5335121E";
name = bubble;
paths = (
{
closed = 1;
nodes = (
"403 331 LINE",
"403 563 LINE",
"0 363 LINE",
"0 131 LINE"
);
}
);
width = 403;
},
{
anchors = (
{
name = bottom;
position = "{145, 0}";
},
{
name = k_arms;
position = "{177, 126}";
},
{
name = loop_left;
position = "{113, 259}";
},
{
name = loop_right;
position = "{188, 259}";
},
{
name = shoulder;
position = "{188, 329}";
},
{
name = top;
position = "{143, 699}";
}
);
associatedMasterId = "35616FF6-3D9C-499B-B113-AC9E0DB5842A";
layerId = "6B68C3B2-2D4D-48E8-8B36-72201B56BF54";
name = bubble;
paths = (
{
closed = 1;
nodes = (
"295 333 LINE",
"295 485 LINE",
"0 333 LINE",
"0 181 LINE"
);
}
);
width = 295;
},
{
anchors = (
{
name = bottom;
position = "{129, 0}";
},
{
name = k_arms;
position = "{149, 125}";
},
{
name = loop_left;
position = "{122, 259}";
},
{
name = loop_right;
position = "{158, 259}";
},
{
name = shoulder;
position = "{158, 330}";
},
{
name = top;
position = "{128, 699}";
}
);
associatedMasterId = "3B040282-CF47-4846-BCAF-7BFF90FB63BC";
layerId = "4779D9DF-0BA7-44E8-9CB8-5BDC7392661F";
name = bubble;
paths = (
{
closed = 1;
nodes = (
"272 330 LINE",
"272 456 LINE",
"0 317 LINE",
"0 191 LINE"
);
}
);
width = 272;
}
);
leftKerningGroup = lslash;
rightKerningGroup = lslash;
unicode = 0142;
},
{
color = 1;
glyphname = m;
lastChange = "2019-03-31 02:30:14 +0000";
layers = (
{
layerId = "35616FF6-3D9C-499B-B113-AC9E0DB5842A";
paths = (
{
closed = 1;
nodes = (
"496 0 LINE",
"496 329 LINE SMOOTH",
"496 446 OFFCURVE",
"420 529 OFFCURVE",
"312 529 CURVE SMOOTH",
"220 529 OFFCURVE",
"151 467 OFFCURVE",
"146 379 CURVE",
"162 329 LINE",
"162 407 OFFCURVE",
"220 462 OFFCURVE",
"302 462 CURVE SMOOTH",
"372 462 OFFCURVE",
"421 403 OFFCURVE",
"421 319 CURVE SMOOTH",
"421 0 LINE"
);
},
{
closed = 1;
nodes = (
"162 0 LINE",
"162 517 LINE",
"87 517 LINE",
"87 0 LINE"
);
},
{
closed = 1;
nodes = (
"830 0 LINE",
"830 329 LINE SMOOTH",
"830 446 OFFCURVE",
"754 529 OFFCURVE",
"646 529 CURVE SMOOTH",
"523 529 OFFCURVE",
"432 447 OFFCURVE",
"425 329 CURVE",
"496 329 LINE",
"496 407 OFFCURVE",
"554 462 OFFCURVE",
"636 462 CURVE SMOOTH",
"706 462 OFFCURVE",
"755 403 OFFCURVE",
"755 319 CURVE SMOOTH",
"755 0 LINE"
);
}
);
width = 905;
},
{
layerId = "A0D976AB-773B-4D3A-9F7E-7A0C42AF1E7B";
paths = (
{
closed = 1;
nodes = (
"582 1 LINE",
"582 329 LINE SMOOTH",
"582 446 OFFCURVE",
"494 529 OFFCURVE",
"386 529 CURVE SMOOTH",
"297 529 OFFCURVE",
"234 467 OFFCURVE",
"234 379 CURVE",
"252 300 LINE",
"252 340 OFFCURVE",
"282 369 OFFCURVE",
"325 369 CURVE SMOOTH",
"368 369 OFFCURVE",
"398 338 OFFCURVE",
"398 294 CURVE SMOOTH",
"398 1 LINE"
);
},
{
closed = 1;
nodes = (
"252 1 LINE",
"252 517 LINE",
"59 517 LINE",
"59 1 LINE"
);
},
{
closed = 1;
nodes = (
"912 1 LINE",
"912 329 LINE SMOOTH",
"912 446 OFFCURVE",
"824 529 OFFCURVE",
"716 529 CURVE SMOOTH",
"615 529 OFFCURVE",
"544 467 OFFCURVE",
"544 379 CURVE",
"582 300 LINE",
"582 340 OFFCURVE",
"612 369 OFFCURVE",
"655 369 CURVE SMOOTH",
"698 369 OFFCURVE",
"728 338 OFFCURVE",
"728 294 CURVE SMOOTH",
"728 1 LINE"
);
}
);
width = 961;
},
{
layerId = "3B040282-CF47-4846-BCAF-7BFF90FB63BC";
paths = (
{
closed = 1;
nodes = (
"471 -1 LINE",
"471 339 LINE SMOOTH",
"471 450 OFFCURVE",
"399 529 OFFCURVE",
"296 529 CURVE SMOOTH",
"197 529 OFFCURVE",
"127 472 OFFCURVE",
"127 391 CURVE",
"136 339 LINE",
"136 429 OFFCURVE",
"200 493 OFFCURVE",
"291 493 CURVE SMOOTH",
"375 493 OFFCURVE",
"435 427 OFFCURVE",
"435 334 CURVE SMOOTH",
"435 -1 LINE"
);
},
{
closed = 1;
nodes = (
"136 -1 LINE",
"136 517 LINE",
"100 517 LINE",
"100 -1 LINE"
);
},
{
closed = 1;
nodes = (
"806 -1 LINE",
"806 339 LINE SMOOTH",
"806 450 OFFCURVE",
"734 529 OFFCURVE",
"631 529 CURVE SMOOTH",
"516 529 OFFCURVE",
"436 451 OFFCURVE",
"436 339 CURVE",
"471 339 LINE",
"471 429 OFFCURVE",
"535 493 OFFCURVE",
"626 493 CURVE SMOOTH",
"710 493 OFFCURVE",
"770 427 OFFCURVE",
"770 334 CURVE SMOOTH",
"770 -1 LINE"
);
}
);
width = 892;
},
{
associatedMasterId = "3B040282-CF47-4846-BCAF-7BFF90FB63BC";
layerId = "9FF7102C-7119-4BB7-99AC-CAB2B6720796";
name = bubble;
paths = (
{
closed = 1;
nodes = (
"892 1 LINE",
"892 330 LINE SMOOTH",
"892 496 OFFCURVE",
"790 621 OFFCURVE",
"631 621 CURVE SMOOTH",
"564 621 OFFCURVE",
"505 602 OFFCURVE",
"458 569 CURVE",
"413 602 OFFCURVE",
"358 621 OFFCURVE",
"296 621 CURVE SMOOTH",
"200 621 OFFCURVE",
"118 581 OFFCURVE",
"70 517 CURVE",
"0 517 LINE",
"0 1 LINE"
);
}
);
width = 892;
},
{
associatedMasterId = "35616FF6-3D9C-499B-B113-AC9E0DB5842A";
layerId = "A399B4FF-4108-455B-9ADE-DF2CDB35EDCD";
name = bubble;
paths = (
{
closed = 1;
nodes = (
"905 0 LINE",
"905 329 LINE SMOOTH",
"905 494 OFFCURVE",
"802 616 OFFCURVE",
"646 616 CURVE SMOOTH",
"582 616 OFFCURVE",
"524 595 OFFCURVE",
"480 558 CURVE",
"435 595 OFFCURVE",
"377 616 OFFCURVE",
"312 616 CURVE SMOOTH",
"226 616 OFFCURVE",
"152 578 OFFCURVE",
"107 517 CURVE",
"0 517 LINE",
"0 0 LINE"
);
}
);
width = 905;
},
{
associatedMasterId = "A0D976AB-773B-4D3A-9F7E-7A0C42AF1E7B";
layerId = "C393B8F3-8F53-4833-ACD1-BE90F385381A";
name = bubble;
paths = (
{
closed = 1;
nodes = (
"961 -1 LINE",
"961 329 LINE SMOOTH",
"961 475 OFFCURVE",
"860 588 OFFCURVE",
"716 588 CURVE SMOOTH",
"650 588 OFFCURVE",
"592 566 OFFCURVE",
"551 529 CURVE",
"507 566 OFFCURVE",
"449 588 OFFCURVE",
"386 588 CURVE SMOOTH",
"319 588 OFFCURVE",
"262 561 OFFCURVE",
"224 517 CURVE",
"0 517 LINE",
"0 1 LINE"
);
}
);
width = 961;
}
);
leftKerningGroup = m;
rightKerningGroup = m;
unicode = 006D;
},
{
color = 1;
glyphname = n;
lastChange = "2019-04-07 03:35:55 +0000";
layers = (
{
anchors = (
{
name = bottom;
position = "{306, 0}";
},
{
name = top;
position = "{306, 517}";
}
);
layerId = "35616FF6-3D9C-499B-B113-AC9E0DB5842A";
paths = (
{
closed = 1;
nodes = (
"526 0 LINE",
"526 329 LINE SMOOTH",
"526 448 OFFCURVE",
"447 529 OFFCURVE",
"332 529 CURVE SMOOTH",
"235 529 OFFCURVE",
"151 462 OFFCURVE",
"146 379 CURVE",
"162 329 LINE",
"162 402 OFFCURVE",
"234 462 OFFCURVE",
"322 462 CURVE SMOOTH",
"398 462 OFFCURVE",
"451 404 OFFCURVE",
"451 319 CURVE SMOOTH",
"451 0 LINE"
);
},
{
closed = 1;
nodes = (
"162 0 LINE",
"162 517 LINE",
"87 517 LINE",
"87 0 LINE"
);
}
);
width = 601;
},
{
anchors = (
{
name = bottom;
position = "{317, 0}";
},
{
name = top;
position = "{317, 517}";
}
);
layerId = "A0D976AB-773B-4D3A-9F7E-7A0C42AF1E7B";
paths = (
{
closed = 1;
nodes = (
"588 0 LINE",
"588 329 LINE SMOOTH",
"588 446 OFFCURVE",
"509 529 OFFCURVE",
"398 529 CURVE SMOOTH",
"299 529 OFFCURVE",
"225 467 OFFCURVE",
"220 379 CURVE",
"252 290 LINE",
"252 336 OFFCURVE",
"283 369 OFFCURVE",
"326 369 CURVE SMOOTH",
"372 369 OFFCURVE",
"404 334 OFFCURVE",
"404 284 CURVE SMOOTH",
"404 0 LINE"
);
},
{
closed = 1;
nodes = (
"252 0 LINE",
"252 517 LINE",
"59 517 LINE",
"59 0 LINE"
);
}
);
width = 638;
},
{
anchors = (
{
name = bottom;
position = "{300, 0}";
},
{
name = top;
position = "{300, 517}";
}
);
layerId = "3B040282-CF47-4846-BCAF-7BFF90FB63BC";
paths = (
{
closed = 1;
nodes = (
"499 0 LINE",
"499 339 LINE SMOOTH",
"499 450 OFFCURVE",
"419 529 OFFCURVE",
"306 529 CURVE SMOOTH",
"199 529 OFFCURVE",
"123 459 OFFCURVE",
"123 360 CURVE",
"136 330 LINE",
"136 425 OFFCURVE",
"204 493 OFFCURVE",
"301 493 CURVE SMOOTH",
"396 493 OFFCURVE",
"463 427 OFFCURVE",
"463 334 CURVE SMOOTH",
"463 0 LINE"
);
},
{
closed = 1;
nodes = (
"136 0 LINE",
"136 517 LINE",
"100 517 LINE",
"100 0 LINE"
);
}
);
width = 585;
},
{
anchors = (
{
name = bottom;
position = "{300, 0}";
},
{
name = top;
position = "{300, 517}";
}
);
associatedMasterId = "3B040282-CF47-4846-BCAF-7BFF90FB63BC";
layerId = "EF240872-F1E1-4D63-ABDB-7C991DC0148F";
name = bubble;
paths = (
{
closed = 1;
nodes = (
"585 0 LINE",
"585 339 LINE SMOOTH",
"585 497 OFFCURVE",
"466 615 OFFCURVE",
"306 615 CURVE SMOOTH",
"215 615 OFFCURVE",
"138 578 OFFCURVE",
"90 517 CURVE",
"0 517 LINE",
"0 0 LINE"
);
}
);
width = 585;
},
{
anchors = (
{
name = bottom;
position = "{306, 0}";
},
{
name = top;
position = "{306, 517}";
}
);
associatedMasterId = "35616FF6-3D9C-499B-B113-AC9E0DB5842A";
layerId = "3E471400-2FBA-4DC2-86E8-4FF92BC9C4FA";
name = bubble;
paths = (
{
closed = 1;
nodes = (
"601 0 LINE",
"601 329 LINE SMOOTH",
"601 496 OFFCURVE",
"495 616 OFFCURVE",
"332 616 CURVE SMOOTH",
"245 616 OFFCURVE",
"164 577 OFFCURVE",
"114 517 CURVE",
"0 517 LINE",
"0 0 LINE"
);
}
);
width = 601;
},
{
anchors = (
{
name = bottom;
position = "{317, 0}";
},
{
name = top;
position = "{317, 517}";
}
);
associatedMasterId = "A0D976AB-773B-4D3A-9F7E-7A0C42AF1E7B";
layerId = "52D52F5F-9402-4153-A4B2-0396DDF07C34";
name = bubble;
paths = (
{
closed = 1;
nodes = (
"638 0 LINE",
"638 329 LINE SMOOTH",
"638 478 OFFCURVE",
"542 588 OFFCURVE",
"398 588 CURVE SMOOTH",
"325 588 OFFCURVE",
"262 561 OFFCURVE",
"220 517 CURVE",
"0 517 LINE",
"0 0 LINE"
);
}
);
width = 638;
}
);
leftKerningGroup = n;
rightKerningGroup = n;
unicode = 006E;
},
{
color = 1;
glyphname = o;
lastChange = "2019-04-08 11:36:04 +0000";
layers = (
{
anchors = (
{
name = top;
position = "{309, 517}";
}
);
layerId = "35616FF6-3D9C-499B-B113-AC9E0DB5842A";
paths = (
{
closed = 1;
nodes = (
"455 -12 OFFCURVE",
"575 110 OFFCURVE",
"575 259 CURVE SMOOTH",
"575 408 OFFCURVE",
"455 529 OFFCURVE",
"309 529 CURVE SMOOTH",
"162 529 OFFCURVE",
"42 408 OFFCURVE",
"42 259 CURVE SMOOTH",
"42 110 OFFCURVE",
"162 -12 OFFCURVE",
"309 -12 CURVE SMOOTH"
);
},
{
closed = 1;
nodes = (
"205 55 OFFCURVE",
"120 147 OFFCURVE",
"120 259 CURVE SMOOTH",
"120 371 OFFCURVE",
"205 462 OFFCURVE",
"309 462 CURVE SMOOTH",
"412 462 OFFCURVE",
"497 371 OFFCURVE",
"497 259 CURVE SMOOTH",
"497 147 OFFCURVE",
"412 55 OFFCURVE",
"309 55 CURVE SMOOTH"
);
}
);
width = 617;
},
{
anchors = (
{
name = top;
position = "{321, 517}";
}
);
layerId = "A0D976AB-773B-4D3A-9F7E-7A0C42AF1E7B";
paths = (
{
closed = 1;
nodes = (
"482 -12 OFFCURVE",
"613 110 OFFCURVE",
"613 259 CURVE SMOOTH",
"613 408 OFFCURVE",
"482 529 OFFCURVE",
"321 529 CURVE SMOOTH",
"160 529 OFFCURVE",
"28 408 OFFCURVE",
"28 259 CURVE SMOOTH",
"28 110 OFFCURVE",
"160 -12 OFFCURVE",
"321 -12 CURVE SMOOTH"
);
},
{
closed = 1;
nodes = (
"260 148 OFFCURVE",
"210 198 OFFCURVE",
"210 259 CURVE SMOOTH",
"210 320 OFFCURVE",
"260 369 OFFCURVE",
"321 369 CURVE SMOOTH",
"382 369 OFFCURVE",
"431 320 OFFCURVE",
"431 259 CURVE SMOOTH",
"431 198 OFFCURVE",
"382 148 OFFCURVE",
"321 148 CURVE SMOOTH"
);
}
);
width = 641;
},
{
anchors = (
{
name = top;
position = "{310, 517}";
}
);
layerId = "3B040282-CF47-4846-BCAF-7BFF90FB63BC";
paths = (
{
closed = 1;
nodes = (
"455 -12 OFFCURVE",
"577 112 OFFCURVE",
"577 259 CURVE SMOOTH",
"577 406 OFFCURVE",
"455 529 OFFCURVE",
"310 529 CURVE SMOOTH",
"165 529 OFFCURVE",
"42 406 OFFCURVE",
"42 259 CURVE SMOOTH",
"42 112 OFFCURVE",
"165 -12 OFFCURVE",
"310 -12 CURVE SMOOTH"
);
},
{
closed = 1;
nodes = (
"184 24 OFFCURVE",
"78 131 OFFCURVE",
"78 259 CURVE SMOOTH",
"78 386 OFFCURVE",
"184 493 OFFCURVE",
"310 493 CURVE SMOOTH",
"435 493 OFFCURVE",
"541 386 OFFCURVE",
"541 259 CURVE SMOOTH",
"541 131 OFFCURVE",
"435 24 OFFCURVE",
"310 24 CURVE SMOOTH"
);
}
);
width = 620;
},
{
anchors = (
{
name = top;
position = "{310, 517}";
}
);
associatedMasterId = "3B040282-CF47-4846-BCAF-7BFF90FB63BC";
layerId = "9D457B21-9DB1-4B05-94D1-1D637D197AF8";
name = bubble;
paths = (
{
closed = 1;
nodes = (
"494 -57 OFFCURVE",
"620 73 OFFCURVE",
"620 259 CURVE SMOOTH",
"620 444 OFFCURVE",
"494 574 OFFCURVE",
"310 574 CURVE SMOOTH",
"126 574 OFFCURVE",
"0 444 OFFCURVE",
"0 259 CURVE SMOOTH",
"0 73 OFFCURVE",
"126 -57 OFFCURVE",
"310 -57 CURVE SMOOTH"
);
}
);
width = 620;
},
{
anchors = (
{
name = top;
position = "{288, 517}";
}
);
associatedMasterId = "35616FF6-3D9C-499B-B113-AC9E0DB5842A";
layerId = "6EDE2079-816E-4D7F-AAD8-70FA32706E62";
name = bubble;
paths = (
{
closed = 1;
nodes = (
"490 -54 OFFCURVE",
"617 75 OFFCURVE",
"617 259 CURVE SMOOTH",
"617 443 OFFCURVE",
"490 571 OFFCURVE",
"309 571 CURVE SMOOTH",
"127 571 OFFCURVE",
"0 443 OFFCURVE",
"0 259 CURVE SMOOTH",
"0 75 OFFCURVE",
"127 -54 OFFCURVE",
"309 -54 CURVE SMOOTH"
);
}
);
width = 617;
},
{
anchors = (
{
name = top;
position = "{301, 517}";
}
);
associatedMasterId = "A0D976AB-773B-4D3A-9F7E-7A0C42AF1E7B";
layerId = "2E844D96-DFE8-4404-BB86-66FD13C8B007";
name = bubble;
paths = (
{
closed = 1;
nodes = (
"509 -40 OFFCURVE",
"641 83 OFFCURVE",
"641 259 CURVE SMOOTH",
"641 434 OFFCURVE",
"509 557 OFFCURVE",
"321 557 CURVE SMOOTH",
"132 557 OFFCURVE",
"0 434 OFFCURVE",
"0 259 CURVE SMOOTH",
"0 83 OFFCURVE",
"132 -40 OFFCURVE",
"321 -40 CURVE SMOOTH"
);
}
);
width = 641;
}
);
leftKerningGroup = o;
rightKerningGroup = o;
unicode = 006F;
},
{
color = 1;
glyphname = oslash;
lastChange = "2019-04-08 11:36:13 +0000";
layers = (
{
anchors = (
{
name = top;
position = "{318, 517}";
}
);
layerId = "35616FF6-3D9C-499B-B113-AC9E0DB5842A";
paths = (
{
closed = 1;
nodes = (
"148 0 LINE",
"589 517 LINE",
"504 517 LINE",
"63 0 LINE"
);
},
{
closed = 1;
nodes = (
"464 -12 OFFCURVE",
"584 110 OFFCURVE",
"584 259 CURVE SMOOTH",
"584 408 OFFCURVE",
"464 529 OFFCURVE",
"318 529 CURVE SMOOTH",
"171 529 OFFCURVE",
"51 408 OFFCURVE",
"51 259 CURVE SMOOTH",
"51 110 OFFCURVE",
"171 -12 OFFCURVE",
"318 -12 CURVE SMOOTH"
);
},
{
closed = 1;
nodes = (
"214 55 OFFCURVE",
"129 147 OFFCURVE",
"129 259 CURVE SMOOTH",
"129 371 OFFCURVE",
"214 462 OFFCURVE",
"318 462 CURVE SMOOTH",
"421 462 OFFCURVE",
"506 371 OFFCURVE",
"506 259 CURVE SMOOTH",
"506 147 OFFCURVE",
"421 55 OFFCURVE",
"318 55 CURVE SMOOTH"
);
}
);
width = 641;
},
{
anchors = (
{
name = top;
position = "{323, 517}";
}
);
layerId = "A0D976AB-773B-4D3A-9F7E-7A0C42AF1E7B";
paths = (
{
closed = 1;
nodes = (
"156 0 LINE",
"606 517 LINE",
"486 517 LINE",
"36 0 LINE"
);
},
{
closed = 1;
nodes = (
"484 -12 OFFCURVE",
"615 110 OFFCURVE",
"615 259 CURVE SMOOTH",
"615 408 OFFCURVE",
"484 529 OFFCURVE",
"323 529 CURVE SMOOTH",
"162 529 OFFCURVE",
"30 408 OFFCURVE",
"30 259 CURVE SMOOTH",
"30 110 OFFCURVE",
"162 -12 OFFCURVE",
"323 -12 CURVE SMOOTH"
);
},
{
closed = 1;
nodes = (
"262 148 OFFCURVE",
"212 198 OFFCURVE",
"212 259 CURVE SMOOTH",
"212 320 OFFCURVE",
"262 369 OFFCURVE",
"323 369 CURVE SMOOTH",
"384 369 OFFCURVE",
"433 320 OFFCURVE",
"433 259 CURVE SMOOTH",
"433 198 OFFCURVE",
"384 148 OFFCURVE",
"323 148 CURVE SMOOTH"
);
}
);
width = 645;
},
{
anchors = (
{
name = top;
position = "{322, 517}";
}
);
layerId = "3B040282-CF47-4846-BCAF-7BFF90FB63BC";
paths = (
{
closed = 1;
nodes = (
"133 0 LINE",
"574 517 LINE",
"526 517 LINE",
"85 0 LINE"
);
},
{
closed = 1;
nodes = (
"467 -12 OFFCURVE",
"589 112 OFFCURVE",
"589 259 CURVE SMOOTH",
"589 406 OFFCURVE",
"467 529 OFFCURVE",
"322 529 CURVE SMOOTH",
"177 529 OFFCURVE",
"54 406 OFFCURVE",
"54 259 CURVE SMOOTH",
"54 112 OFFCURVE",
"177 -12 OFFCURVE",
"322 -12 CURVE SMOOTH"
);
},
{
closed = 1;
nodes = (
"196 24 OFFCURVE",
"90 131 OFFCURVE",
"90 259 CURVE SMOOTH",
"90 386 OFFCURVE",
"196 493 OFFCURVE",
"322 493 CURVE SMOOTH",
"447 493 OFFCURVE",
"553 386 OFFCURVE",
"553 259 CURVE SMOOTH",
"553 131 OFFCURVE",
"447 24 OFFCURVE",
"322 24 CURVE SMOOTH"
);
}
);
width = 646;
},
{
associatedMasterId = "A0D976AB-773B-4D3A-9F7E-7A0C42AF1E7B";
layerId = "44B5B345-8AB6-4B92-A683-3F5C8864C544";
name = bubble;
paths = (
{
closed = 1;
nodes = (
"159 0 LINE",
"198 -24 OFFCURVE",
"264 -42 OFFCURVE",
"323 -42 CURVE SMOOTH",
"500 -42 OFFCURVE",
"645 93 OFFCURVE",
"645 259 CURVE SMOOTH",
"645 327 OFFCURVE",
"620 390 OFFCURVE",
"579 440 CURVE",
"645 517 LINE",
"487 517 LINE",
"440 542 OFFCURVE",
"385 559 OFFCURVE",
"323 559 CURVE SMOOTH",
"145 559 OFFCURVE",
"0 424 OFFCURVE",
"0 259 CURVE SMOOTH",
"0 192 OFFCURVE",
"24 129 OFFCURVE",
"65 79 CURVE",
"0 0 LINE"
);
}
);
width = 645;
},
{
associatedMasterId = "35616FF6-3D9C-499B-B113-AC9E0DB5842A";
layerId = "0EDA10B2-AC0D-4580-90AF-D92F8F57DA3E";
name = bubble;
paths = (
{
closed = 1;
nodes = (
"0 0 LINE",
"130 0 LINE",
"179 -38 OFFCURVE",
"250 -63 OFFCURVE",
"318 -63 CURVE SMOOTH",
"492 -63 OFFCURVE",
"641 82 OFFCURVE",
"641 259 CURVE SMOOTH",
"641 324 OFFCURVE",
"621 385 OFFCURVE",
"587 435 CURVE",
"641 517 LINE",
"509 517 LINE",
"456 556 OFFCURVE",
"384 580 OFFCURVE",
"318 580 CURVE SMOOTH",
"143 580 OFFCURVE",
"0 436 OFFCURVE",
"0 259 CURVE SMOOTH",
"0 190 OFFCURVE",
"22 126 OFFCURVE",
"58 74 CURVE"
);
}
);
width = 641;
},
{
associatedMasterId = "3B040282-CF47-4846-BCAF-7BFF90FB63BC";
layerId = "2E840BC6-C78F-4561-8C11-247A12304FAC";
name = bubble;
paths = (
{
closed = 1;
nodes = (
"126 0 LINE",
"180 -41 OFFCURVE",
"250 -68 OFFCURVE",
"322 -68 CURVE SMOOTH",
"498 -68 OFFCURVE",
"645 81 OFFCURVE",
"645 259 CURVE SMOOTH",
"645 328 OFFCURVE",
"623 392 OFFCURVE",
"586 445 CURVE",
"646 517 LINE",
"518 517 LINE",
"469 557 OFFCURVE",
"395 585 OFFCURVE",
"322 585 CURVE SMOOTH",
"146 585 OFFCURVE",
"-2 437 OFFCURVE",
"-2 259 CURVE SMOOTH",
"-2 186 OFFCURVE",
"23 118 OFFCURVE",
"65 63 CURVE",
"11 0 LINE"
);
}
);
width = 646;
}
);
leftKerningGroup = oslash;
rightKerningGroup = oslash;
unicode = 00F8;
},
{
color = 1;
glyphname = oe;
lastChange = "2019-04-08 11:36:17 +0000";
layers = (
{
anchors = (
{
name = bottom;
position = "{797, -12}";
},
{
name = top;
position = "{310, 517}";
}
);
layerId = "3B040282-CF47-4846-BCAF-7BFF90FB63BC";
paths = (
{
closed = 1;
nodes = (
"421 -12 OFFCURVE",
"519 62 OFFCURVE",
"558 162 CURVE",
"596 61 OFFCURVE",
"689 -12 OFFCURVE",
"795 -12 CURVE SMOOTH",
"878 -12 OFFCURVE",
"968 21 OFFCURVE",
"1011 68 CURVE",
"986 95 LINE",
"943 48 OFFCURVE",
"869 24 OFFCURVE",
"795 24 CURVE SMOOTH",
"677 24 OFFCURVE",
"577 132 OFFCURVE",
"577 260 CURVE SMOOTH",
"577 390 OFFCURVE",
"673 493 OFFCURVE",
"795 493 CURVE SMOOTH",
"921 493 OFFCURVE",
"1005 401 OFFCURVE",
"1005 264 CURVE",
"1021 278 LINE",
"562 278 LINE",
"562 242 LINE",
"1041 242 LINE",
"1041 414 OFFCURVE",
"943 529 OFFCURVE",
"795 529 CURVE SMOOTH",
"686 529 OFFCURVE",
"594 459 OFFCURVE",
"558 358 CURVE",
"518 458 OFFCURVE",
"421 529 OFFCURVE",
"310 529 CURVE SMOOTH",
"165 529 OFFCURVE",
"42 407 OFFCURVE",
"42 260 CURVE SMOOTH",
"42 113 OFFCURVE",
"165 -12 OFFCURVE",
"310 -12 CURVE SMOOTH"
);
},
{
closed = 1;
nodes = (
"184 24 OFFCURVE",
"78 132 OFFCURVE",
"78 260 CURVE SMOOTH",
"78 387 OFFCURVE",
"184 493 OFFCURVE",
"310 493 CURVE SMOOTH",
"435 493 OFFCURVE",
"541 387 OFFCURVE",
"541 260 CURVE SMOOTH",
"541 132 OFFCURVE",
"435 24 OFFCURVE",
"310 24 CURVE SMOOTH"
);
}
);
width = 1084;
},
{
anchors = (
{
name = bottom;
position = "{732, -12}";
},
{
name = top;
position = "{309, 517}";
}
);
layerId = "35616FF6-3D9C-499B-B113-AC9E0DB5842A";
paths = (
{
closed = 1;
nodes = (
"404 -12 OFFCURVE",
"488 40 OFFCURVE",
"535 118 CURVE",
"582 38 OFFCURVE",
"667 -12 OFFCURVE",
"759 -12 CURVE SMOOTH",
"831 -12 OFFCURVE",
"922 19 OFFCURVE",
"967 68 CURVE",
"921 117 LINE",
"889 82 OFFCURVE",
"819 55 OFFCURVE",
"758 55 CURVE SMOOTH",
"646 55 OFFCURVE",
"574 144 OFFCURVE",
"574 260 CURVE SMOOTH",
"574 380 OFFCURVE",
"652 462 OFFCURVE",
"755 462 CURVE SMOOTH",
"868 462 OFFCURVE",
"924 374 OFFCURVE",
"924 268 CURVE",
"967 297 LINE",
"548 297 LINE",
"548 230 LINE",
"997 230 LINE",
"997 411 OFFCURVE",
"908 529 OFFCURVE",
"752 529 CURVE SMOOTH",
"661 529 OFFCURVE",
"579 479 OFFCURVE",
"534 402 CURVE",
"487 478 OFFCURVE",
"404 529 OFFCURVE",
"309 529 CURVE SMOOTH",
"162 529 OFFCURVE",
"42 409 OFFCURVE",
"42 260 CURVE SMOOTH",
"42 111 OFFCURVE",
"162 -12 OFFCURVE",
"309 -12 CURVE SMOOTH"
);
},
{
closed = 1;
nodes = (
"205 55 OFFCURVE",
"120 148 OFFCURVE",
"120 260 CURVE SMOOTH",
"120 372 OFFCURVE",
"205 462 OFFCURVE",
"309 462 CURVE SMOOTH",
"412 462 OFFCURVE",
"497 372 OFFCURVE",
"497 260 CURVE SMOOTH",
"497 148 OFFCURVE",
"412 55 OFFCURVE",
"309 55 CURVE SMOOTH"
);
}
);
width = 1036;
},
{
anchors = (
{
name = bottom;
position = "{722, -12}";
},
{
name = top;
position = "{321, 517}";
}
);
layerId = "A0D976AB-773B-4D3A-9F7E-7A0C42AF1E7B";
paths = (
{
closed = 1;
nodes = (
"397 -12 OFFCURVE",
"466 15 OFFCURVE",
"517 60 CURVE",
"567 15 OFFCURVE",
"637 -12 OFFCURVE",
"717 -12 CURVE SMOOTH",
"796 -12 OFFCURVE",
"884 21 OFFCURVE",
"930 68 CURVE",
"824 175 LINE",
"790 148 OFFCURVE",
"748 132 OFFCURVE",
"709 132 CURVE SMOOTH",
"646 132 OFFCURVE",
"610 186 OFFCURVE",
"610 260 CURVE SMOOTH",
"610 334 OFFCURVE",
"646 385 OFFCURVE",
"709 385 CURVE SMOOTH",
"765 385 OFFCURVE",
"800 335 OFFCURVE",
"800 265 CURVE",
"847 314 LINE",
"590 314 LINE",
"590 213 LINE",
"978 213 LINE",
"978 412 OFFCURVE",
"875 529 OFFCURVE",
"709 529 CURVE SMOOTH",
"632 529 OFFCURVE",
"565 503 OFFCURVE",
"516 459 CURVE",
"465 503 OFFCURVE",
"396 529 OFFCURVE",
"321 529 CURVE SMOOTH",
"160 529 OFFCURVE",
"28 409 OFFCURVE",
"28 260 CURVE SMOOTH",
"28 111 OFFCURVE",
"160 -12 OFFCURVE",
"321 -12 CURVE SMOOTH"
);
},
{
closed = 1;
nodes = (
"260 148 OFFCURVE",
"210 199 OFFCURVE",
"210 260 CURVE SMOOTH",
"210 321 OFFCURVE",
"260 369 OFFCURVE",
"321 369 CURVE SMOOTH",
"382 369 OFFCURVE",
"431 321 OFFCURVE",
"431 260 CURVE SMOOTH",
"431 199 OFFCURVE",
"382 148 OFFCURVE",
"321 148 CURVE SMOOTH"
);
}
);
width = 1001;
},
{
anchors = (
{
name = bottom;
position = "{722, -12}";
},
{
name = top;
position = "{321, 517}";
}
);
associatedMasterId = "A0D976AB-773B-4D3A-9F7E-7A0C42AF1E7B";
layerId = "6B3F8ACB-7E08-4CA7-9EE3-748FC85C4D3D";
name = bubble;
paths = (
{
closed = 1;
nodes = (
"390 -37 OFFCURVE",
"460 -14 OFFCURVE",
"515 28 CURVE",
"569 -14 OFFCURVE",
"640 -37 OFFCURVE",
"715 -37 CURVE SMOOTH",
"800 -37 OFFCURVE",
"896 -1 OFFCURVE",
"947 51 CURVE",
"811 188 LINE",
"1000 188 LINE",
"1010 413 OFFCURVE",
"896 554 OFFCURVE",
"707 554 CURVE SMOOTH",
"635 554 OFFCURVE",
"567 532 OFFCURVE",
"514 491 CURVE",
"460 531 OFFCURVE",
"390 554 OFFCURVE",
"319 554 CURVE SMOOTH",
"144 554 OFFCURVE",
"0 422 OFFCURVE",
"0 260 CURVE SMOOTH",
"0 97 OFFCURVE",
"145 -37 OFFCURVE",
"319 -37 CURVE SMOOTH"
);
}
);
width = 1001;
},
{
anchors = (
{
name = bottom;
position = "{732, -12}";
},
{
name = top;
position = "{309, 517}";
}
);
associatedMasterId = "35616FF6-3D9C-499B-B113-AC9E0DB5842A";
layerId = "1C47923A-05DD-4395-8D03-78C7CE49BBA2";
name = bubble;
paths = (
{
closed = 1;
nodes = (
"395 -52 OFFCURVE",
"477 -14 OFFCURVE",
"535 50 CURVE",
"591 -14 OFFCURVE",
"673 -52 OFFCURVE",
"759 -52 CURVE SMOOTH",
"846 -52 OFFCURVE",
"945 -15 OFFCURVE",
"994 39 CURVE",
"852 190 LINE",
"1036 190 LINE",
"1036 420 OFFCURVE",
"938 569 OFFCURVE",
"752 569 CURVE SMOOTH",
"668 569 OFFCURVE",
"589 532 OFFCURVE",
"533 469 CURVE",
"476 532 OFFCURVE",
"395 569 OFFCURVE",
"309 569 CURVE SMOOTH",
"140 569 OFFCURVE",
"0 430 OFFCURVE",
"0 260 CURVE SMOOTH",
"0 89 OFFCURVE",
"140 -52 OFFCURVE",
"309 -52 CURVE SMOOTH"
);
},
{
closed = 1;
nodes = (
"832 211 LINE",
"848 211 LINE",
"844 199 LINE"
);
}
);
width = 1036;
},
{
anchors = (
{
name = bottom;
position = "{797, -12}";
},
{
name = top;
position = "{310, 517}";
}
);
associatedMasterId = "3B040282-CF47-4846-BCAF-7BFF90FB63BC";
layerId = "5AF3BE48-1D73-436D-968E-24E92A7C7179";
name = bubble;
paths = (
{
closed = 1;
nodes = (
"407 -54 OFFCURVE",
"499 -4 OFFCURVE",
"557 74 CURVE",
"613 -5 OFFCURVE",
"701 -54 OFFCURVE",
"795 -54 CURVE SMOOTH",
"888 -54 OFFCURVE",
"989 -17 OFFCURVE",
"1039 37 CURVE",
"889 200 LINE",
"1084 200 LINE",
"1084 418 OFFCURVE",
"979 571 OFFCURVE",
"795 571 CURVE SMOOTH",
"698 571 OFFCURVE",
"611 523 OFFCURVE",
"556 446 CURVE",
"499 523 OFFCURVE",
"407 571 OFFCURVE",
"310 571 CURVE SMOOTH",
"141 571 OFFCURVE",
"0 429 OFFCURVE",
"0 260 CURVE SMOOTH",
"0 90 OFFCURVE",
"142 -54 OFFCURVE",
"310 -54 CURVE SMOOTH"
);
}
);
width = 1084;
}
);
leftKerningGroup = o;
rightKerningGroup = e;
unicode = 0153;
},
{
color = 1;
glyphname = p;
lastChange = "2019-03-30 06:45:14 +0000";
layers = (
{
layerId = "35616FF6-3D9C-499B-B113-AC9E0DB5842A";
paths = (
{
closed = 1;
nodes = (
"486 -12 OFFCURVE",
"588 100 OFFCURVE",
"588 259 CURVE SMOOTH",
"588 417 OFFCURVE",
"486 529 OFFCURVE",
"350 529 CURVE SMOOTH",
"213 529 OFFCURVE",
"123 417 OFFCURVE",
"123 259 CURVE SMOOTH",
"123 100 OFFCURVE",
"213 -12 OFFCURVE",
"350 -12 CURVE SMOOTH"
);
},
{
closed = 1;
nodes = (
"234 55 OFFCURVE",
"162 140 OFFCURVE",
"162 259 CURVE SMOOTH",
"162 378 OFFCURVE",
"234 462 OFFCURVE",
"336 462 CURVE SMOOTH",
"437 462 OFFCURVE",
"509 378 OFFCURVE",
"509 259 CURVE SMOOTH",
"509 140 OFFCURVE",
"437 55 OFFCURVE",
"336 55 CURVE SMOOTH"
);
},
{
closed = 1;
nodes = (
"162 -172 LINE",
"162 517 LINE",
"87 517 LINE",
"87 -172 LINE"
);
}
);
width = 635;
},
{
layerId = "A0D976AB-773B-4D3A-9F7E-7A0C42AF1E7B";
paths = (
{
closed = 1;
nodes = (
"556 -12 OFFCURVE",
"654 100 OFFCURVE",
"654 259 CURVE SMOOTH",
"654 417 OFFCURVE",
"556 529 OFFCURVE",
"417 529 CURVE SMOOTH",
"281 529 OFFCURVE",
"184 417 OFFCURVE",
"184 259 CURVE SMOOTH",
"184 100 OFFCURVE",
"281 -12 OFFCURVE",
"417 -12 CURVE SMOOTH"
);
},
{
closed = 1;
nodes = (
"295 148 OFFCURVE",
"252 194 OFFCURVE",
"252 259 CURVE SMOOTH",
"252 323 OFFCURVE",
"295 369 OFFCURVE",
"356 369 CURVE SMOOTH",
"423 369 OFFCURVE",
"470 323 OFFCURVE",
"470 259 CURVE SMOOTH",
"470 194 OFFCURVE",
"423 148 OFFCURVE",
"356 148 CURVE SMOOTH"
);
},
{
closed = 1;
nodes = (
"252 -172 LINE",
"252 517 LINE",
"59 517 LINE",
"59 -172 LINE"
);
}
);
width = 685;
},
{
layerId = "3B040282-CF47-4846-BCAF-7BFF90FB63BC";
paths = (
{
closed = 1;
nodes = (
"467 -12 OFFCURVE",
"573 112 OFFCURVE",
"573 259 CURVE SMOOTH",
"573 406 OFFCURVE",
"467 529 OFFCURVE",
"341 529 CURVE SMOOTH",
"200 529 OFFCURVE",
"101 417 OFFCURVE",
"101 259 CURVE SMOOTH",
"101 100 OFFCURVE",
"200 -12 OFFCURVE",
"341 -12 CURVE SMOOTH"
);
},
{
closed = 1;
nodes = (
"219 24 OFFCURVE",
"137 121 OFFCURVE",
"137 259 CURVE SMOOTH",
"137 396 OFFCURVE",
"219 493 OFFCURVE",
"334 493 CURVE SMOOTH",
"444 493 OFFCURVE",
"537 386 OFFCURVE",
"537 259 CURVE SMOOTH",
"537 131 OFFCURVE",
"444 24 OFFCURVE",
"334 24 CURVE SMOOTH"
);
},
{
closed = 1;
nodes = (
"137 -172 LINE",
"137 517 LINE",
"101 517 LINE",
"101 -172 LINE"
);
}
);
width = 621;
},
{
associatedMasterId = "A0D976AB-773B-4D3A-9F7E-7A0C42AF1E7B";
layerId = "02782EDD-1ACE-4009-A0B0-8621AD586702";
name = bubble;
paths = (
{
closed = 1;
nodes = (
"284 -172 LINE",
"284 -7 LINE",
"322 -31 OFFCURVE",
"367 -44 OFFCURVE",
"417 -44 CURVE SMOOTH",
"574 -44 OFFCURVE",
"685 83 OFFCURVE",
"685 259 CURVE SMOOTH",
"685 435 OFFCURVE",
"574 561 OFFCURVE",
"417 561 CURVE SMOOTH",
"363 561 OFFCURVE",
"314 545 OFFCURVE",
"273 517 CURVE",
"0 517 LINE",
"0 -172 LINE"
);
}
);
width = 685;
},
{
associatedMasterId = "35616FF6-3D9C-499B-B113-AC9E0DB5842A";
layerId = "63FFD8A7-A800-4990-A8D7-7610A3C43994";
name = bubble;
paths = (
{
closed = 1;
nodes = (
"209 -172 LINE",
"209 -19 LINE",
"249 -45 OFFCURVE",
"297 -59 OFFCURVE",
"350 -59 CURVE SMOOTH",
"514 -59 OFFCURVE",
"635 77 OFFCURVE",
"635 259 CURVE SMOOTH",
"635 441 OFFCURVE",
"514 576 OFFCURVE",
"350 576 CURVE SMOOTH",
"285 576 OFFCURVE",
"227 555 OFFCURVE",
"182 517 CURVE",
"0 517 LINE",
"0 -172 LINE"
);
}
);
width = 635;
},
{
associatedMasterId = "3B040282-CF47-4846-BCAF-7BFF90FB63BC";
layerId = "16440C11-D608-4018-87AE-B6656A616858";
name = bubble;
paths = (
{
closed = 1;
nodes = (
"185 -172 LINE",
"185 -14 LINE",
"229 -44 OFFCURVE",
"282 -60 OFFCURVE",
"341 -60 CURVE SMOOTH",
"494 -60 OFFCURVE",
"621 86 OFFCURVE",
"621 259 CURVE SMOOTH",
"621 432 OFFCURVE",
"494 577 OFFCURVE",
"341 577 CURVE SMOOTH",
"273 577 OFFCURVE",
"213 555 OFFCURVE",
"165 517 CURVE",
"0 517 LINE",
"0 -172 LINE"
);
}
);
width = 621;
}
);
leftKerningGroup = p;
rightKerningGroup = p;
unicode = 0070;
},
{
color = 1;
glyphname = thorn;
lastChange = "2019-04-07 03:57:42 +0000";
layers = (
{
anchors = (
{
name = _loop_right;
position = "{138, 259}";
},
{
name = loop_right;
position = "{138, 259}";
}
);
layerId = "3B040282-CF47-4846-BCAF-7BFF90FB63BC";
paths = (
{
closed = 1;
nodes = (
"468 -12 OFFCURVE",
"574 112 OFFCURVE",
"574 259 CURVE SMOOTH",
"574 406 OFFCURVE",
"468 529 OFFCURVE",
"342 529 CURVE SMOOTH",
"201 529 OFFCURVE",
"102 417 OFFCURVE",
"102 259 CURVE SMOOTH",
"102 100 OFFCURVE",
"201 -12 OFFCURVE",
"342 -12 CURVE SMOOTH"
);
},
{
closed = 1;
nodes = (
"220 24 OFFCURVE",
"138 121 OFFCURVE",
"138 259 CURVE SMOOTH",
"138 396 OFFCURVE",
"220 493 OFFCURVE",
"335 493 CURVE SMOOTH",
"445 493 OFFCURVE",
"538 386 OFFCURVE",
"538 259 CURVE SMOOTH",
"538 131 OFFCURVE",
"445 24 OFFCURVE",
"335 24 CURVE SMOOTH"
);
},
{
closed = 1;
nodes = (
"138 -172 LINE",
"138 699 LINE",
"102 699 LINE",
"102 -172 LINE"
);
}
);
width = 622;
},
{
anchors = (
{
name = _loop_right;
position = "{163, 259}";
},
{
name = loop_right;
position = "{163, 259}";
}
);
layerId = "35616FF6-3D9C-499B-B113-AC9E0DB5842A";
paths = (
{
closed = 1;
nodes = (
"487 -12 OFFCURVE",
"589 100 OFFCURVE",
"589 259 CURVE SMOOTH",
"589 417 OFFCURVE",
"487 529 OFFCURVE",
"351 529 CURVE SMOOTH",
"214 529 OFFCURVE",
"124 417 OFFCURVE",
"124 259 CURVE SMOOTH",
"124 100 OFFCURVE",
"214 -12 OFFCURVE",
"351 -12 CURVE SMOOTH"
);
},
{
closed = 1;
nodes = (
"235 55 OFFCURVE",
"163 140 OFFCURVE",
"163 259 CURVE SMOOTH",
"163 378 OFFCURVE",
"235 462 OFFCURVE",
"337 462 CURVE SMOOTH",
"438 462 OFFCURVE",
"510 378 OFFCURVE",
"510 259 CURVE SMOOTH",
"510 140 OFFCURVE",
"438 55 OFFCURVE",
"337 55 CURVE SMOOTH"
);
},
{
closed = 1;
nodes = (
"163 -172 LINE",
"163 699 LINE",
"88 699 LINE",
"88 -172 LINE"
);
}
);
width = 636;
},
{
anchors = (
{
name = _loop_right;
position = "{252, 259}";
},
{
name = loop_right;
position = "{252, 259}";
}
);
layerId = "A0D976AB-773B-4D3A-9F7E-7A0C42AF1E7B";
paths = (
{
closed = 1;
nodes = (
"556 -12 OFFCURVE",
"654 100 OFFCURVE",
"654 259 CURVE SMOOTH",
"654 417 OFFCURVE",
"556 529 OFFCURVE",
"417 529 CURVE SMOOTH",
"281 529 OFFCURVE",
"184 417 OFFCURVE",
"184 259 CURVE SMOOTH",
"184 100 OFFCURVE",
"281 -12 OFFCURVE",
"417 -12 CURVE SMOOTH"
);
},
{
closed = 1;
nodes = (
"295 148 OFFCURVE",
"252 194 OFFCURVE",
"252 259 CURVE SMOOTH",
"252 323 OFFCURVE",
"295 369 OFFCURVE",
"356 369 CURVE SMOOTH",
"423 369 OFFCURVE",
"470 323 OFFCURVE",
"470 259 CURVE SMOOTH",
"470 194 OFFCURVE",
"423 148 OFFCURVE",
"356 148 CURVE SMOOTH"
);
},
{
closed = 1;
nodes = (
"252 -172 LINE",
"252 699 LINE",
"59 699 LINE",
"59 -172 LINE"
);
}
);
width = 685;
},
{
anchors = (
{
name = _loop_right;
position = "{252, 259}";
},
{
name = loop_right;
position = "{252, 259}";
}
);
associatedMasterId = "A0D976AB-773B-4D3A-9F7E-7A0C42AF1E7B";
layerId = "54484317-4A2E-4C1F-AB7C-C5C36AB6ED3A";
name = bubble;
paths = (
{
closed = 1;
nodes = (
"574 -43 OFFCURVE",
"685 83 OFFCURVE",
"685 259 CURVE SMOOTH",
"685 434 OFFCURVE",
"573 560 OFFCURVE",
"417 560 CURVE SMOOTH",
"263 560 OFFCURVE",
"153 434 OFFCURVE",
"153 259 CURVE SMOOTH",
"153 83 OFFCURVE",
"263 -43 OFFCURVE",
"417 -43 CURVE SMOOTH"
);
},
{
closed = 1;
nodes = (
"283 -172 LINE",
"283 699 LINE",
"0 699 LINE",
"0 -172 LINE"
);
}
);
width = 685;
},
{
anchors = (
{
name = _loop_right;
position = "{163, 259}";
},
{
name = loop_right;
position = "{163, 259}";
}
);
associatedMasterId = "35616FF6-3D9C-499B-B113-AC9E0DB5842A";
layerId = "04404DE2-DAF9-4BD6-AAD5-99BED1311701";
name = bubble;
paths = (
{
closed = 1;
nodes = (
"515 -59 OFFCURVE",
"636 77 OFFCURVE",
"636 259 CURVE SMOOTH",
"636 441 OFFCURVE",
"515 576 OFFCURVE",
"351 576 CURVE SMOOTH",
"189 576 OFFCURVE",
"77 445 OFFCURVE",
"77 259 CURVE SMOOTH",
"77 72 OFFCURVE",
"189 -59 OFFCURVE",
"351 -59 CURVE SMOOTH"
);
},
{
closed = 1;
nodes = (
"210 -172 LINE",
"210 699 LINE",
"0 699 LINE",
"0 -172 LINE"
);
}
);
width = 636;
},
{
anchors = (
{
name = _loop_right;
position = "{138, 259}";
},
{
name = loop_right;
position = "{138, 259}";
}
);
associatedMasterId = "3B040282-CF47-4846-BCAF-7BFF90FB63BC";
layerId = "45756301-81C7-4CCF-A979-36599DF8E6BB";
name = bubble;
paths = (
{
closed = 1;
nodes = (
"495 -60 OFFCURVE",
"622 86 OFFCURVE",
"622 259 CURVE SMOOTH",
"622 432 OFFCURVE",
"495 577 OFFCURVE",
"342 577 CURVE SMOOTH",
"174 577 OFFCURVE",
"54 444 OFFCURVE",
"54 259 CURVE SMOOTH",
"54 74 OFFCURVE",
"174 -60 OFFCURVE",
"342 -60 CURVE SMOOTH"
);
},
{
closed = 1;
nodes = (
"186 -172 LINE",
"186 699 LINE",
"0 699 LINE",
"0 -172 LINE"
);
}
);
width = 622;
}
);
leftKerningGroup = p;
rightKerningGroup = p;
unicode = 00FE;
},
{
color = 1;
glyphname = q;
lastChange = "2019-03-30 06:45:14 +0000";
layers = (
{
layerId = "35616FF6-3D9C-499B-B113-AC9E0DB5842A";
paths = (
{
closed = 1;
nodes = (
"548 -172 LINE",
"548 517 LINE",
"473 517 LINE",
"473 -172 LINE"
);
},
{
closed = 1;
nodes = (
"422 -12 OFFCURVE",
"512 100 OFFCURVE",
"512 259 CURVE SMOOTH",
"512 417 OFFCURVE",
"422 529 OFFCURVE",
"285 529 CURVE SMOOTH",
"149 529 OFFCURVE",
"47 417 OFFCURVE",
"47 259 CURVE SMOOTH",
"47 100 OFFCURVE",
"149 -12 OFFCURVE",
"285 -12 CURVE SMOOTH"
);
},
{
closed = 1;
nodes = (
"198 55 OFFCURVE",
"126 140 OFFCURVE",
"126 259 CURVE SMOOTH",
"126 378 OFFCURVE",
"198 462 OFFCURVE",
"299 462 CURVE SMOOTH",
"401 462 OFFCURVE",
"473 378 OFFCURVE",
"473 259 CURVE SMOOTH",
"473 140 OFFCURVE",
"401 55 OFFCURVE",
"299 55 CURVE SMOOTH"
);
}
);
width = 635;
},
{
layerId = "A0D976AB-773B-4D3A-9F7E-7A0C42AF1E7B";
paths = (
{
closed = 1;
nodes = (
"627 -172 LINE",
"627 517 LINE",
"434 517 LINE",
"434 -172 LINE"
);
},
{
closed = 1;
nodes = (
"405 -12 OFFCURVE",
"502 100 OFFCURVE",
"502 259 CURVE SMOOTH",
"502 417 OFFCURVE",
"405 529 OFFCURVE",
"269 529 CURVE SMOOTH",
"130 529 OFFCURVE",
"32 417 OFFCURVE",
"32 259 CURVE SMOOTH",
"32 100 OFFCURVE",
"130 -12 OFFCURVE",
"269 -12 CURVE SMOOTH"
);
},
{
closed = 1;
nodes = (
"263 148 OFFCURVE",
"216 194 OFFCURVE",
"216 259 CURVE SMOOTH",
"216 323 OFFCURVE",
"263 369 OFFCURVE",
"330 369 CURVE SMOOTH",
"391 369 OFFCURVE",
"434 323 OFFCURVE",
"434 259 CURVE SMOOTH",
"434 194 OFFCURVE",
"391 148 OFFCURVE",
"330 148 CURVE SMOOTH"
);
}
);
width = 686;
},
{
layerId = "3B040282-CF47-4846-BCAF-7BFF90FB63BC";
paths = (
{
closed = 1;
nodes = (
"520 -172 LINE",
"520 517 LINE",
"484 517 LINE",
"484 -172 LINE"
);
},
{
closed = 1;
nodes = (
"421 -12 OFFCURVE",
"520 100 OFFCURVE",
"520 259 CURVE SMOOTH",
"520 417 OFFCURVE",
"421 529 OFFCURVE",
"280 529 CURVE SMOOTH",
"154 529 OFFCURVE",
"48 406 OFFCURVE",
"48 259 CURVE SMOOTH",
"48 112 OFFCURVE",
"154 -12 OFFCURVE",
"280 -12 CURVE SMOOTH"
);
},
{
closed = 1;
nodes = (
"177 24 OFFCURVE",
"84 131 OFFCURVE",
"84 259 CURVE SMOOTH",
"84 386 OFFCURVE",
"177 493 OFFCURVE",
"287 493 CURVE SMOOTH",
"402 493 OFFCURVE",
"484 396 OFFCURVE",
"484 259 CURVE SMOOTH",
"484 121 OFFCURVE",
"402 24 OFFCURVE",
"287 24 CURVE SMOOTH"
);
}
);
width = 621;
},
{
associatedMasterId = "A0D976AB-773B-4D3A-9F7E-7A0C42AF1E7B";
layerId = "5FBB4267-DE80-448D-AFDB-50F506F1158F";
name = bubble;
paths = (
{
closed = 1;
nodes = (
"686 -172 LINE",
"686 517 LINE",
"413 517 LINE",
"372 545 OFFCURVE",
"323 561 OFFCURVE",
"269 561 CURVE SMOOTH",
"112 561 OFFCURVE",
"0 435 OFFCURVE",
"0 259 CURVE SMOOTH",
"0 83 OFFCURVE",
"112 -44 OFFCURVE",
"269 -44 CURVE SMOOTH",
"319 -44 OFFCURVE",
"364 -31 OFFCURVE",
"402 -7 CURVE",
"402 -172 LINE"
);
}
);
width = 686;
},
{
associatedMasterId = "35616FF6-3D9C-499B-B113-AC9E0DB5842A";
layerId = "D441A675-73EB-4789-A931-E99AD2BB1DF0";
name = bubble;
paths = (
{
closed = 1;
nodes = (
"0 77 OFFCURVE",
"121 -59 OFFCURVE",
"285 -59 CURVE SMOOTH",
"338 -59 OFFCURVE",
"386 -45 OFFCURVE",
"426 -19 CURVE",
"426 -172 LINE",
"635 -172 LINE",
"635 517 LINE",
"453 517 LINE",
"408 555 OFFCURVE",
"350 576 OFFCURVE",
"285 576 CURVE SMOOTH",
"121 576 OFFCURVE",
"0 441 OFFCURVE",
"0 259 CURVE SMOOTH"
);
}
);
width = 635;
},
{
associatedMasterId = "3B040282-CF47-4846-BCAF-7BFF90FB63BC";
layerId = "1B1083E1-10E7-4A70-915F-C77C70BB915F";
name = bubble;
paths = (
{
closed = 1;
nodes = (
"0 86 OFFCURVE",
"127 -60 OFFCURVE",
"280 -60 CURVE SMOOTH",
"339 -60 OFFCURVE",
"392 -44 OFFCURVE",
"436 -14 CURVE",
"436 -172 LINE",
"621 -172 LINE",
"621 517 LINE",
"456 517 LINE",
"408 555 OFFCURVE",
"348 577 OFFCURVE",
"280 577 CURVE SMOOTH",
"127 577 OFFCURVE",
"0 432 OFFCURVE",
"0 259 CURVE SMOOTH"
);
}
);
width = 621;
}
);
leftKerningGroup = q;
rightKerningGroup = q;
unicode = 0071;
},
{
color = 1;
glyphname = r;
lastChange = "2019-03-30 06:45:14 +0000";
layers = (
{
anchors = (
{
name = bottom;
position = "{219, 0}";
},
{
name = top;
position = "{219, 517}";
}
);
layerId = "35616FF6-3D9C-499B-B113-AC9E0DB5842A";
paths = (
{
closed = 1;
nodes = (
"162 390 OFFCURVE",
"245 462 OFFCURVE",
"362 462 CURVE",
"362 529 LINE",
"235 529 OFFCURVE",
"146 450 OFFCURVE",
"146 339 CURVE",
"162 289 LINE"
);
},
{
closed = 1;
nodes = (
"162 0 LINE",
"162 517 LINE",
"87 517 LINE",
"87 0 LINE"
);
}
);
width = 368;
},
{
anchors = (
{
name = bottom;
position = "{228, 0}";
},
{
name = top;
position = "{228, 517}";
}
);
layerId = "A0D976AB-773B-4D3A-9F7E-7A0C42AF1E7B";
paths = (
{
closed = 1;
nodes = (
"252 313 OFFCURVE",
"312 369 OFFCURVE",
"414 369 CURVE",
"414 529 LINE",
"300 529 OFFCURVE",
"219 425 OFFCURVE",
"219 279 CURVE",
"252 219 LINE"
);
},
{
closed = 1;
nodes = (
"252 0 LINE",
"252 517 LINE",
"59 517 LINE",
"59 0 LINE"
);
}
);
width = 438;
},
{
anchors = (
{
name = bottom;
position = "{202, 0}";
},
{
name = top;
position = "{202, 517}";
}
);
layerId = "3B040282-CF47-4846-BCAF-7BFF90FB63BC";
paths = (
{
closed = 1;
nodes = (
"136 408 OFFCURVE",
"219 493 OFFCURVE",
"336 493 CURVE",
"336 529 LINE",
"224 529 OFFCURVE",
"130 451 OFFCURVE",
"130 359 CURVE",
"136 289 LINE"
);
},
{
closed = 1;
nodes = (
"136 0 LINE",
"136 517 LINE",
"100 517 LINE",
"100 0 LINE"
);
}
);
width = 318;
},
{
anchors = (
{
name = bottom;
position = "{228, 0}";
},
{
name = top;
position = "{228, 517}";
}
);
associatedMasterId = "A0D976AB-773B-4D3A-9F7E-7A0C42AF1E7B";
layerId = "068EB0F2-DCCA-4E44-AAD5-DE19227F0F38";
name = bubble;
paths = (
{
closed = 1;
nodes = (
"284 0 LINE",
"284 219 LINE SMOOTH",
"284 295 OFFCURVE",
"329 337 OFFCURVE",
"414 337 CURVE",
"414 561 LINE",
"364 561 OFFCURVE",
"320 544 OFFCURVE",
"284 515 CURVE",
"284 517 LINE",
"0 517 LINE",
"0 0 LINE"
);
}
);
width = 438;
},
{
anchors = (
{
name = bottom;
position = "{219, 0}";
},
{
name = top;
position = "{219, 517}";
}
);
associatedMasterId = "35616FF6-3D9C-499B-B113-AC9E0DB5842A";
layerId = "7781FC4E-5A1D-4071-A79F-8922DFD7165B";
name = bubble;
paths = (
{
closed = 1;
nodes = (
"209 0 LINE",
"209 289 LINE SMOOTH",
"209 363 OFFCURVE",
"270 415 OFFCURVE",
"362 415 CURVE",
"362 576 LINE",
"291 576 OFFCURVE",
"228 554 OFFCURVE",
"182 517 CURVE",
"0 517 LINE",
"0 0 LINE"
);
}
);
width = 368;
},
{
anchors = (
{
name = bottom;
position = "{202, 0}";
},
{
name = top;
position = "{202, 517}";
}
);
associatedMasterId = "3B040282-CF47-4846-BCAF-7BFF90FB63BC";
layerId = "D72B721D-B78B-41C2-A4DA-A4400A239450";
name = bubble;
paths = (
{
closed = 1;
nodes = (
"184 0 LINE",
"184 289 LINE SMOOTH",
"184 382 OFFCURVE",
"246 445 OFFCURVE",
"336 445 CURVE",
"336 577 LINE",
"269 577 OFFCURVE",
"208 554 OFFCURVE",
"162 517 CURVE",
"0 517 LINE",
"0 0 LINE"
);
}
);
width = 318;
}
);
leftKerningGroup = r;
rightKerningGroup = r;
unicode = 0072;
},
{
color = 1;
glyphname = s;
lastChange = "2019-03-31 02:39:40 +0000";
layers = (
{
anchors = (
{
name = bottom;
position = "{236, 0}";
},
{
name = top;
position = "{239, 517}";
}
);
layerId = "35616FF6-3D9C-499B-B113-AC9E0DB5842A";
paths = (
{
closed = 1;
nodes = (
"354 -12 OFFCURVE",
"436 49 OFFCURVE",
"436 144 CURVE SMOOTH",
"436 242 OFFCURVE",
"350 270 OFFCURVE",
"267 296 CURVE SMOOTH",
"171 327 OFFCURVE",
"133 341 OFFCURVE",
"133 386 CURVE SMOOTH",
"133 436 OFFCURVE",
"181 462 OFFCURVE",
"239 462 CURVE SMOOTH",
"285 462 OFFCURVE",
"336 446 OFFCURVE",
"388 413 CURVE",
"424 471 LINE",
"369 507 OFFCURVE",
"303 529 OFFCURVE",
"239 529 CURVE SMOOTH",
"136 529 OFFCURVE",
"58 471 OFFCURVE",
"58 377 CURVE SMOOTH",
"58 303 OFFCURVE",
"106 266 OFFCURVE",
"231 230 CURVE SMOOTH",
"301 210 OFFCURVE",
"361 192 OFFCURVE",
"361 136 CURVE SMOOTH",
"361 87 OFFCURVE",
"315 55 OFFCURVE",
"247 55 CURVE SMOOTH",
"190 55 OFFCURVE",
"131 77 OFFCURVE",
"72 120 CURVE",
"33 65 LINE",
"95 15 OFFCURVE",
"175 -12 OFFCURVE",
"247 -12 CURVE SMOOTH"
);
}
);
width = 478;
},
{
anchors = (
{
name = bottom;
position = "{261, 0}";
},
{
name = top;
position = "{260, 517}";
}
);
layerId = "A0D976AB-773B-4D3A-9F7E-7A0C42AF1E7B";
paths = (
{
closed = 1;
nodes = (
"407 -12 OFFCURVE",
"492 56 OFFCURVE",
"492 163 CURVE SMOOTH",
"492 285 OFFCURVE",
"384 316 OFFCURVE",
"290 337 CURVE SMOOTH",
"238 349 OFFCURVE",
"215 352 OFFCURVE",
"215 369 CURVE SMOOTH",
"215 384 OFFCURVE",
"233 398 OFFCURVE",
"260 398 CURVE SMOOTH",
"309 398 OFFCURVE",
"368 371 OFFCURVE",
"411 343 CURVE",
"476 461 LINE",
"417 500 OFFCURVE",
"340 529 OFFCURVE",
"260 529 CURVE SMOOTH",
"125 529 OFFCURVE",
"44 451 OFFCURVE",
"44 351 CURVE SMOOTH",
"44 229 OFFCURVE",
"149 206 OFFCURVE",
"243 186 CURVE SMOOTH",
"291 176 OFFCURVE",
"321 166 OFFCURVE",
"321 148 CURVE SMOOTH",
"321 131 OFFCURVE",
"308 122 OFFCURVE",
"272 122 CURVE SMOOTH",
"217 122 OFFCURVE",
"143 148 OFFCURVE",
"93 183 CURVE",
"21 66 LINE",
"84 17 OFFCURVE",
"177 -12 OFFCURVE",
"267 -12 CURVE SMOOTH"
);
}
);
width = 519;
},
{
anchors = (
{
name = bottom;
position = "{234, 0}";
},
{
name = top;
position = "{238, 517}";
}
);
layerId = "3B040282-CF47-4846-BCAF-7BFF90FB63BC";
paths = (
{
closed = 1;
nodes = (
"342 -12 OFFCURVE",
"424 50 OFFCURVE",
"424 124 CURVE SMOOTH",
"424 197 OFFCURVE",
"376 241 OFFCURVE",
"256 279 CURVE SMOOTH",
"146 314 OFFCURVE",
"102 349 OFFCURVE",
"102 401 CURVE SMOOTH",
"102 451 OFFCURVE",
"164 493 OFFCURVE",
"237 493 CURVE SMOOTH",
"290 493 OFFCURVE",
"350 474 OFFCURVE",
"400 443 CURVE",
"422 471 LINE",
"366 507 OFFCURVE",
"298 529 OFFCURVE",
"237 529 CURVE SMOOTH",
"144 529 OFFCURVE",
"66 469 OFFCURVE",
"66 397 CURVE SMOOTH",
"66 328 OFFCURVE",
"115 285 OFFCURVE",
"238 247 CURVE SMOOTH",
"345 214 OFFCURVE",
"388 178 OFFCURVE",
"388 120 CURVE SMOOTH",
"388 68 OFFCURVE",
"323 24 OFFCURVE",
"245 24 CURVE SMOOTH",
"184 24 OFFCURVE",
"113 50 OFFCURVE",
"53 93 CURVE",
"31 65 LINE",
"91 17 OFFCURVE",
"171 -12 OFFCURVE",
"245 -12 CURVE SMOOTH"
);
}
);
width = 473;
},
{
anchors = (
{
name = bottom;
position = "{234, 0}";
},
{
name = top;
position = "{238, 517}";
}
);
associatedMasterId = "3B040282-CF47-4846-BCAF-7BFF90FB63BC";
layerId = "6FB9F396-B856-4A09-9414-91B2B92C106E";
name = bubble;
paths = (
{
closed = 1;
nodes = (
"369 -61 OFFCURVE",
"473 22 OFFCURVE",
"473 124 CURVE SMOOTH",
"473 210 OFFCURVE",
"423 268 OFFCURVE",
"314 311 CURVE",
"448 512 LINE",
"384 553 OFFCURVE",
"305 578 OFFCURVE",
"237 578 CURVE SMOOTH",
"117 578 OFFCURVE",
"17 497 OFFCURVE",
"17 397 CURVE SMOOTH",
"17 320 OFFCURVE",
"60 267 OFFCURVE",
"153 226 CURVE",
"0 27 LINE",
"69 -28 OFFCURVE",
"161 -61 OFFCURVE",
"245 -61 CURVE SMOOTH"
);
}
);
width = 473;
},
{
anchors = (
{
name = bottom;
position = "{236, 0}";
},
{
name = top;
position = "{239, 517}";
}
);
associatedMasterId = "35616FF6-3D9C-499B-B113-AC9E0DB5842A";
layerId = "DC1A06B8-3FA5-4880-8B18-0BD9AB18E772";
name = bubble;
paths = (
{
closed = 1;
nodes = (
"383 -58 OFFCURVE",
"482 26 OFFCURVE",
"482 144 CURVE SMOOTH",
"482 249 OFFCURVE",
"406 295 OFFCURVE",
"333 323 CURVE",
"448 510 LINE",
"385 551 OFFCURVE",
"309 575 OFFCURVE",
"239 575 CURVE SMOOTH",
"106 575 OFFCURVE",
"12 494 OFFCURVE",
"12 377 CURVE SMOOTH",
"12 299 OFFCURVE",
"50 251 OFFCURVE",
"140 213 CURVE",
"6 28 LINE",
"73 -26 OFFCURVE",
"164 -58 OFFCURVE",
"247 -58 CURVE SMOOTH"
);
}
);
width = 478;
},
{
anchors = (
{
name = bottom;
position = "{261, 0}";
},
{
name = top;
position = "{260, 517}";
}
);
associatedMasterId = "A0D976AB-773B-4D3A-9F7E-7A0C42AF1E7B";
layerId = "EDC93564-680E-4E30-A57A-C77C392FD0A5";
name = bubble;
paths = (
{
closed = 1;
nodes = (
"423 -44 OFFCURVE",
"519 36 OFFCURVE",
"519 163 CURVE SMOOTH",
"519 256 OFFCURVE",
"470 306 OFFCURVE",
"406 334 CURVE",
"491 490 LINE",
"422 535 OFFCURVE",
"337 561 OFFCURVE",
"260 561 CURVE SMOOTH",
"114 561 OFFCURVE",
"12 475 OFFCURVE",
"12 351 CURVE SMOOTH",
"12 270 OFFCURVE",
"51 225 OFFCURVE",
"102 197 CURVE",
"0 32 LINE",
"68 -20 OFFCURVE",
"171 -44 OFFCURVE",
"267 -44 CURVE SMOOTH"
);
}
);
width = 519;
}
);
leftKerningGroup = s;
rightKerningGroup = s;
unicode = 0073;
},
{
glyphname = germandbls;
lastChange = "2019-04-08 11:36:37 +0000";
layers = (
{
layerId = "35616FF6-3D9C-499B-B113-AC9E0DB5842A";
paths = (
{
closed = 1;
nodes = (
"165 0 LINE",
"165 513 LINE SMOOTH",
"165 585 OFFCURVE",
"219 636 OFFCURVE",
"295 636 CURVE SMOOTH",
"371 636 OFFCURVE",
"425 586 OFFCURVE",
"425 516 CURVE SMOOTH",
"425 452 OFFCURVE",
"371 396 OFFCURVE",
"295 396 CURVE SMOOTH",
"240 396 LINE",
"240 325 LINE",
"307 325 LINE SMOOTH",
"392 325 OFFCURVE",
"452 272 OFFCURVE",
"452 198 CURVE SMOOTH",
"452 124 OFFCURVE",
"392 71 OFFCURVE",
"307 71 CURVE SMOOTH",
"240 71 LINE",
"240 0 LINE",
"327 0 LINE SMOOTH",
"446 0 OFFCURVE",
"531 78 OFFCURVE",
"531 188 CURVE SMOOTH",
"531 274 OFFCURVE",
"491 331 OFFCURVE",
"406 365 CURVE",
"472 395 OFFCURVE",
"504 447 OFFCURVE",
"504 526 CURVE SMOOTH",
"504 632 OFFCURVE",
"418 707 OFFCURVE",
"296 707 CURVE SMOOTH",
"174 707 OFFCURVE",
"87 632 OFFCURVE",
"87 526 CURVE SMOOTH",
"87 0 LINE"
);
}
);
width = 579;
},
{
layerId = "A0D976AB-773B-4D3A-9F7E-7A0C42AF1E7B";
paths = (
{
closed = 1;
nodes = (
"251 0 LINE",
"251 463 LINE SMOOTH",
"251 502 OFFCURVE",
"281 524 OFFCURVE",
"321 524 CURVE SMOOTH",
"364 524 OFFCURVE",
"390 502 OFFCURVE",
"390 472 CURVE SMOOTH",
"390 442 OFFCURVE",
"361 420 OFFCURVE",
"321 420 CURVE SMOOTH",
"320 420 LINE",
"320 273 LINE",
"350 273 LINE SMOOTH",
"392 273 OFFCURVE",
"422 250 OFFCURVE",
"422 218 CURVE SMOOTH",
"422 186 OFFCURVE",
"392 163 OFFCURVE",
"350 163 CURVE SMOOTH",
"320 163 LINE",
"320 0 LINE",
"382 0 LINE SMOOTH",
"522 0 OFFCURVE",
"622 75 OFFCURVE",
"622 185 CURVE SMOOTH",
"622 271 OFFCURVE",
"579 335 OFFCURVE",
"505 360 CURVE",
"559 380 OFFCURVE",
"590 436 OFFCURVE",
"590 514 CURVE SMOOTH",
"590 637 OFFCURVE",
"480 724 OFFCURVE",
"324 724 CURVE SMOOTH",
"168 724 OFFCURVE",
"58 637 OFFCURVE",
"58 514 CURVE SMOOTH",
"58 0 LINE"
);
}
);
width = 649;
},
{
layerId = "3B040282-CF47-4846-BCAF-7BFF90FB63BC";
paths = (
{
closed = 1;
nodes = (
"137 0 LINE",
"137 517 LINE SMOOTH",
"137 601 OFFCURVE",
"206 671 OFFCURVE",
"289 671 CURVE SMOOTH",
"371 671 OFFCURVE",
"440 602 OFFCURVE",
"440 519 CURVE SMOOTH",
"440 437 OFFCURVE",
"378 379 OFFCURVE",
"291 379 CURVE SMOOTH",
"223 379 LINE",
"223 343 LINE",
"297 343 LINE SMOOTH",
"397 343 OFFCURVE",
"467 282 OFFCURVE",
"467 196 CURVE SMOOTH",
"467 109 OFFCURVE",
"391 36 OFFCURVE",
"300 36 CURVE SMOOTH",
"223 36 LINE",
"223 0 LINE",
"320 0 LINE SMOOTH",
"419 0 OFFCURVE",
"503 87 OFFCURVE",
"503 191 CURVE SMOOTH",
"503 264 OFFCURVE",
"456 336 OFFCURVE",
"389 365 CURVE",
"440 389 OFFCURVE",
"476 455 OFFCURVE",
"476 524 CURVE SMOOTH",
"476 623 OFFCURVE",
"391 707 OFFCURVE",
"289 707 CURVE SMOOTH",
"187 707 OFFCURVE",
"101 623 OFFCURVE",
"101 523 CURVE SMOOTH",
"101 0 LINE"
);
}
);
width = 562;
},
{
associatedMasterId = "A0D976AB-773B-4D3A-9F7E-7A0C42AF1E7B";
layerId = "D8C65ABA-3C77-4769-9594-6904024B8183";
name = bubble;
paths = (
{
closed = 1;
nodes = (
"382 -45 LINE",
"547 -45 OFFCURVE",
"649 50 OFFCURVE",
"649 185 CURVE SMOOTH",
"649 261 OFFCURVE",
"638 324 OFFCURVE",
"588 365 CURVE",
"618 402 OFFCURVE",
"635 453 OFFCURVE",
"635 514 CURVE SMOOTH",
"635 663 OFFCURVE",
"505 769 OFFCURVE",
"324 769 CURVE SMOOTH",
"143 769 OFFCURVE",
"0 663 OFFCURVE",
"0 514 CURVE SMOOTH",
"0 -45 LINE"
);
}
);
width = 649;
},
{
associatedMasterId = "35616FF6-3D9C-499B-B113-AC9E0DB5842A";
layerId = "A8575DBA-DCD7-448E-BFFE-162C3EA09154";
name = bubble;
paths = (
{
closed = 1;
nodes = (
"327 -60 LINE SMOOTH",
"479 -60 OFFCURVE",
"579 45 OFFCURVE",
"579 188 CURVE SMOOTH",
"579 265 OFFCURVE",
"553 326 OFFCURVE",
"501 371 CURVE",
"535 411 OFFCURVE",
"552 463 OFFCURVE",
"552 526 CURVE SMOOTH",
"552 666 OFFCURVE",
"441 767 OFFCURVE",
"286 767 CURVE SMOOTH",
"131 767 OFFCURVE",
"0 666 OFFCURVE",
"0 526 CURVE SMOOTH",
"0 -60 LINE"
);
}
);
width = 579;
},
{
associatedMasterId = "3B040282-CF47-4846-BCAF-7BFF90FB63BC";
layerId = "5C4AD608-07EB-4BBC-AA05-5620F793E3B6";
name = bubble;
paths = (
{
closed = 1;
nodes = (
"310 -58 LINE SMOOTH",
"445 -58 OFFCURVE",
"562 56 OFFCURVE",
"562 191 CURVE SMOOTH",
"562 258 OFFCURVE",
"525 324 OFFCURVE",
"476 370 CURVE",
"509 412 OFFCURVE",
"528 467 OFFCURVE",
"528 524 CURVE SMOOTH",
"528 655 OFFCURVE",
"415 765 OFFCURVE",
"279 765 CURVE SMOOTH",
"142 765 OFFCURVE",
"0 655 OFFCURVE",
"0 523 CURVE SMOOTH",
"0 -58 LINE"
);
}
);
width = 562;
}
);
leftKerningGroup = germandbls;
rightKerningGroup = germandbls;
unicode = 00DF;
},
